<svg width="30" height="18" viewBox="0 0 30 18" fill="none" xmlns="http://www.w3.org/2000/svg">
<g clip-path="url(#clip0_10766_48423)">
<path d="M6.89207 0.290039H13.9448C14.9293 0.290039 15.5416 1.09249 15.312 2.08026L12.0284 16.1779C11.7967 17.1622 10.811 17.9653 9.8258 17.9653H2.77374C1.79061 17.9653 1.17691 17.1622 1.40658 16.1779L4.69151 2.08026C4.92117 1.09249 5.90636 0.290039 6.89207 0.290039Z" fill="#E21836"/>
<path d="M13.3555 0.285645H21.466C22.4503 0.285645 22.0065 1.0881 21.7749 2.07587L18.4919 16.1735C18.2615 17.1578 18.3334 17.9609 17.347 17.9609H9.23648C8.25008 17.9609 7.63965 17.1578 7.87138 16.1735L11.1542 2.07587C11.3874 1.0881 12.3705 0.285645 13.3555 0.285645Z" fill="#00447C"/>
<path d="M21.1413 0.285645H28.1941C29.1799 0.285645 29.7923 1.0881 29.5607 2.07587L26.2777 16.1735C26.0459 17.1578 25.0595 17.9609 24.0738 17.9609H17.0243C16.0379 17.9609 15.4261 17.1578 15.6572 16.1735L18.9407 2.07587C19.1704 1.0881 20.1549 0.285645 21.1413 0.285645Z" fill="#007B84"/>
<path d="M8.73209 4.80468C8.00683 4.81207 7.79263 4.80468 7.72421 4.78852C7.69791 4.91349 7.2085 7.17112 7.20712 7.17301C7.10175 7.62977 7.02508 7.95535 6.76464 8.16559C6.6168 8.28782 6.44421 8.34678 6.24411 8.34678C5.92248 8.34678 5.7351 8.18708 5.70364 7.88419L5.69763 7.78018C5.69763 7.78018 5.79561 7.16837 5.79561 7.16493C5.79561 7.16493 6.30926 5.10757 6.40123 4.83562C6.40605 4.82015 6.40742 4.81207 6.40862 4.80468C5.40883 4.81344 5.23159 4.80468 5.21939 4.78852C5.21268 4.81069 5.18793 4.93825 5.18793 4.93825L4.66344 7.25708L4.61841 7.45374L4.53125 8.097C4.53125 8.28782 4.56873 8.44356 4.64333 8.57524C4.88228 8.9928 5.56388 9.05537 5.94947 9.05537C6.44627 9.05537 6.91231 8.94983 7.22724 8.75712C7.77389 8.43411 7.91692 7.92922 8.04447 7.48055L8.10361 7.25037C8.10361 7.25037 8.63273 5.11359 8.72264 4.83562C8.72608 4.82015 8.72745 4.81207 8.73209 4.80468ZM10.5324 6.52844C10.4048 6.52844 10.1717 6.55938 9.96237 6.66201C9.88638 6.70103 9.81453 6.74607 9.73872 6.79094L9.80714 6.54391L9.76966 6.50231C9.32563 6.59221 9.22627 6.60425 8.8161 6.66201L8.78172 6.68487C8.7341 7.07974 8.69182 7.37662 8.51527 8.15277C8.44805 8.43882 8.37826 8.72762 8.3083 9.01298L8.32721 9.04926C8.74751 9.02708 8.87507 9.02708 9.24036 9.0331L9.26993 9.00095C9.31635 8.76321 9.32236 8.70751 9.42516 8.226C9.47347 7.99771 9.5742 7.49609 9.62389 7.31748C9.71517 7.27519 9.80525 7.23359 9.8912 7.23359C10.0959 7.23359 10.071 7.4122 10.0631 7.48337C10.0543 7.60285 9.97973 7.99307 9.90323 8.32811L9.85218 8.54437C9.81659 8.70407 9.77757 8.8593 9.74198 9.01762L9.75746 9.04926C10.1717 9.02708 10.2981 9.02708 10.6519 9.0331L10.6935 9.00095C10.7574 8.62964 10.7762 8.53027 10.8896 7.98963L10.9467 7.74123C11.0576 7.25508 11.1133 7.00857 11.0294 6.80778C10.9407 6.58276 10.7279 6.52844 10.5324 6.52844ZM12.5436 7.03743C12.3233 7.07972 12.1829 7.10791 12.0433 7.12614C11.9049 7.14831 11.77 7.16842 11.5572 7.19799L11.5403 7.21329L11.5248 7.2255C11.5027 7.38399 11.4872 7.521 11.4578 7.68208C11.4329 7.84865 11.3945 8.03792 11.3321 8.30987C11.2838 8.51805 11.2589 8.59059 11.2314 8.66383C11.2046 8.73706 11.175 8.80823 11.1207 9.01297L11.1334 9.03188L11.1441 9.04924C11.343 9.03978 11.4731 9.03308 11.6068 9.03188C11.7404 9.02706 11.8788 9.03188 12.093 9.03308L12.1117 9.01778L12.1318 9.00093C12.1628 8.81631 12.1674 8.76663 12.1863 8.67655C12.2051 8.57994 12.2374 8.44619 12.3166 8.08898C12.3541 7.9212 12.3959 7.75393 12.4347 7.58272C12.4751 7.41219 12.5174 7.24423 12.5577 7.07645L12.5516 7.05617L12.5436 7.03743ZM12.5482 6.35115C12.3481 6.23305 11.9969 6.27053 11.7606 6.43367C11.5249 6.59354 11.4981 6.82045 11.6975 6.9401C11.8941 7.05493 12.2467 7.02072 12.481 6.85621C12.7162 6.6929 12.7456 6.46805 12.5482 6.35115ZM13.7584 9.08625C14.1632 9.08625 14.5782 8.97468 14.8905 8.64359C15.1309 8.37508 15.2411 7.97557 15.2792 7.81106C15.4035 7.26577 15.3067 7.01118 15.1852 6.85612C15.0006 6.61975 14.6743 6.54394 14.3358 6.54394C14.1323 6.54394 13.6475 6.56406 13.2688 6.9132C12.9968 7.16504 12.8712 7.50678 12.7954 7.83444C12.7189 8.16828 12.6308 8.76926 13.1835 8.99291C13.3541 9.06614 13.5999 9.08625 13.7584 9.08625ZM13.7267 7.85936C13.8201 7.44645 13.9303 7.09989 14.2115 7.09989C14.4319 7.09989 14.4479 7.35774 14.3499 7.77203C14.3324 7.864 14.2519 8.20592 14.1431 8.35153C14.0671 8.45897 13.9772 8.52412 13.8778 8.52412C13.8483 8.52412 13.6724 8.52412 13.6697 8.263C13.6683 8.13407 13.6946 8.00239 13.7267 7.85936ZM16.2912 9.03315L16.3229 9.001C16.3677 8.76326 16.3751 8.70739 16.4745 8.22605C16.5242 7.99776 16.627 7.49614 16.6753 7.31753C16.7667 7.27507 16.8552 7.23347 16.9439 7.23347C17.1473 7.23347 17.1226 7.41208 17.1145 7.48325C17.1071 7.6029 17.0325 7.99295 16.9546 8.32799L16.9063 8.54425C16.8693 8.70412 16.8291 8.85918 16.7935 9.01768L16.809 9.04931C17.2247 9.02713 17.3462 9.02713 17.702 9.03315L17.745 9.001C17.8074 8.62951 17.8243 8.53015 17.9412 7.98968L17.9969 7.74111C18.1083 7.25496 18.1646 7.00862 18.0821 6.80784C17.9908 6.58281 17.7767 6.52849 17.5839 6.52849C17.4562 6.52849 17.2219 6.55926 17.0137 6.66206C16.9393 6.70108 16.8647 6.74595 16.7915 6.79099L16.8552 6.54396L16.821 6.50219C16.3772 6.59227 16.2758 6.6043 15.8661 6.66206L15.8346 6.68492C15.785 7.07979 15.7446 7.3765 15.568 8.15282C15.5008 8.43887 15.431 8.72767 15.3612 9.01304L15.38 9.04931C15.8009 9.02713 15.9266 9.02713 16.2912 9.03315ZM19.3452 9.04922C19.3713 8.92167 19.5266 8.16563 19.5279 8.16563C19.5279 8.16563 19.6601 7.61089 19.6682 7.59078C19.6682 7.59078 19.7098 7.53302 19.7514 7.51015H19.8126C20.39 7.51015 21.0421 7.51015 21.5531 7.1342C21.9009 6.87634 22.1387 6.49557 22.2447 6.0328C22.2722 5.91934 22.2925 5.7844 22.2925 5.64945C22.2925 5.47222 22.2569 5.29688 22.1541 5.15987C21.8935 4.79526 21.3745 4.78855 20.7755 4.7858C20.7736 4.7858 20.4801 4.78855 20.4801 4.78855C19.7132 4.79801 19.4057 4.79526 19.2794 4.77979C19.2687 4.83565 19.2486 4.93502 19.2486 4.93502C19.2486 4.93502 18.9739 6.20814 18.9739 6.21021C18.9739 6.21021 18.3165 8.91703 18.2856 9.04458C18.9551 9.0365 19.2297 9.0365 19.3452 9.04922ZM19.8542 6.78764C19.8542 6.78764 20.1463 5.51709 20.1449 5.5219L20.1544 5.45675L20.1585 5.40707L20.2752 5.4191C20.2752 5.4191 20.8776 5.47084 20.8917 5.47222C21.1294 5.56419 21.2274 5.80125 21.159 6.11067C21.0966 6.39346 20.9131 6.6312 20.6775 6.74604C20.4834 6.84333 20.2456 6.85141 20.0007 6.85141H19.8422L19.8542 6.78764ZM21.6727 7.8829C21.5955 8.21192 21.5068 8.8129 22.0567 9.0271C22.2321 9.1017 22.3892 9.12388 22.5489 9.1158C22.7175 9.10669 22.8738 9.02211 23.0185 8.9004C23.0055 8.95043 22.9924 9.00045 22.9793 9.05065L23.0043 9.08279C23.3998 9.06612 23.5226 9.06612 23.9511 9.06939L23.99 9.03982C24.0525 8.67194 24.1115 8.31472 24.2741 7.61094C24.3534 7.27384 24.4325 6.94 24.5138 6.60427L24.501 6.56731C24.0586 6.6493 23.9403 6.66684 23.5147 6.72718L23.4823 6.75348C23.478 6.78769 23.4736 6.82052 23.4694 6.85336C23.4033 6.74643 23.3073 6.65515 23.1593 6.59825C22.9701 6.52381 22.5255 6.61974 22.1434 6.96767C21.8749 7.21608 21.7459 7.55645 21.6727 7.8829ZM22.602 7.90301C22.6967 7.49749 22.8055 7.15436 23.0875 7.15436C23.2657 7.15436 23.3596 7.31888 23.3405 7.59942C23.3254 7.66939 23.3091 7.74314 23.2896 7.82651C23.2614 7.94702 23.2308 8.06649 23.2011 8.18614C23.1708 8.26796 23.1356 8.34515 23.0969 8.39655C23.0244 8.49935 22.8518 8.56312 22.7524 8.56312C22.7242 8.56312 22.5503 8.56312 22.5443 8.30664C22.5429 8.17892 22.5692 8.04741 22.602 7.90301ZM27.455 6.56402L27.4208 6.525C26.9829 6.6137 26.9037 6.6278 26.5014 6.68212L26.4719 6.71169C26.4705 6.7165 26.4693 6.72389 26.4672 6.7306L26.4658 6.72389C26.1664 7.41478 26.1751 7.26574 25.9314 7.80965C25.93 7.78489 25.93 7.76942 25.9286 7.74312L25.8676 6.56402L25.8293 6.525C25.3706 6.6137 25.3598 6.6278 24.9362 6.68212L24.9032 6.71169C24.8986 6.72579 24.8986 6.74126 24.8958 6.7581L24.8986 6.76412C24.9515 7.0347 24.9388 6.97436 24.9919 7.40137C25.0167 7.61093 25.0497 7.82168 25.0744 8.02865C25.1162 8.37504 25.1396 8.54557 25.1906 9.07418C24.9046 9.54623 24.8369 9.72484 24.5615 10.1391L24.5634 10.1433L24.3695 10.4499C24.3473 10.4823 24.3272 10.5044 24.299 10.5139C24.268 10.5292 24.2278 10.5319 24.1719 10.5319H24.0645L23.9048 11.0631L24.4527 11.0726C24.7743 11.0712 24.9764 10.9208 25.0853 10.7186L25.4298 10.1283H25.4243L25.4605 10.0867C25.6923 9.58783 27.455 6.56402 27.455 6.56402ZM21.6727 13.5404H21.4403L22.3005 10.6952H22.5858L22.6764 10.4021L22.6852 10.728C22.6745 10.9295 22.833 11.1081 23.2494 11.0785H23.7309L23.8966 10.5306H23.7154C23.6112 10.5306 23.5629 10.5043 23.569 10.448L23.5602 10.1164H22.6685V10.1181C22.3802 10.1241 21.5193 10.1458 21.345 10.1922C21.1341 10.2465 20.9118 10.4064 20.9118 10.4064L20.9992 10.1129H20.1651L19.9913 10.6952L19.1195 13.5839H18.9504L18.7845 14.1278H20.4458L20.3901 14.3091H21.2087L21.263 14.1278H21.4927L21.6727 13.5404ZM20.9911 11.2733C20.8575 11.3102 20.6089 11.4223 20.6089 11.4223L20.83 10.6952H21.4927L21.3328 11.225C21.3328 11.225 21.1281 11.237 20.9911 11.2733ZM21.0038 12.3121C21.0038 12.3121 20.7956 12.3382 20.6586 12.3692C20.5237 12.4101 20.2706 12.539 20.2706 12.539L20.4989 11.7823H21.165L21.0038 12.3121ZM20.6325 13.5471H19.9677L20.1604 12.9084H20.8231L20.6325 13.5471ZM22.2334 11.7823H23.1916L23.0539 12.2282H22.0829L21.9372 12.7157H22.7867L22.1435 13.6215C22.0984 13.688 22.058 13.7116 22.0131 13.7303C21.9681 13.7532 21.909 13.78 21.8406 13.78H21.6049L21.4429 14.3139H22.0594C22.3798 14.3139 22.5691 14.1682 22.7088 13.9768L23.15 13.3731L23.2447 13.9861C23.2648 14.1009 23.3473 14.1682 23.4032 14.1943C23.4649 14.2252 23.5287 14.2784 23.6187 14.2863C23.7154 14.2904 23.7851 14.2937 23.8316 14.2937H24.1345L24.3163 13.6961H24.1969C24.1283 13.6961 24.0102 13.6846 23.9901 13.6631C23.9699 13.637 23.9699 13.5967 23.9591 13.5355L23.863 12.9212H23.4695L23.6421 12.7157H24.6112L24.7602 12.2282H23.863L24.0028 11.7823H24.8972L25.0631 11.2324H22.3965L22.2334 11.7823ZM14.1404 13.6712L14.364 12.9272H15.2832L15.4512 12.3739H14.5311L14.6716 11.9159H15.5706L15.7372 11.3801H13.4877L13.3245 11.9159H13.8356L13.6993 12.3739H13.1868L13.017 12.9367H13.5279L13.2298 13.921C13.1896 14.0513 13.2487 14.101 13.2862 14.1615C13.3245 14.2205 13.3634 14.2595 13.4507 14.2817C13.5408 14.3018 13.6025 14.3138 13.6864 14.3138H14.7226L14.9072 13.7008L14.4479 13.7639C14.3592 13.7639 14.1136 13.7532 14.1404 13.6712ZM14.2458 10.1096L14.0129 10.5306C13.963 10.6225 13.9182 10.6796 13.8778 10.7059C13.8422 10.7281 13.7717 10.7374 13.6696 10.7374H13.548L13.3856 11.2759H13.7892C13.9833 11.2759 14.1324 11.2048 14.2035 11.1692C14.28 11.1283 14.3001 11.1517 14.3593 11.0946L14.4956 10.9765H15.756L15.9233 10.4157H15.0006L15.1617 10.1096H14.2458ZM16.1066 13.682C16.0851 13.6511 16.1006 13.5966 16.1334 13.4832L16.4779 12.3429H17.7034C17.882 12.3403 18.0109 12.3383 18.0948 12.3322C18.1849 12.3228 18.2829 12.2906 18.3896 12.2329C18.4998 12.1724 18.5562 12.1086 18.6038 12.0354C18.657 11.9623 18.7422 11.8024 18.8155 11.5559L19.2485 10.113L17.9767 10.1203C17.9767 10.1203 17.5851 10.1781 17.4127 10.2419C17.2387 10.3131 16.9902 10.5118 16.9902 10.5118L17.105 10.1162H16.3194L15.2195 13.7639C15.1805 13.9055 15.1544 14.0083 15.1484 14.07C15.1463 14.1366 15.2323 14.2024 15.288 14.2521C15.3538 14.3018 15.4511 14.2937 15.5445 14.3018C15.6426 14.3092 15.7822 14.3138 15.9749 14.3138H16.5786L16.7639 13.6881L16.2235 13.7391C16.1657 13.7391 16.1239 13.7082 16.1066 13.682ZM16.7002 11.5728H17.9874L17.9056 11.8293C17.894 11.8353 17.8665 11.8165 17.7356 11.832H16.6209L16.7002 11.5728ZM16.958 10.7126H18.2561L18.1627 11.0215C18.1627 11.0215 17.5509 11.0155 17.4529 11.0335C17.0218 11.1081 16.77 11.3385 16.77 11.3385L16.958 10.7126ZM17.9344 12.6881C17.9237 12.7265 17.9069 12.7499 17.8833 12.7674C17.8572 12.7842 17.8149 12.7903 17.7518 12.7903H17.5684L17.5792 12.4779H16.8163L16.7854 14.0049C16.7842 14.1151 16.7948 14.1789 16.8754 14.23C16.9561 14.2937 17.2045 14.3018 17.5388 14.3018H18.0169L18.1895 13.7302L17.7733 13.7531L17.6349 13.7612C17.616 13.7531 17.598 13.7457 17.5778 13.7256C17.5603 13.7082 17.5307 13.7189 17.5356 13.6087L17.5388 13.2173L17.9753 13.1992C18.211 13.1992 18.3117 13.1225 18.3977 13.0495C18.4797 12.9795 18.5065 12.8991 18.5374 12.7903L18.6107 12.4437H18.0109L17.9344 12.6881Z" fill="white"/>
</g>
<defs>
<clipPath id="clip0_10766_48423">
<rect x="0.762695" width="29.1429" height="18" rx="3" fill="white"/>
</clipPath>
</defs>
</svg>
