<svg width="35" height="18" viewBox="0 0 35 18" fill="none" xmlns="http://www.w3.org/2000/svg">
<g clip-path="url(#clip0_10766_48515)">
<path d="M7.50159 0C5.44111 0 3.68218 1.47697 3.34146 3.49323L2.8125 6.62564H32.3052L33.4054 0H7.50159Z" fill="#FFC82B"/>
<path d="M2.81267 6.62573L0.891602 18.0001H26.8014C28.8867 18.0001 30.6655 16.5024 31.0044 14.461L32.3054 6.62599H2.81267V6.62573Z" fill="#1B397C"/>
<path d="M7.95559 10.3273C7.62714 10.3273 7.33133 10.4272 7.06894 10.6275C6.80629 10.8274 6.59533 11.122 6.43607 11.511C6.27681 11.8998 6.19718 12.3179 6.19718 12.7647C6.19718 13.1771 6.28229 13.4832 6.45304 13.6835C6.62353 13.8834 6.89558 13.9837 7.26893 13.9837C7.63236 13.9837 8.05297 13.8886 8.53076 13.6985V14.6616C8.03548 14.8517 7.53759 14.9467 7.03735 14.9467C6.405 14.9467 5.91338 14.7623 5.56248 14.3929C5.21158 14.0238 5.03613 13.5009 5.03613 12.824C5.03613 12.177 5.16563 11.5812 5.42437 11.0367C5.6831 10.4923 6.0293 10.0786 6.46244 9.79574C6.89558 9.51314 7.39347 9.37171 7.95585 9.37171C8.26706 9.37171 8.54329 9.39943 8.78479 9.45512C9.0263 9.51081 9.28503 9.61261 9.56152 9.76077L9.12081 10.6868C8.85712 10.541 8.63911 10.4449 8.46758 10.398C8.29552 10.3506 8.12503 10.3273 7.95559 10.3273ZM13.4927 14.8724H12.3502L12.8504 12.5349H11.092L10.5918 14.8724H9.45291L10.6066 9.45667H11.7492L11.2972 11.5791H13.0559L13.5076 9.45667H14.6464L13.4927 14.8724ZM17.7531 13.5832H15.9871L15.3448 14.8724H14.1501L17.01 9.4344H18.4027L18.9515 14.8724H17.8426L17.7531 13.5832ZM17.6969 12.6202L17.6001 11.3237C17.575 11.0002 17.5627 10.6878 17.5627 10.3866V10.2532C17.4531 10.5495 17.3176 10.8632 17.1557 11.194L16.4537 12.6202H17.6969ZM23.8541 11.0347C23.8541 11.6299 23.6432 12.0972 23.2212 12.4368C22.7993 12.7764 22.2174 12.946 21.4756 12.946H21.1545L20.7475 14.8724H19.6086L20.7623 9.45667H22.0244C22.6268 9.45667 23.0823 9.58826 23.3909 9.85117C23.6996 10.1141 23.8541 10.5088 23.8541 11.0347ZM21.36 12.0052H21.5691C21.9226 12.0052 22.2007 11.92 22.4035 11.7496C22.6064 11.5791 22.7077 11.3509 22.7077 11.0645C22.7077 10.62 22.4651 10.3977 21.9798 10.3977H21.7036L21.36 12.0052ZM27.3788 13.2721C27.3788 13.7884 27.1944 14.1963 26.826 14.4966C26.4577 14.7965 25.9585 14.9465 25.329 14.9465C24.7786 14.9465 24.3358 14.8354 23.9998 14.6131V13.5982C24.4799 13.865 24.9259 13.9982 25.3363 13.9982C25.6151 13.9982 25.8329 13.9459 25.9898 13.8407C26.1467 13.7358 26.225 13.5918 26.225 13.4092C26.225 13.303 26.2083 13.2097 26.1746 13.1294C26.1412 13.0494 26.0932 12.9745 26.031 12.9054C25.9686 12.8362 25.8143 12.7103 25.5681 12.5274C25.2246 12.2829 24.983 12.041 24.8436 11.8014C24.7042 11.5618 24.6345 11.3038 24.6345 11.0272C24.6345 10.7085 24.7115 10.4239 24.8661 10.1731C25.0204 9.92266 25.24 9.72736 25.5251 9.58774C25.8102 9.44839 26.1378 9.37845 26.5091 9.37845C27.049 9.37845 27.5432 9.50071 27.9913 9.74523L27.5842 10.6083C27.196 10.4257 26.8375 10.3343 26.5088 10.3343C26.3021 10.3343 26.1329 10.3899 26.001 10.5011C25.8689 10.6122 25.8031 10.7591 25.8031 10.9419C25.8031 11.0927 25.8441 11.224 25.9263 11.3364C26.0083 11.4488 26.1927 11.5975 26.4791 11.7827C26.7801 11.9804 27.0054 12.1982 27.1548 12.4365C27.3041 12.6751 27.3788 12.9535 27.3788 13.2721ZM25.8733 4.04043C26.0415 3.81863 26.1486 3.55726 26.1842 3.28198C26.2199 3.0067 26.1827 2.72696 26.0765 2.47022L25.4655 0.992988C25.4125 0.802603 25.617 0.643043 25.7911 0.738883L30.1275 3.12737C30.2891 3.21621 30.2779 3.45011 30.1089 3.52393L24.824 5.8259C24.7071 5.87693 24.594 5.74768 24.6611 5.63992L25.8733 4.04043Z" fill="white"/>
</g>
<defs>
<clipPath id="clip0_10766_48515">
<rect width="34.2581" height="18" fill="white" transform="translate(0.0195312)"/>
</clipPath>
</defs>
</svg>
