<svg width="30" height="18" viewBox="0 0 30 18" fill="none" xmlns="http://www.w3.org/2000/svg">
<g clip-path="url(#clip0_10766_48419)">
<path d="M19.1892 15.7312H11.4355V1.88379H19.1892V15.7312Z" fill="#FF5F00"/>
<path d="M11.9364 8.80663C11.9364 5.99762 13.2599 3.49543 15.3209 1.88292C13.8138 0.703775 11.9116 -1.76557e-05 9.84442 -1.76557e-05C4.95049 -1.76557e-05 0.983398 3.94279 0.983398 8.80663C0.983398 13.6705 4.95049 17.6133 9.84442 17.6133C11.9116 17.6133 13.8138 16.9095 15.3209 15.7303C13.2599 14.1178 11.9364 11.6156 11.9364 8.80663" fill="#EB001B"/>
<path d="M29.6486 8.80663C29.6486 13.6705 25.6815 17.6133 20.7876 17.6133C18.7204 17.6133 16.8183 16.9095 15.3105 15.7303C17.3721 14.1178 18.6956 11.6156 18.6956 8.80663C18.6956 5.99762 17.3721 3.49543 15.3105 1.88292C16.8183 0.703775 18.7204 -1.76557e-05 20.7876 -1.76557e-05C25.6815 -1.76557e-05 29.6486 3.94279 29.6486 8.80663" fill="#F79E1B"/>
</g>
<defs>
<clipPath id="clip0_10766_48419">
<rect x="0.514648" width="29.2484" height="18" rx="3" fill="white"/>
</clipPath>
</defs>
</svg>
