<svg width="54" height="18" viewBox="0 0 54 18" fill="none" xmlns="http://www.w3.org/2000/svg">
<g clip-path="url(#clip0_10766_48429)">
<path d="M39.5147 2.40413L38.5145 4.53028H40.5204L39.5147 2.40413ZM27.9732 3.72166C28.1617 3.63538 28.2728 3.4477 28.2728 3.21463C28.2728 2.98623 28.1561 2.82082 27.9676 2.74309C27.7959 2.65692 27.5317 2.64697 27.2785 2.64697H25.4891V3.83161H27.2545C27.5372 3.83167 27.7734 3.82803 27.9732 3.72166ZM5.04451 2.40413L4.05564 4.53028H6.03935L5.04451 2.40413ZM51.0848 16.0248H48.2785V14.8809H51.0735C51.3506 14.8809 51.5446 14.849 51.6614 14.7487C51.7719 14.6593 51.8344 14.533 51.8332 14.4009C51.8332 14.2455 51.7628 14.122 51.6556 14.0482C51.5504 13.9668 51.3967 13.9297 51.1436 13.9297C49.7791 13.889 48.0769 13.9666 48.0769 12.2785C48.0769 11.5049 48.637 10.6904 50.1619 10.6904H53.0566V9.62904H50.3672C49.5556 9.62904 48.9659 9.79955 48.5484 10.0648V9.62904H44.5706C43.9345 9.62904 43.1879 9.76732 42.8348 10.0648V9.62904H35.7309V10.0648C35.1657 9.70695 34.2116 9.62904 33.7715 9.62904H29.0859V10.0648C28.6387 9.6848 27.6439 9.62904 27.0379 9.62904H21.7938L20.594 10.7683L19.4701 9.62904H11.6366V17.0732H19.3223L20.5586 15.9157L21.7234 17.0732L26.4609 17.0768V15.3257H26.9268C27.5553 15.3345 28.2967 15.3121 28.9509 15.0641V17.0729H32.8586V15.1326H33.047C33.2875 15.1326 33.3113 15.1415 33.3113 15.3524V17.0725H45.1823C45.9359 17.0725 46.7238 16.9035 47.1599 16.596V17.0725H50.9254C51.7089 17.0725 52.4742 16.9761 53.0564 16.7295V15.3428C52.7035 15.7956 52.0154 16.0251 51.0847 16.0251L51.0848 16.0248ZM26.989 14.2671H25.1758V16.0564H22.3513L20.562 14.2905L18.7024 16.0564H12.9463V10.7219H18.791L20.5788 12.4705L22.4272 10.7219H27.0706C28.2238 10.7219 29.5195 11.002 29.5195 12.4793C29.5195 13.9612 28.2592 14.2671 26.989 14.2671V14.2671ZM35.708 14.0253C35.9132 14.2856 35.9429 14.5287 35.9488 14.999V16.0565H34.4898V15.3891C34.4898 15.0682 34.5251 14.593 34.2549 14.3449C34.0428 14.1539 33.719 14.1083 33.1887 14.1083H31.6357V16.0565H30.1757V10.7219H33.5304C34.2664 10.7219 34.8021 10.7506 35.279 10.9736C35.7376 11.2167 36.0262 11.5497 36.0262 12.1583C36.0261 13.0097 35.3788 13.444 34.9963 13.5775C35.3196 13.6822 35.5839 13.8699 35.708 14.0253V14.0253ZM41.7107 11.8251H38.3078V12.7949H41.6276V13.8834H38.3078V14.9448L41.7107 14.9495V16.0564H36.8607V10.7219H41.7107V11.8251V11.8251ZM45.4448 16.0564H42.6146V14.9124H45.4336C45.7093 14.9124 45.9047 14.8805 46.0272 14.7803C46.1271 14.6978 46.1989 14.5779 46.1989 14.4326C46.1989 14.277 46.1211 14.1536 46.0216 14.0796C45.9104 13.9982 45.7569 13.9614 45.504 13.9614C44.145 13.9205 42.4431 13.9981 42.4431 12.3102C42.4431 11.5364 42.9974 10.7219 44.5208 10.7219H47.4342V11.8572H44.7683C44.5041 11.8572 44.3323 11.866 44.1862 11.9538C44.0269 12.0402 43.9679 12.1683 43.9679 12.3374C43.9679 12.5386 44.1031 12.6756 44.2858 12.7348C44.4391 12.7816 44.6037 12.7952 44.8513 12.7952L45.6337 12.814C46.4222 12.8305 46.964 12.9505 47.2932 13.2429C47.5759 13.4996 47.7278 13.824 47.7278 14.373C47.7277 15.5206 46.9104 16.0564 45.4448 16.0564V16.0564ZM34.1744 11.9112C33.9988 11.8197 33.7397 11.8148 33.4811 11.8148H31.6916V13.0129H33.4571C33.7398 13.0129 33.9802 13.0041 34.1744 12.9029C34.3627 12.803 34.4754 12.6191 34.4754 12.3909C34.4754 12.1628 34.3627 11.9976 34.1744 11.9112ZM50.4107 11.8147C50.1464 11.8147 49.9706 11.8235 49.8227 11.9111C49.6693 11.9976 49.6105 12.1257 49.6105 12.2949C49.6105 12.496 49.7399 12.633 49.9282 12.6923C50.0816 12.7391 50.246 12.7527 50.4881 12.7527L51.2759 12.7711C52.0705 12.7884 52.6012 12.9084 52.9247 13.2007C52.9836 13.2413 53.019 13.2869 53.0595 13.3327V11.8148H50.4109L50.4107 11.8147V11.8147ZM27.0393 11.8147H25.1446V13.1734H27.0225C27.5808 13.1734 27.928 12.9303 27.9283 12.4688C27.928 12.0023 27.564 11.8147 27.0393 11.8147V11.8147ZM14.3937 11.8147V12.7846H17.5838V13.8731H14.3937V14.9343H17.9664L19.6264 13.3694L18.0369 11.8147H14.3937ZM23.723 15.5452V11.2684L21.492 13.3724L23.723 15.5452V15.5452ZM14.5156 6.98032V7.89949H26.6563L26.6506 5.95497H26.8856C27.0501 5.96 27.098 5.97329 27.098 6.21158V7.89955H33.3773V7.44683C33.8837 7.68493 34.6714 7.89955 35.708 7.89955H38.3497L38.915 6.71497H40.1685L40.7213 7.89955H45.8119V6.77432L46.5826 7.89949H50.662V0.461426H46.625V1.33988L46.0597 0.461426H41.9171V1.33988L41.398 0.461426H35.8022C34.8655 0.461426 34.0423 0.576109 33.3772 0.895768V0.461426H29.5156V0.895768C29.0923 0.566279 28.5156 0.461426 27.8745 0.461426H13.7668L12.8203 2.38265L11.8482 0.461426H7.40478V1.33988L6.91654 0.461426H3.12702L1.36725 3.99806V6.82699L3.96942 1.49364H6.12855L8.59989 6.54319V1.49364H10.9718L12.8735 5.11164L14.6206 1.49364H17.04V6.82699H15.5505L15.5451 2.65001L13.4379 6.82699H12.162L10.0494 2.64631V6.82699H7.09356L6.5352 5.63737H3.50955L2.94543 6.82699H1.36719V7.89992H3.8502L4.41001 6.71528H5.66351L6.22186 7.89992H11.1071V6.99416L11.5431 7.90368H14.0791L14.5152 6.98051L14.5156 6.98032ZM33.6468 2.1153C34.1164 1.68964 34.8522 1.49334 35.8536 1.49334H37.2604V2.63611H35.8831C35.353 2.63611 35.0533 2.70529 34.765 2.95213C34.5171 3.17664 34.3472 3.60115 34.3472 4.16013C34.3472 4.73155 34.4768 5.1435 34.7467 5.41261C34.9704 5.62366 35.3772 5.68767 35.7596 5.68767H36.4124L38.4604 1.49352H40.6377L43.098 6.53803V1.49358H45.3106L47.865 5.20794V1.49358H49.3535V6.82674H47.2943L44.5398 2.82385V6.82674H41.5803L41.0149 5.63713H37.9961L37.4475 6.82674H35.7469C35.0406 6.82674 34.1463 6.68973 33.6399 6.23682C33.1291 5.78403 32.8636 5.17062 32.8636 4.20085C32.8633 3.40977 33.0219 2.68672 33.6468 2.1153V2.1153ZM30.6578 1.4934H32.1405V6.82674H30.6578V1.4934ZM23.9728 1.4934H27.3151C28.0576 1.4934 28.6051 1.51069 29.0749 1.74886C29.5345 1.98709 29.8102 2.3349 29.8102 2.92968C29.8102 3.7801 29.1631 4.21936 28.7864 4.35133C29.1042 4.45752 29.3759 4.64508 29.5054 4.80042C29.7106 5.06571 29.7459 5.30266 29.7459 5.77893V6.82668H28.2802L28.2747 6.15411C28.2747 5.83312 28.3097 5.37159 28.0454 5.11516C27.8331 4.92766 27.5093 4.88683 26.9861 4.88683H25.4262V6.82674H23.973L23.9728 1.4934V1.4934ZM18.1147 1.4934H22.9691V2.60401H19.568V3.56535H22.8875V4.65861H19.568V5.72372H22.9691V6.82668H18.1147V1.4934V1.4934Z" fill="#016FD0"/>
</g>
<defs>
<clipPath id="clip0_10766_48429">
<rect x="0.905273" width="52.6154" height="18" rx="3" fill="white"/>
</clipPath>
</defs>
</svg>
