<svg width="25" height="18" viewBox="0 0 25 18" fill="none" xmlns="http://www.w3.org/2000/svg">
<g clip-path="url(#clip0_10766_48431)">
<path d="M2.17255 13.2231H1.95587L1.73978 14.4855H1.95025C2.44903 14.4855 2.67163 14.2147 2.67163 13.7067C2.67163 13.3863 2.5032 13.2231 2.17255 13.2231ZM1.89578 15.1568H1.62522L1.36148 16.738H0.520508L1.22886 12.5518H2.34039C2.99517 12.5518 3.56026 12.8159 3.56026 13.6312C3.56026 14.6859 2.88742 15.1568 1.89578 15.1568" fill="#176FC1"/>
<path d="M4.92175 14.5166C4.61123 14.5166 4.30634 15.0567 4.30634 15.6516C4.30634 15.9581 4.3759 16.138 4.51917 16.138C4.76634 16.138 5.11741 15.5493 5.24943 14.7806L5.27252 14.6486C5.22072 14.6059 5.13428 14.5166 4.92175 14.5166ZM5.69227 16.7385H4.91612L4.98539 16.3176C4.85367 16.5341 4.65741 16.7991 4.21487 16.7991C3.84634 16.7991 3.49023 16.4979 3.49023 15.7419C3.49023 14.6548 4.10564 13.8555 4.81785 13.8555C5.22072 13.8555 5.36991 14.0296 5.4223 14.084L5.45072 13.9161H6.16973L5.69227 16.7385V16.7385Z" fill="#176FC1"/>
<path d="M7.85453 16.565C7.45817 17.393 7.06181 17.8794 6.14151 18L6.05566 17.4116C6.40644 17.2972 6.76254 17.1117 6.9585 16.6964L7.03813 16.5282L6.56747 13.9164H7.38979L7.59641 15.4534L8.27487 13.9164H9.13123L7.85453 16.565Z" fill="#176FC1"/>
<path d="M12.8923 16.738H12.1162L12.4323 14.8764C12.4548 14.7567 12.4495 14.6361 12.3178 14.6361C12.0759 14.6361 11.6444 15.2369 11.5242 15.9576L11.3922 16.738H10.6148L10.9322 14.8764C10.9544 14.7567 10.9496 14.6361 10.8167 14.6361C10.5752 14.6361 10.1445 15.2369 10.0228 15.9576L9.89108 16.738H9.11523L9.59211 13.9157H10.368L10.259 14.5764C10.4316 14.2815 10.7019 13.8551 11.1672 13.8551C11.5869 13.8551 11.7713 14.1377 11.742 14.5885C11.8915 14.3294 12.1736 13.8551 12.668 13.8551C13.1454 13.8551 13.3177 14.2218 13.2197 14.7978L12.8923 16.738Z" fill="#176FC1"/>
<path d="M15.1545 14.4322C14.9132 14.4322 14.6829 14.7509 14.5909 15.2073C15.1027 15.1353 15.4132 15.0094 15.4132 14.6962C15.4132 14.5166 15.3093 14.4322 15.1545 14.4322ZM14.5506 15.6702C14.5624 15.9812 14.6891 16.138 14.9475 16.138C15.2465 16.138 15.5334 15.9757 15.7468 15.8381L15.9596 16.3662C15.7811 16.5044 15.396 16.7991 14.8386 16.7991C14.2347 16.7991 13.752 16.493 13.752 15.6399C13.752 14.6486 14.2747 13.8555 15.1953 13.8555C15.885 13.8555 16.1837 14.1684 16.1837 14.6486C16.1837 15.4293 15.5742 15.6158 14.5506 15.6702" fill="#176FC1"/>
<path d="M18.761 16.738H17.9849L18.301 14.8764C18.3244 14.7567 18.3185 14.6361 18.1864 14.6361C17.9449 14.6361 17.5133 15.2369 17.3928 15.9576L17.2611 16.738H16.4844L16.9615 13.9157H17.738L17.6291 14.5764C17.8013 14.2815 18.0713 13.8551 18.5369 13.8551C19.0141 13.8551 19.1864 14.2218 19.0896 14.7978L18.761 16.738Z" fill="#176FC1"/>
<path d="M21.1761 14.5166H20.7738L20.5385 15.9095C20.5142 16.0301 20.5548 16.0895 20.6412 16.0895C20.7217 16.0895 20.7854 16.0663 20.8603 16.0301L20.9402 16.5882C20.825 16.6664 20.6066 16.7991 20.2961 16.7991C19.8941 16.7991 19.6588 16.5341 19.7555 15.9642L19.9977 14.5166H19.71L19.8127 13.9161H20.1007L20.2614 13.3036L21.0095 13.1351L20.8765 13.9161H21.2794L21.1761 14.5166Z" fill="#176FC1"/>
<path d="M23.3414 14.7751C23.1751 14.6548 22.9102 14.5231 22.7041 14.5231C22.5425 14.5231 22.433 14.5827 22.433 14.7209C22.433 14.8468 22.5543 14.9018 22.7154 14.9729L22.8646 15.0391C23.1405 15.1591 23.4456 15.3511 23.4456 15.8557C23.4456 16.4562 23.1405 16.7991 22.4504 16.7991C21.8874 16.7991 21.5589 16.5403 21.3525 16.3847L21.6568 15.8263C21.8584 15.9816 22.1743 16.1318 22.3818 16.1318C22.5603 16.1318 22.634 16.0663 22.634 15.9281C22.634 15.7898 22.5079 15.7292 22.3471 15.6634L22.1917 15.5981C21.9164 15.4837 21.6225 15.2914 21.6225 14.7924C21.6225 14.1443 22.1006 13.8558 22.6976 13.8558C23.1807 13.8558 23.4803 14.1084 23.6176 14.2157L23.3414 14.7751Z" fill="#176FC1"/>
<path d="M12.9008 9.092H11.2245L11.0617 10.0654H12.36L12.2395 10.787H10.9421L10.6414 12.5569H9.7998L10.5096 8.37064H13.0266L12.9008 9.092Z" fill="#176FC1"/>
<path d="M13.9637 10.3352C13.6532 10.3352 13.3483 10.876 13.3483 11.4702C13.3483 11.777 13.4173 11.9569 13.5612 11.9569C13.8083 11.9569 14.1594 11.3688 14.2908 10.5998L14.3145 10.4678C14.263 10.4255 14.1769 10.3352 13.9637 10.3352ZM14.7337 12.5574H13.9575L14.0268 12.1369C13.8948 12.3533 13.6994 12.6177 13.2563 12.6177C12.8883 12.6177 12.5322 12.3171 12.5322 11.5611C12.5322 10.4737 13.1476 9.67472 13.8595 9.67472C14.263 9.67472 14.4119 9.84911 14.464 9.90291L14.4927 9.73502H15.2114L14.7337 12.5574V12.5574Z" fill="#176FC1"/>
<path d="M17.3612 10.594C17.1939 10.4737 16.9296 10.3414 16.7227 10.3414C16.5617 10.3414 16.4521 10.402 16.4521 10.5396C16.4521 10.6657 16.5735 10.7195 16.7336 10.7919L16.8831 10.8583C17.1593 10.9783 17.4642 11.1697 17.4642 11.6746C17.4642 12.2757 17.1593 12.6177 16.4696 12.6177C15.906 12.6177 15.5789 12.3595 15.3711 12.204L15.6766 11.6449C15.877 11.8008 16.1937 11.951 16.4006 11.951C16.5779 11.951 16.6537 11.8852 16.6537 11.747C16.6537 11.6088 16.527 11.5488 16.366 11.4823L16.2109 11.4167C15.9353 11.3023 15.6416 11.1106 15.6416 10.6119C15.6416 9.96352 16.1191 9.67503 16.7168 9.67503C17.1993 9.67503 17.4985 9.92703 17.6368 10.0346L17.3612 10.594Z" fill="#176FC1"/>
<path d="M19.5165 10.3352H19.1143L18.878 11.7293C18.8555 11.849 18.8952 11.9093 18.9814 11.9093C19.0625 11.9093 19.1255 11.8849 19.2001 11.849L19.28 12.4071C19.1652 12.4856 18.9467 12.6177 18.6368 12.6177C18.2348 12.6177 17.9983 12.3533 18.0966 11.7831L18.3381 10.3352H18.0498L18.1537 9.73502H18.4411L18.6022 9.12249L19.3496 8.95398L19.217 9.73502H19.6199L19.5165 10.3352Z" fill="#176FC1"/>
<path d="M21.143 10.2514C20.9018 10.2514 20.6712 10.5695 20.58 11.0256C21.0915 10.9539 21.4017 10.828 21.4017 10.5157C21.4017 10.3352 21.2987 10.2514 21.143 10.2514ZM20.5392 11.4885C20.551 11.8008 20.6774 11.9569 20.9364 11.9569C21.2357 11.9569 21.5225 11.7949 21.7357 11.657L21.9482 12.1851C21.7697 12.3233 21.3843 12.6177 20.8269 12.6177C20.2233 12.6177 19.7402 12.3116 19.7402 11.4591C19.7402 10.4678 20.2633 9.67503 21.1842 9.67503C21.8733 9.67503 22.172 9.98732 22.172 10.4678C22.172 11.2485 21.5628 11.4347 20.5392 11.4885" fill="#176FC1"/>
<path d="M24.3691 10.5511C23.9781 10.5511 23.529 10.8993 23.3801 11.7765L23.2478 12.5569H22.4717L22.9491 9.73421H23.7078L23.6104 10.3288C23.7877 9.9086 23.9953 9.67423 24.5186 9.67423L24.3691 10.5511Z" fill="#176FC1"/>
<path d="M12.6483 5.82165V5.83587C12.6471 6.03747 12.4946 6.23969 12.1927 6.39181L2.07384 11.5112C1.46554 11.8195 1.24057 11.5684 1.57181 10.9537L3.42336 7.5173C3.69184 7.01578 3.84547 6.43758 3.84547 5.82165C3.84547 5.20542 3.69184 4.62691 3.42336 4.126L1.57181 0.68957C1.24057 0.0745732 1.46554 -0.176497 2.07384 0.131775L12.1927 5.25087C12.4946 5.40454 12.6471 5.60583 12.6483 5.80743V5.82165Z" fill="#176FC1"/>
</g>
<defs>
<clipPath id="clip0_10766_48431">
<rect x="0.520508" width="23.999" height="18" rx="3" fill="white"/>
</clipPath>
</defs>
</svg>
