<svg width="48" height="18" viewBox="0 0 48 18" fill="none" xmlns="http://www.w3.org/2000/svg">
<path d="M22.9659 8.91705V14.0776H21.3174V1.33338H25.6896C26.2115 1.32255 26.7304 1.41447 27.2163 1.60383C27.7022 1.79319 28.1456 2.07625 28.5208 2.43666C28.8998 2.77519 29.2014 3.19036 29.4054 3.65427C29.6094 4.11818 29.711 4.62007 29.7034 5.12623C29.7143 5.63509 29.6142 6.14026 29.4101 6.60713C29.2059 7.07399 28.9026 7.4915 28.5208 7.83105C27.7562 8.55505 26.8125 8.91671 25.6896 8.91603H22.9659V8.91705ZM22.9659 2.90238V7.3511H25.7305C26.0336 7.36002 26.3353 7.30602 26.6161 7.19256C26.897 7.0791 27.1509 6.90867 27.3617 6.69218C27.5713 6.48976 27.738 6.24765 27.8518 5.98016C27.9656 5.71268 28.0242 5.42525 28.0242 5.13487C28.0242 4.84449 27.9656 4.55706 27.8518 4.28958C27.738 4.02209 27.5713 3.77998 27.3617 3.57756C27.1536 3.35651 26.9005 3.1819 26.6193 3.06533C26.3381 2.94875 26.0352 2.89286 25.7305 2.90136H22.9659V2.90238Z" fill="black" fill-opacity="0.9"/>
<path d="M33.5011 5.07129C34.7196 5.07129 35.6814 5.39465 36.3866 6.04136C37.0917 6.68808 37.4439 7.57478 37.4433 8.70145V14.0755H35.8664V12.8654H35.7947C35.1121 13.862 34.2042 14.3602 33.0711 14.3602C32.1038 14.3602 31.2945 14.0755 30.6433 13.5061C30.3308 13.2447 30.0809 12.9174 29.9119 12.548C29.7429 12.1786 29.6591 11.7764 29.6665 11.3707C29.6665 10.4684 30.0098 9.75084 30.6965 9.21801C31.3833 8.68518 32.3 8.41808 33.4468 8.41673C34.4257 8.41673 35.2319 8.59468 35.8654 8.95057V8.57637C35.8672 8.29981 35.8071 8.02629 35.6893 7.77567C35.5716 7.52504 35.3991 7.30359 35.1845 7.12736C34.7485 6.73677 34.1804 6.52364 33.5933 6.53047C32.6724 6.53047 31.9437 6.9162 31.4072 7.68765L29.9552 6.7796C30.7539 5.64073 31.9359 5.07129 33.5011 5.07129ZM31.3682 11.4063C31.3671 11.6146 31.4162 11.8202 31.5113 12.0059C31.6064 12.1917 31.7448 12.3521 31.915 12.474C32.2796 12.7588 32.7322 12.9097 33.196 12.901C33.8916 12.8999 34.5585 12.6249 35.0503 12.1364C35.5964 11.6259 35.8695 11.027 35.8695 10.3396C35.3555 9.93285 34.6387 9.72948 33.7192 9.72948C33.0496 9.72948 32.4912 9.88981 32.044 10.2105C31.5925 10.5358 31.3682 10.9314 31.3682 11.4063V11.4063Z" fill="black" fill-opacity="0.9"/>
<path d="M46.4943 5.35718L40.9896 17.9204H39.2878L41.3306 13.5245L37.7109 5.35718H39.5028L42.119 11.621H42.1548L44.6993 5.35718H46.4943Z" fill="black" fill-opacity="0.9"/>
<path d="M16.308 7.80337C16.3086 7.30445 16.2662 6.8064 16.181 6.3147H9.22852V9.13442H13.2106C13.1291 9.58477 12.9566 10.0141 12.7036 10.3964C12.4505 10.7788 12.1221 11.1064 11.7382 11.3593V13.1896H14.1147C15.5063 11.9155 16.308 10.0313 16.308 7.80337Z" fill="#4285F4"/>
<path d="M9.22663 14.9557C11.2161 14.9557 12.8913 14.307 14.1129 13.1885L11.7363 11.3581C11.0748 11.8035 10.2229 12.0577 9.22663 12.0577C7.30368 12.0577 5.67152 10.7704 5.08788 9.03564H2.63965V10.9219C3.25326 12.1345 4.19417 13.1538 5.35732 13.8661C6.52048 14.5784 7.8601 14.9557 9.22663 14.9557V14.9557Z" fill="#34A853"/>
<path d="M5.08677 9.03904C4.77822 8.13002 4.77822 7.14562 5.08677 6.2366V4.35034H2.63854C2.12235 5.3704 1.85352 6.4962 1.85352 7.63782C1.85352 8.77944 2.12235 9.90524 2.63854 10.9253L5.08677 9.03904Z" fill="#FBBC04"/>
<path d="M9.22663 3.2132C10.278 3.19614 11.2939 3.59063 12.0547 4.3114L14.1589 2.22177C12.8247 0.977224 11.057 0.293947 9.22663 0.315178C7.8601 0.315239 6.52048 0.692485 5.35732 1.4048C4.19417 2.11711 3.25326 3.13645 2.63965 4.34902L5.08788 6.23528C5.67152 4.50053 7.30368 3.2132 9.22663 3.2132Z" fill="#EA4335"/>
</svg>
