<svg width="42" height="18" viewBox="0 0 42 18" fill="none" xmlns="http://www.w3.org/2000/svg">
<g clip-path="url(#clip0_10766_48463)">
<path d="M0.988144 16.5849V15.2227H2.04151V15.4532H1.27501V15.7551H1.98833V15.9847H1.27501V16.3553H2.06872V16.5849H0.988144ZM2.32381 15.2227H2.59634V15.4641H2.32401L2.32381 15.2227ZM2.32381 15.5981H2.59634V16.5849H2.32401L2.32381 15.5981ZM3.82544 16.5849H3.55311V16.0811C3.55311 15.9747 3.5473 15.9058 3.53567 15.8744C3.52403 15.8433 3.50534 15.8192 3.47896 15.8017C3.45258 15.7841 3.42142 15.7756 3.38444 15.7756C3.33729 15.7756 3.29512 15.7879 3.25773 15.8128C3.22109 15.8363 3.19385 15.871 3.18046 15.9112C3.16633 15.952 3.15969 16.0277 3.15969 16.1378V16.5849H2.88736V15.5979H3.14016V15.7427C3.2301 15.6314 3.34331 15.5756 3.47958 15.5756C3.53961 15.5756 3.59424 15.586 3.6441 15.6069C3.69395 15.6274 3.73134 15.6541 3.7571 15.6862C3.78265 15.7184 3.80051 15.7549 3.81028 15.7957C3.82066 15.8365 3.82544 15.8953 3.82544 15.9716V16.5849ZM4.38692 15.2227V15.7236C4.47458 15.625 4.57968 15.5756 4.70183 15.5756C4.76435 15.5756 4.82106 15.587 4.87133 15.6095C4.9218 15.6314 4.95961 15.6601 4.98537 15.6947C5.01071 15.7294 5.02816 15.7678 5.03751 15.81C5.04685 15.8523 5.05163 15.9176 5.05163 16.0062V16.5849H4.77951V16.0636C4.77951 15.96 4.77432 15.8947 4.76393 15.8664C4.75355 15.8389 4.73527 15.8166 4.7091 15.8003C4.68292 15.7839 4.6501 15.7756 4.61063 15.7756C4.56556 15.7756 4.52505 15.7861 4.48974 15.8071C4.45317 15.8294 4.42557 15.8629 4.41143 15.9022C4.39523 15.9449 4.38692 16.0078 4.38692 16.0904V16.5849H4.11438V15.2227H4.38692ZM5.93778 16.2709L6.20907 16.3147C6.17438 16.4099 6.11892 16.4824 6.04393 16.5324C5.96873 16.5822 5.87443 16.607 5.76142 16.607C5.58237 16.607 5.44984 16.5513 5.36384 16.4388C5.29612 16.3491 5.26206 16.236 5.26206 16.099C5.26206 15.9355 5.30672 15.8072 5.39604 15.7146C5.48536 15.622 5.59794 15.5758 5.73421 15.5758C5.88751 15.5758 6.0082 15.6242 6.09669 15.7212C6.18518 15.8182 6.22756 15.9666 6.22361 16.1667H5.54124C5.54331 16.2442 5.56512 16.3043 5.60729 16.3476C5.64946 16.3908 5.70181 16.4119 5.76433 16.4119C5.80691 16.4119 5.84285 16.4009 5.87172 16.3786C5.9006 16.3563 5.92303 16.3203 5.93778 16.2709M5.95336 16.007C5.95128 15.9313 5.93093 15.874 5.89229 15.8347C5.87443 15.8158 5.85259 15.8008 5.8282 15.7906C5.80381 15.7804 5.77744 15.7753 5.75083 15.7756C5.72298 15.7749 5.69532 15.7802 5.66983 15.791C5.64434 15.8017 5.62164 15.8178 5.60335 15.8379C5.56471 15.8791 5.5456 15.9357 5.54622 16.007H5.95336ZM6.45937 15.2227H6.73191V15.4641H6.45937V15.2227ZM6.45937 15.5981H6.73191V16.5849H6.45937V15.5981ZM7.49675 15.5979V15.8063H7.31063V16.204C7.31063 16.2844 7.31249 16.3314 7.31603 16.3446L7.34012 16.3778L7.38644 16.3908C7.41158 16.3908 7.44793 16.3822 7.49571 16.3655L7.51918 16.5682C7.45582 16.5941 7.38416 16.607 7.30377 16.607C7.25838 16.6077 7.21332 16.5997 7.17124 16.5834C7.13178 16.5676 7.10269 16.5473 7.08441 16.5222C7.06613 16.4971 7.05326 16.4631 7.04599 16.4202C7.04038 16.3904 7.03747 16.3286 7.03747 16.2364V15.8063H6.91221V15.5979H7.03747V15.4018L7.31063 15.2494V15.5979H7.49675ZM7.69948 15.2227H7.97202V16.5849H7.69948V15.2227ZM8.26512 15.2227H8.53744V15.4641H8.26512V15.2227ZM8.26512 15.5981H8.53744V16.5849H8.26512V15.5981ZM9.7277 15.8899L9.45932 15.9365C9.45018 15.8847 9.42961 15.8463 9.39762 15.8202C9.36584 15.7943 9.3243 15.7812 9.27341 15.7812C9.20527 15.7812 9.15126 15.8037 9.11076 15.8485C9.07046 15.8933 9.05031 15.9686 9.05031 16.0739C9.05031 16.1908 9.07087 16.2737 9.1118 16.3221C9.15272 16.3705 9.20797 16.3942 9.27694 16.3942C9.32887 16.3942 9.37104 16.3802 9.40386 16.3523C9.43668 16.3245 9.46036 16.2755 9.47386 16.207L9.7412 16.2504C9.71336 16.3681 9.66019 16.4569 9.58125 16.517C9.50252 16.5772 9.397 16.607 9.26447 16.607C9.11387 16.607 8.99402 16.5614 8.90428 16.4706C8.81496 16.3796 8.77009 16.2536 8.77009 16.0924C8.77009 15.9295 8.81496 15.8027 8.9049 15.7121C8.99464 15.6212 9.11616 15.5756 9.26946 15.5756C9.39451 15.5756 9.49422 15.6015 9.56837 15.6533C9.64253 15.7051 9.6955 15.7837 9.7277 15.8899M10.2194 15.2227V15.7236C10.3072 15.625 10.4124 15.5756 10.5343 15.5756C10.597 15.5756 10.6535 15.587 10.704 15.6095C10.7543 15.6314 10.7923 15.6601 10.8178 15.6947C10.8434 15.7294 10.8608 15.7678 10.8702 15.81C10.8795 15.8523 10.8841 15.9176 10.8841 16.0062V16.5849H10.612V16.0636C10.612 15.96 10.6068 15.8947 10.5964 15.8664C10.586 15.8389 10.5679 15.8166 10.5416 15.8003C10.5152 15.7839 10.4828 15.7756 10.4433 15.7756C10.398 15.7756 10.3575 15.7861 10.3222 15.8071C10.2856 15.8294 10.2581 15.8629 10.2441 15.9022C10.2277 15.9449 10.2194 16.0078 10.2194 16.0904V16.5849H9.94705V15.2227H10.2194ZM11.7702 16.2709L12.0417 16.3147C12.0068 16.4099 11.9516 16.4824 11.8766 16.5324C11.8012 16.5822 11.7069 16.607 11.5941 16.607C11.4148 16.607 11.2825 16.5513 11.1965 16.4388C11.1288 16.3491 11.0949 16.236 11.0949 16.099C11.0949 15.9355 11.1394 15.8072 11.2287 15.7146C11.3178 15.622 11.4304 15.5758 11.5667 15.5758C11.72 15.5758 11.8409 15.6242 11.9292 15.7212C12.0178 15.8182 12.06 15.9666 12.0563 16.1667H11.3739C11.376 16.2442 11.3978 16.3043 11.4398 16.3476C11.4817 16.3908 11.5343 16.4119 11.5968 16.4119C11.6394 16.4119 11.6753 16.4009 11.7044 16.3786C11.7335 16.3563 11.7555 16.3203 11.7702 16.2709M11.7858 16.007C11.7837 15.9313 11.7636 15.874 11.725 15.8347C11.7071 15.8158 11.6852 15.8007 11.6608 15.7905C11.6363 15.7803 11.6099 15.7752 11.5833 15.7756C11.5554 15.7749 11.5278 15.7802 11.5023 15.791C11.4768 15.8017 11.4541 15.8178 11.4358 15.8379C11.3972 15.8791 11.3783 15.9357 11.3787 16.007H11.7858ZM12.5527 16.5849H12.2804V15.5979H12.5332V15.7383C12.5766 15.672 12.6155 15.6282 12.6502 15.6073C12.6854 15.586 12.7263 15.575 12.7679 15.5756C12.83 15.5756 12.8897 15.5922 12.9472 15.6248L12.8627 15.8525C12.817 15.824 12.7742 15.8096 12.7349 15.8096C12.6999 15.8087 12.6656 15.8195 12.6379 15.8401C12.6113 15.86 12.5905 15.8967 12.5756 15.949C12.5602 16.0018 12.5527 16.112 12.5527 16.28V16.5849ZM13.6458 16.5849V15.2227H14.6989V15.4532H13.9324V15.7551H14.6458V15.9847H13.9326V16.3553H14.7261V16.5849H13.6458ZM15.6588 16.5849V16.4372C15.6213 16.4899 15.5705 16.5326 15.5111 16.5614C15.4501 16.5919 15.3857 16.6072 15.3175 16.6072C15.2486 16.6072 15.1867 16.5925 15.1316 16.5634C15.0788 16.5365 15.0369 16.4934 15.0126 16.441C14.9879 16.3882 14.9756 16.3155 14.9756 16.2225V15.5979H15.248V16.0514C15.248 16.19 15.2529 16.2751 15.2629 16.3063C15.272 16.3363 15.2913 16.3625 15.3177 16.3808C15.3441 16.3989 15.378 16.4081 15.4183 16.4081C15.4652 16.4081 15.5068 16.3961 15.5435 16.3716C15.5782 16.3497 15.6047 16.3178 15.6192 16.2804C15.6327 16.2442 15.6393 16.1556 15.6393 16.0142V15.5979H15.9116V16.5847L15.6588 16.5849ZM16.4683 16.5849H16.196V15.5979H16.449V15.7383C16.4922 15.672 16.5313 15.6282 16.5657 15.6073C16.601 15.5859 16.642 15.5749 16.6837 15.5756C16.7456 15.5756 16.8055 15.5922 16.8628 15.6248L16.7785 15.8525C16.7328 15.824 16.6902 15.8096 16.6507 15.8096C16.6156 15.8087 16.5812 15.8195 16.5535 15.8401C16.5271 15.86 16.5063 15.8967 16.4912 15.949C16.4758 16.0018 16.4683 16.112 16.4683 16.28V16.5849ZM16.9309 16.0775C16.9309 15.9909 16.9534 15.907 16.998 15.8256C17.0425 15.7447 17.1054 15.6828 17.1873 15.64C17.2715 15.5967 17.3657 15.5746 17.4612 15.5758C17.6166 15.5758 17.7444 15.6242 17.8439 15.7212C17.9434 15.8182 17.9932 15.9407 17.9932 16.0887C17.9932 16.238 17.943 16.3619 17.8424 16.4599C17.7419 16.5579 17.6154 16.607 17.4631 16.607C17.3688 16.607 17.2787 16.5865 17.1931 16.5457C17.1098 16.5071 17.0414 16.4442 16.9978 16.3661C16.9534 16.2872 16.9309 16.1908 16.9309 16.0775ZM17.2101 16.0914C17.2101 16.1892 17.2342 16.2643 17.2828 16.3163C17.3314 16.3683 17.391 16.3944 17.4621 16.3944C17.5331 16.3944 17.5925 16.3685 17.6407 16.3163C17.6889 16.2643 17.713 16.1888 17.713 16.0894C17.713 15.9929 17.6889 15.9188 17.6409 15.8666C17.619 15.8417 17.5915 15.8218 17.5605 15.8083C17.5296 15.7948 17.4959 15.788 17.4619 15.7885C17.3912 15.7885 17.3314 15.8146 17.2828 15.8666C17.2342 15.9186 17.2101 15.9937 17.2101 16.0916M18.1893 15.9604H18.7242V16.2217H18.1893V15.9604ZM18.7738 16.5849V16.3368L19.5202 15.453H18.8584V15.2225H19.8983V15.4362L19.1201 16.3551H19.9282V16.5847L18.7738 16.5849ZM20.3249 15.8993L20.0777 15.8562C20.1056 15.761 20.1533 15.6903 20.2213 15.6445C20.289 15.5987 20.3897 15.5758 20.5235 15.5758C20.645 15.5758 20.7354 15.5896 20.7948 15.6171C20.8542 15.6445 20.8962 15.6798 20.9203 15.7222C20.9446 15.7646 20.9566 15.8427 20.9566 15.9556L20.9537 16.2605C20.9537 16.3476 20.9583 16.4113 20.967 16.4523C20.9755 16.4935 20.9919 16.5377 21.0158 16.5849H20.7466C20.7367 16.5596 20.728 16.5339 20.7204 16.5079L20.7105 16.4772C20.6675 16.5183 20.6169 16.5514 20.5613 16.5748C20.5077 16.5964 20.45 16.6075 20.3918 16.6072C20.2857 16.6072 20.2024 16.5798 20.1413 16.5244C20.1114 16.4978 20.0877 16.4654 20.0719 16.4293C20.0561 16.3933 20.0486 16.3544 20.0497 16.3153C20.0497 16.2595 20.0634 16.2101 20.0912 16.1663C20.1191 16.1227 20.1579 16.0891 20.208 16.066C20.258 16.0428 20.3303 16.0223 20.4246 16.0052C20.5522 15.9821 20.64 15.9608 20.6893 15.9409V15.915C20.6893 15.8648 20.6764 15.829 20.6504 15.8074C20.6245 15.7863 20.5761 15.7756 20.504 15.7756C20.4558 15.7756 20.4178 15.7847 20.3908 15.8031C20.3636 15.8212 20.3417 15.8535 20.3249 15.8991M20.6893 16.111C20.6544 16.1221 20.5991 16.1357 20.5235 16.151C20.4479 16.1663 20.3987 16.1817 20.3752 16.1964C20.3589 16.2062 20.3455 16.2198 20.3362 16.2359C20.3269 16.2521 20.322 16.2702 20.322 16.2886C20.3219 16.3063 20.3256 16.3239 20.3329 16.3402C20.3402 16.3565 20.351 16.3711 20.3646 16.3832C20.379 16.3965 20.396 16.4069 20.4147 16.4138C20.4333 16.4206 20.4533 16.4238 20.4732 16.423C20.5223 16.423 20.5692 16.4077 20.6137 16.3766C20.6448 16.3557 20.6677 16.3252 20.6785 16.2902C20.6857 16.2679 20.6893 16.2255 20.6893 16.1631V16.111ZM21.5106 15.2227V15.7236C21.5983 15.625 21.7032 15.5756 21.8255 15.5756C21.888 15.5756 21.9447 15.587 21.995 15.6095C22.0453 15.6314 22.0833 15.6601 22.1091 15.6947C22.1344 15.7294 22.1518 15.7678 22.1612 15.81C22.1705 15.8523 22.1753 15.9176 22.1753 16.0062V16.5849H21.9028V16.0636C21.9028 15.96 21.8976 15.8947 21.8874 15.8664C21.877 15.8389 21.859 15.8166 21.8328 15.8003C21.8066 15.7839 21.7738 15.7756 21.7343 15.7756C21.689 15.7756 21.6485 15.7861 21.613 15.8071C21.5766 15.8294 21.5491 15.863 21.5351 15.9022C21.5185 15.9449 21.5104 16.0078 21.5104 16.0904V16.5849H21.2383V15.2227H21.5106ZM22.4653 15.2227H22.7376V16.5849H22.4653V15.2227ZM23.7079 16.5849V16.4372C23.6704 16.4898 23.6197 16.5326 23.5604 16.5614C23.4994 16.5919 23.4348 16.6072 23.3668 16.6072C23.2979 16.6072 23.236 16.5925 23.1809 16.5634C23.128 16.5365 23.086 16.4934 23.0615 16.441C23.0372 16.3882 23.0249 16.3155 23.0249 16.2225V15.5979H23.297V16.0514C23.297 16.19 23.3022 16.2751 23.3122 16.3063C23.3222 16.3376 23.3404 16.3623 23.3668 16.3808C23.3934 16.3989 23.4271 16.4081 23.4676 16.4081C23.5141 16.4081 23.5559 16.3961 23.5928 16.3716C23.6274 16.3496 23.6539 16.3177 23.6684 16.2804C23.6819 16.2442 23.6886 16.1556 23.6886 16.0142V15.5979H23.9609V16.5847L23.7079 16.5849ZM25.1931 16.5849H24.9208V16.0811C24.9208 15.9747 24.915 15.9058 24.9034 15.8744C24.893 15.8449 24.873 15.8195 24.8464 15.8017C24.8187 15.7838 24.7858 15.7747 24.7523 15.7756C24.705 15.7756 24.6626 15.7879 24.625 15.8128C24.5876 15.8375 24.5623 15.8706 24.5481 15.9112C24.534 15.9518 24.5274 16.0277 24.5274 16.1378V16.5849H24.2551V15.5979H24.5081V15.7427C24.5978 15.6314 24.7108 15.5756 24.8471 15.5756C24.9073 15.5756 24.9621 15.586 25.012 15.6069C25.0614 15.6274 25.0992 15.6541 25.1248 15.6862C25.1503 15.7184 25.168 15.7549 25.1782 15.7957C25.1879 15.8365 25.1931 15.8953 25.1931 15.9716V16.5849ZM25.458 16.6499L25.7691 16.6863C25.7743 16.7208 25.7864 16.7447 25.8049 16.7576C25.8306 16.7763 25.8713 16.7855 25.927 16.7855C25.9983 16.7855 26.0514 16.7755 26.087 16.7546C26.1124 16.7394 26.1316 16.7161 26.1412 16.6889C26.1495 16.6674 26.1536 16.6272 26.1536 16.569V16.425C26.0724 16.5316 25.9698 16.5849 25.8458 16.5849C25.7075 16.5849 25.5978 16.529 25.517 16.4167C25.454 16.3282 25.4222 16.2179 25.4222 16.0859C25.4222 15.9206 25.4636 15.7943 25.5467 15.7067C25.6298 15.6194 25.7328 15.5756 25.8564 15.5756C25.9837 15.5756 26.0888 15.6294 26.1713 15.7366V15.5979H26.426V16.4834C26.426 16.5997 26.4162 16.6867 26.3963 16.7445C26.3759 16.8022 26.3479 16.8474 26.3117 16.8803C26.2756 16.9131 26.2272 16.9386 26.1669 16.9574C26.1065 16.9759 26.03 16.985 25.9376 16.985C25.7631 16.985 25.6395 16.9564 25.5666 16.8992C25.5319 16.8736 25.5038 16.8406 25.4848 16.8028C25.4658 16.7649 25.4562 16.7233 25.4569 16.6813L25.458 16.6499ZM25.7014 16.0709C25.7014 16.1757 25.7224 16.2522 25.7648 16.3012C25.7833 16.324 25.8071 16.3425 25.8342 16.3551C25.8614 16.3678 25.8912 16.3742 25.9214 16.374C25.9879 16.374 26.044 16.3489 26.0897 16.2992C26.1354 16.2494 26.1586 16.1755 26.1586 16.0775C26.1586 15.9753 26.1368 15.8997 26.0926 15.8501C26.0725 15.8263 26.0471 15.8073 26.0183 15.7944C25.9894 15.7815 25.9578 15.775 25.926 15.7756C25.8608 15.7756 25.807 15.8001 25.7648 15.8485C25.7226 15.8969 25.7014 15.9714 25.7014 16.0709M26.6135 16.3033L26.8869 16.2633C26.8983 16.3141 26.922 16.3527 26.9575 16.379C26.9931 16.4053 27.0427 16.4186 27.1069 16.4186C27.1773 16.4186 27.2303 16.4061 27.2658 16.3816C27.2772 16.3736 27.2864 16.3631 27.2927 16.3509C27.2989 16.3387 27.3019 16.3253 27.3015 16.3117L27.2822 16.2625C27.2687 16.2502 27.2382 16.2386 27.191 16.2281C26.9717 16.1817 26.8321 16.1394 26.7735 16.1006C26.7348 16.0769 26.7033 16.044 26.6818 16.0051C26.6604 15.9663 26.6498 15.9227 26.6511 15.8787C26.6511 15.7933 26.6865 15.7214 26.7569 15.6631C26.8275 15.6049 26.9366 15.5758 27.0845 15.5758C27.2253 15.5758 27.3302 15.5977 27.3985 15.642C27.4671 15.6858 27.5142 15.7507 27.54 15.8369L27.2832 15.8825C27.2743 15.8468 27.252 15.8155 27.2207 15.7943C27.19 15.7736 27.1459 15.7634 27.0892 15.7634C27.0178 15.7634 26.9665 15.7732 26.9353 15.7923L26.9044 15.8453L26.9314 15.8927C26.9561 15.91 27.0406 15.9345 27.1858 15.9662C27.3308 15.9976 27.4322 16.0365 27.4895 16.0821C27.5464 16.1287 27.5751 16.1934 27.5751 16.2763C27.5751 16.3669 27.5356 16.4445 27.4567 16.5095C27.378 16.5748 27.2612 16.607 27.1069 16.607C26.9667 16.607 26.8557 16.58 26.7741 16.5254C26.6925 16.4708 26.6387 16.3969 26.6135 16.3033M28.1102 16.5849L27.6956 15.5981H27.9814L28.175 16.1016L28.2315 16.2699C28.246 16.2271 28.2556 16.199 28.2595 16.1852C28.2685 16.1574 28.2782 16.1295 28.2886 16.1016L28.4843 15.5981H28.7645L28.3555 16.5849H28.1102ZM29.5408 16.2709L29.8123 16.3147C29.7776 16.4099 29.7221 16.4824 29.6471 16.5324C29.5719 16.5822 29.4776 16.607 29.3646 16.607C29.1856 16.607 29.053 16.5513 28.9671 16.4388C28.8993 16.3491 28.8657 16.236 28.8657 16.099C28.8657 15.9355 28.9099 15.8072 28.999 15.7146C29.0884 15.622 29.2012 15.5758 29.3374 15.5758C29.4905 15.5758 29.6114 15.6242 29.6999 15.7212C29.7884 15.8182 29.8308 15.9666 29.8268 16.1667H29.1447C29.1467 16.2442 29.1683 16.3043 29.2105 16.3476C29.2527 16.3908 29.305 16.4119 29.3675 16.4119C29.4101 16.4119 29.4459 16.4009 29.4749 16.3786C29.504 16.3563 29.5262 16.3203 29.541 16.2709M29.5566 16.007C29.5545 15.9313 29.5341 15.874 29.4953 15.8347C29.4775 15.8158 29.4557 15.8007 29.4313 15.7905C29.407 15.7803 29.3806 15.7752 29.354 15.7756C29.3262 15.7749 29.2986 15.7802 29.2731 15.7909C29.2477 15.8017 29.225 15.8178 29.2068 15.8379C29.1679 15.8791 29.1488 15.9357 29.1494 16.007H29.5566ZM30.3233 16.5849H30.0512V15.5979H30.304V15.7383C30.3472 15.672 30.3862 15.6282 30.4207 15.6073C30.4552 15.5862 30.4944 15.5756 30.5383 15.5756C30.6006 15.5756 30.6604 15.5922 30.7177 15.6248L30.6334 15.8525C30.5877 15.824 30.5449 15.8096 30.5057 15.8096C30.4706 15.8087 30.4362 15.8195 30.4084 15.8401C30.3821 15.86 30.3613 15.8967 30.3461 15.949C30.331 16.0018 30.3233 16.112 30.3233 16.28V16.5849ZM30.8391 16.5849V15.2227H31.1116V15.9457L31.4304 15.5981H31.7657L31.414 15.9586L31.7911 16.5849H31.4975L31.2387 16.1414L31.1118 16.2689V16.5849H30.8391ZM32.5627 16.2709L32.834 16.3147C32.7991 16.4099 32.7443 16.4824 32.6689 16.5324C32.5933 16.5822 32.4994 16.607 32.3864 16.607C32.2071 16.607 32.0748 16.5513 31.9888 16.4388C31.9211 16.3491 31.887 16.236 31.887 16.099C31.887 15.9355 31.9317 15.8072 32.021 15.7146C32.1101 15.622 32.2227 15.5758 32.3592 15.5758C32.5123 15.5758 32.6332 15.6242 32.7217 15.7212C32.8101 15.8182 32.8525 15.9666 32.8486 16.1667H32.1662C32.1683 16.2442 32.1903 16.3043 32.2323 16.3476C32.2521 16.3684 32.2764 16.385 32.3035 16.396C32.3306 16.4071 32.3598 16.4125 32.3893 16.4119C32.4319 16.4119 32.4676 16.4009 32.4967 16.3786C32.5258 16.3563 32.548 16.3203 32.5627 16.2709M32.5783 16.007C32.5762 15.9313 32.5559 15.874 32.5173 15.8347C32.4786 15.7955 32.431 15.7756 32.3756 15.7756C32.3477 15.7749 32.3201 15.7801 32.2946 15.7909C32.2691 15.8017 32.2464 15.8177 32.2281 15.8379C32.1897 15.8791 32.1706 15.9357 32.1712 16.007H32.5783ZM33.3558 15.2227V15.7236C33.4435 15.625 33.5484 15.5756 33.6707 15.5756C33.7333 15.5756 33.79 15.587 33.8402 15.6095C33.8907 15.6314 33.9287 15.6601 33.9545 15.6947C33.9798 15.7294 33.9973 15.7678 34.0064 15.81C34.0156 15.8523 34.0206 15.9176 34.0206 16.0062V16.5849H33.7482V16.0636C33.7482 15.96 33.743 15.8947 33.7329 15.8664C33.7225 15.8389 33.7044 15.8166 33.678 15.8003C33.6516 15.7839 33.6192 15.7756 33.5798 15.7756C33.5345 15.7756 33.494 15.7861 33.4584 15.8071C33.422 15.8294 33.3946 15.863 33.3806 15.9022C33.3639 15.9449 33.3558 16.0078 33.3558 16.0904V16.5849H33.0835V15.2227H33.3558ZM34.5714 16.5849H34.2991V15.5979H34.5519V15.7383C34.5953 15.672 34.6342 15.6282 34.6689 15.6073C34.7041 15.586 34.745 15.575 34.7866 15.5756C34.8483 15.5756 34.9082 15.5922 34.9659 15.6248L34.8814 15.8525C34.8357 15.824 34.7929 15.8096 34.7536 15.8096C34.7186 15.8087 34.6843 15.8195 34.6566 15.8401C34.63 15.86 34.6092 15.8967 34.5943 15.949C34.5789 16.0018 34.5714 16.112 34.5714 16.28V16.5849ZM35.001 16.3033L35.2742 16.2633C35.2858 16.3141 35.3095 16.3527 35.345 16.379C35.3805 16.4053 35.4302 16.4186 35.4946 16.4186C35.5648 16.4186 35.6177 16.4061 35.6533 16.3816C35.6647 16.3736 35.674 16.3631 35.6802 16.3509C35.6865 16.3387 35.6896 16.3253 35.6892 16.3117L35.6697 16.2625C35.6562 16.2502 35.6258 16.2386 35.5785 16.2281C35.3589 16.1817 35.2197 16.1394 35.161 16.1006C35.1223 16.0769 35.0907 16.044 35.0693 16.0051C35.0478 15.9663 35.0373 15.9227 35.0386 15.8787C35.0386 15.7933 35.0739 15.7214 35.1445 15.6631C35.2152 15.6049 35.324 15.5758 35.4721 15.5758C35.6127 15.5758 35.7172 15.5977 35.7858 15.642C35.8543 15.6858 35.9017 15.7507 35.9275 15.8369L35.6707 15.8825C35.6617 15.8468 35.6395 15.8155 35.6082 15.7943C35.5774 15.7736 35.5334 15.7634 35.4767 15.7634C35.4052 15.7634 35.3539 15.7732 35.3228 15.7923L35.2918 15.8453L35.3188 15.8927C35.3435 15.91 35.4281 15.9345 35.5733 15.9662C35.7183 15.9976 35.8196 16.0365 35.8772 16.0821C35.9339 16.1287 35.9623 16.1934 35.9623 16.2763C35.9623 16.3669 35.9229 16.4445 35.8439 16.5095C35.7654 16.5748 35.6487 16.607 35.4943 16.607C35.3539 16.607 35.2432 16.58 35.1616 16.5254C35.0799 16.4708 35.0261 16.3969 35.001 16.3033M36.4754 16.5849H36.2031V15.5979H36.4559V15.7383C36.4993 15.672 36.5382 15.6282 36.5728 15.6073C36.6081 15.586 36.649 15.575 36.6906 15.5756C36.7527 15.5756 36.8124 15.5922 36.8699 15.6248L36.7853 15.8525C36.7397 15.824 36.6971 15.8096 36.6576 15.8096C36.6226 15.8088 36.5883 15.8195 36.5606 15.8401C36.5344 15.86 36.5132 15.8967 36.4983 15.949C36.4829 16.0018 36.4754 16.112 36.4754 16.28V16.5849ZM37.2043 15.8993L36.9571 15.8562C36.9852 15.761 37.033 15.6903 37.1009 15.6445C37.1688 15.5987 37.2693 15.5758 37.4031 15.5758C37.5246 15.5758 37.6152 15.5896 37.6744 15.6171C37.7338 15.6447 37.776 15.6798 37.8001 15.7222C37.8242 15.7646 37.8362 15.8427 37.8362 15.9556L37.8333 16.2605C37.8333 16.3476 37.8377 16.4113 37.8466 16.4523C37.8553 16.4935 37.8715 16.5377 37.8954 16.5849H37.6262C37.6162 16.5596 37.6074 16.5339 37.5998 16.5079L37.5903 16.4772C37.5472 16.5183 37.4966 16.5514 37.4409 16.5748C37.3873 16.5964 37.3296 16.6075 37.2714 16.6072C37.1655 16.6072 37.082 16.5798 37.0209 16.5244C36.991 16.4978 36.9674 16.4654 36.9516 16.4293C36.9358 16.3933 36.9282 16.3544 36.9293 16.3153C36.9293 16.2595 36.9432 16.2101 36.9708 16.1663C36.9989 16.1227 37.0373 16.0891 37.0878 16.066C37.1376 16.0428 37.2099 16.0223 37.3044 16.0052C37.4316 15.9821 37.5197 15.9608 37.5687 15.9409V15.915C37.5687 15.8648 37.556 15.829 37.53 15.8074C37.5043 15.7863 37.4555 15.7756 37.3838 15.7756C37.3354 15.7756 37.2974 15.7847 37.2704 15.8031C37.2432 15.8212 37.2214 15.8535 37.2045 15.8991M37.5687 16.111C37.534 16.1221 37.4787 16.1357 37.4031 16.151C37.3275 16.1663 37.2783 16.1817 37.2548 16.1964C37.2195 16.2205 37.2016 16.2514 37.2016 16.2886C37.2015 16.3063 37.2052 16.3239 37.2125 16.3402C37.2198 16.3565 37.2306 16.3711 37.2442 16.3832C37.2586 16.3965 37.2756 16.4069 37.2942 16.4137C37.3128 16.4206 37.3327 16.4237 37.3526 16.423C37.4019 16.423 37.4488 16.4077 37.4935 16.3766C37.5245 16.3555 37.5473 16.3251 37.5583 16.2902C37.5654 16.2679 37.5687 16.2255 37.5687 16.1631V16.111ZM38.7961 16.5849V16.4372C38.7586 16.4899 38.7078 16.5326 38.6484 16.5614C38.5874 16.5919 38.523 16.6072 38.4548 16.6072C38.3859 16.6072 38.324 16.5925 38.2689 16.5634C38.2161 16.5365 38.1742 16.4934 38.1499 16.441C38.1252 16.3882 38.1127 16.3155 38.1127 16.2225V15.5979H38.385V16.0514C38.385 16.19 38.39 16.2751 38.4002 16.3063C38.4104 16.3376 38.4284 16.3623 38.4548 16.3808C38.4814 16.3989 38.5151 16.4081 38.5556 16.4081C38.6023 16.4081 38.6439 16.3961 38.6808 16.3716C38.7154 16.3496 38.7419 16.3177 38.7564 16.2804C38.7699 16.2442 38.7766 16.1556 38.7766 16.0142V15.5979H39.0489V16.5847L38.7961 16.5849ZM39.3246 15.5979H39.5755V15.7328C39.6656 15.6282 39.7722 15.5756 39.8964 15.5756C39.9623 15.5756 40.0194 15.5888 40.0678 15.6147C40.1166 15.641 40.1561 15.6804 40.1872 15.7328C40.2323 15.6802 40.2811 15.641 40.3337 15.6147C40.3858 15.5888 40.4417 15.5756 40.5011 15.5756C40.5767 15.5756 40.6405 15.5906 40.693 15.62C40.7456 15.6495 40.7844 15.6927 40.8104 15.7497C40.8291 15.7917 40.8385 15.86 40.8385 15.954V16.5849H40.5659V16.0211C40.5659 15.923 40.5566 15.8598 40.5379 15.8313C40.5129 15.7943 40.4741 15.7756 40.4216 15.7756C40.383 15.7758 40.3454 15.7875 40.3142 15.8092C40.2807 15.8313 40.2562 15.864 40.2415 15.907C40.2267 15.95 40.2192 16.018 40.2192 16.111V16.5849H39.9467V16.044C39.9467 15.9479 39.9421 15.8859 39.9322 15.858C39.9247 15.8331 39.9089 15.8112 39.8873 15.7957C39.8624 15.781 39.8334 15.774 39.8042 15.7754C39.7639 15.7749 39.7243 15.7863 39.691 15.808C39.6571 15.8296 39.6332 15.861 39.6189 15.9018C39.6046 15.9427 39.5971 16.0104 39.5971 16.1052V16.5847H39.3246V15.5979ZM0.95387 13.5347L1.36329 13.4965C1.3876 13.6281 1.43787 13.7247 1.51306 13.7866C1.58847 13.8484 1.69025 13.8792 1.818 13.8792C1.95344 13.8792 2.05564 13.8518 2.12439 13.797C2.19294 13.7418 2.22742 13.6775 2.22742 13.6038C2.22846 13.56 2.21306 13.5172 2.18401 13.4833C2.15493 13.4505 2.10466 13.4216 2.03279 13.3969C1.98335 13.3804 1.87118 13.3513 1.69565 13.3097C1.47027 13.2559 1.31199 13.1902 1.221 13.1121C1.09304 13.0024 1.02907 12.8681 1.02907 12.71C1.02907 12.6084 1.05919 12.5131 1.11943 12.4248C1.17946 12.3358 1.26629 12.2687 1.3797 12.2221C1.4927 12.1759 1.62939 12.1526 1.78975 12.1526C2.05107 12.1526 2.24799 12.2078 2.3801 12.3179C2.51221 12.4274 2.5818 12.5744 2.58824 12.758L2.1676 12.7755C2.14953 12.6728 2.1111 12.5991 2.0519 12.5539C1.9927 12.5091 1.90358 12.4866 1.78518 12.4866C1.66325 12.4866 1.56728 12.5105 1.49831 12.5589C1.47713 12.5724 1.45987 12.5909 1.44814 12.6126C1.43641 12.6343 1.43059 12.6585 1.43122 12.6829C1.43122 12.7299 1.45199 12.7706 1.49395 12.8042C1.54692 12.847 1.67592 12.8912 1.88052 12.9376C2.08513 12.9841 2.23656 13.0318 2.33461 13.0814C2.43265 13.131 2.5093 13.1987 2.56497 13.2844C2.62023 13.3704 2.64806 13.4766 2.64806 13.6028C2.64809 13.717 2.61352 13.8287 2.54856 13.9245C2.48209 14.024 2.38841 14.0983 2.2671 14.1471C2.14579 14.1957 1.99477 14.2202 1.81385 14.2202C1.55024 14.2202 1.34792 14.1616 1.20667 14.0449C1.06542 13.9282 0.981289 13.7582 0.95387 13.5345M3.08657 12.1868H3.48581V12.5411H3.08657V12.1868ZM3.08657 12.7373H3.48581V14.1845H3.08657V12.7373ZM5.35553 14.1845H4.95629V13.4459C4.95629 13.2896 4.94777 13.1886 4.93053 13.1428C4.9137 13.097 4.88587 13.0611 4.84744 13.0356C4.80901 13.0101 4.7629 12.9978 4.70889 12.9978C4.63972 12.9978 4.57761 13.0157 4.52256 13.0522C4.46751 13.0886 4.42992 13.1366 4.40977 13.1965C4.3892 13.2565 4.37902 13.3672 4.37902 13.5291V14.1845H3.97978V12.7373H4.35077V12.9498C4.48247 12.7863 4.64844 12.7046 4.84827 12.7046C4.93635 12.7046 5.01673 12.7198 5.08985 12.7502C5.16256 12.7807 5.21802 12.8196 5.25541 12.8668C5.2928 12.9139 5.31876 12.9677 5.33351 13.0275C5.34847 13.0874 5.35574 13.1734 5.35574 13.2852L5.35553 14.1845ZM5.81107 14.2799L6.26744 14.3333C6.27492 14.3841 6.29236 14.419 6.31999 14.4381C6.35801 14.4654 6.41762 14.4789 6.49926 14.4789C6.60333 14.4789 6.68143 14.464 6.73378 14.4341C6.77095 14.4114 6.79895 14.3773 6.81313 14.3373C6.82538 14.3054 6.83162 14.2469 6.83162 14.1614V13.9501C6.71238 14.1065 6.56157 14.1845 6.37982 14.1845C6.17708 14.1845 6.0163 14.1023 5.8979 13.938C5.80484 13.8079 5.75852 13.6464 5.75852 13.4527C5.75852 13.2103 5.81938 13.0249 5.94131 12.897C5.99784 12.8352 6.06775 12.786 6.14618 12.7527C6.22461 12.7195 6.30966 12.7031 6.3954 12.7046C6.58214 12.7046 6.73606 12.7831 6.85737 12.9404V12.7373H7.23128V14.036C7.23128 14.2069 7.21632 14.3345 7.18703 14.419C7.15774 14.5036 7.1164 14.5697 7.06343 14.6181C7.01026 14.6659 6.93942 14.7037 6.85073 14.731C6.76224 14.7581 6.65006 14.7719 6.51484 14.7719C6.25871 14.7719 6.07737 14.7298 5.97039 14.646C5.86342 14.5617 5.80982 14.4552 5.80982 14.3263L5.81107 14.2799ZM6.16794 13.4312C6.16794 13.5845 6.19889 13.697 6.26121 13.7683C6.3229 13.8396 6.39955 13.8753 6.49074 13.8753C6.58796 13.8753 6.67063 13.8386 6.73793 13.7657C6.80503 13.6924 6.83889 13.5841 6.83889 13.4405C6.83889 13.2907 6.80669 13.1794 6.74229 13.1067C6.71283 13.0719 6.67548 13.044 6.63308 13.0251C6.59068 13.0062 6.54435 12.9968 6.4976 12.9976C6.40204 12.9976 6.32311 13.0334 6.26121 13.1045C6.19889 13.1758 6.16773 13.2848 6.16773 13.4312M7.71361 12.1868H8.11285V14.1845H7.71361V12.1868ZM9.48383 13.7239L9.88183 13.788C9.83073 13.9278 9.74972 14.0344 9.63941 14.1075C9.52911 14.1806 9.39098 14.2174 9.22521 14.2174C8.96265 14.2174 8.76843 14.135 8.64234 13.9707C8.54284 13.839 8.4932 13.6727 8.4932 13.4718C8.4932 13.232 8.55842 13.0442 8.68929 12.9082C8.82015 12.7726 8.98529 12.7046 9.18533 12.7046C9.40967 12.7046 9.58728 12.7757 9.7171 12.9177C9.84693 13.0597 9.90883 13.2778 9.90322 13.5714H8.90241C8.90532 13.6849 8.93752 13.7733 8.999 13.8364C9.0607 13.8996 9.13755 13.931 9.22937 13.931C9.29189 13.931 9.34465 13.9147 9.38724 13.882C9.42982 13.8494 9.46202 13.7966 9.48383 13.7239M9.50668 13.3368C9.50377 13.226 9.47407 13.1416 9.41715 13.0842C9.39093 13.0565 9.35884 13.0344 9.32302 13.0195C9.28721 13.0045 9.24848 12.9971 9.20943 12.9976C9.12239 12.9976 9.05031 13.0281 8.99339 13.0888C8.93648 13.1495 8.90864 13.2326 8.90947 13.3368H9.50668ZM11.215 14.1845V12.1868H12.7598V12.5246H11.6356V12.9677H12.6817V13.3043H11.6356V13.848H12.7999V14.1845H11.215ZM14.2345 14.1845V13.9681C14.1794 14.0451 14.1073 14.1059 14.0178 14.1505C13.9283 14.1951 13.8336 14.2172 13.7343 14.2172C13.6325 14.2172 13.5417 14.1961 13.4613 14.1533C13.3809 14.1105 13.3224 14.0507 13.2866 13.9732C13.2505 13.896 13.2326 13.7892 13.2326 13.653V12.7373H13.6319V13.4025C13.6319 13.6056 13.6391 13.7305 13.6539 13.7765C13.6684 13.8223 13.6954 13.8587 13.7343 13.8856C13.7731 13.9123 13.8226 13.9256 13.8818 13.9256C13.9503 13.9256 14.0116 13.9077 14.0656 13.8719C14.1196 13.836 14.1564 13.7912 14.1763 13.7382C14.196 13.6849 14.2062 13.555 14.2062 13.3479V12.7373H14.6057V14.1845H14.2345ZM15.4889 14.1845H15.0895V12.7373H15.4605V12.943C15.5238 12.8458 15.5809 12.7817 15.6316 12.7508C15.6823 12.72 15.7398 12.7046 15.8042 12.7046C15.8956 12.7046 15.9829 12.7287 16.0674 12.7767L15.9438 13.1107C15.8763 13.0689 15.814 13.0482 15.756 13.0482C15.7002 13.0482 15.6526 13.0629 15.614 13.0924C15.5751 13.1219 15.5444 13.1754 15.5224 13.2525C15.4999 13.3298 15.4889 13.4915 15.4889 13.7374V14.1845ZM16.2342 13.4405C16.2342 13.3133 16.267 13.1904 16.3325 13.0713C16.3942 12.9556 16.491 12.8607 16.6102 12.7988C16.7335 12.7352 16.8717 12.7028 17.0117 12.7046C17.2402 12.7046 17.4274 12.7759 17.5734 12.9179C17.719 13.0601 17.7924 13.2396 17.7924 13.457C17.7924 13.6757 17.7184 13.8573 17.5709 14.0011C17.4239 14.1453 17.2386 14.2172 17.0146 14.2172C16.8763 14.2172 16.7444 14.1873 16.6189 14.1274C16.4968 14.0706 16.3966 13.9784 16.3325 13.8637C16.267 13.7476 16.2344 13.6068 16.2344 13.4405M16.6436 13.4608C16.6436 13.6046 16.679 13.7143 16.7502 13.7908C16.8215 13.8669 16.9089 13.9053 17.0134 13.9053C17.1173 13.9053 17.2049 13.8669 17.2755 13.7908C17.346 13.7143 17.3815 13.6036 17.3815 13.4582C17.3815 13.3164 17.346 13.2075 17.2755 13.131C17.2434 13.0946 17.2032 13.0654 17.1578 13.0457C17.1125 13.0259 17.0632 13.016 17.0134 13.0167C16.9089 13.0167 16.8215 13.055 16.7502 13.131C16.6792 13.2075 16.6439 13.3172 16.6439 13.4608M19.091 14.1845V12.1868H19.7661C20.0223 12.1868 20.1889 12.1968 20.2666 12.2167C20.386 12.2468 20.4859 12.3121 20.5665 12.4123C20.6471 12.5125 20.6872 12.6423 20.6872 12.8014C20.6872 12.9239 20.6641 13.0271 20.6176 13.1107C20.5711 13.1944 20.5123 13.2601 20.4408 13.3079C20.3753 13.3529 20.3011 13.385 20.2225 13.4025C20.1222 13.4214 19.9766 13.431 19.7863 13.431H19.5117V14.1845H19.091ZM19.5117 12.5246V13.0918H19.742C19.908 13.0918 20.0189 13.0812 20.0746 13.0603C20.1303 13.0394 20.1743 13.0066 20.2061 12.9623C20.2379 12.9177 20.2539 12.866 20.2539 12.807C20.2539 12.7343 20.2314 12.6742 20.1872 12.627C20.1429 12.5798 20.0831 12.5485 20.0177 12.5383C19.9678 12.5294 19.8667 12.5246 19.715 12.5246H19.5117ZM21.4157 13.1788L21.0534 13.1161C21.0939 12.9763 21.1643 12.8727 21.2638 12.8054C21.3633 12.7381 21.511 12.7046 21.7073 12.7046C21.8851 12.7046 22.0179 12.7248 22.1051 12.7654C22.1924 12.8058 22.2536 12.857 22.2892 12.9191C22.3247 12.9813 22.3423 13.0958 22.3423 13.2621L22.3382 13.7088C22.3382 13.8362 22.3446 13.9298 22.3575 13.9904C22.37 14.0507 22.3941 14.1156 22.4294 14.1845H22.0341C22.0195 14.1475 22.0066 14.1098 21.9954 14.0716C21.9914 14.0564 21.9867 14.0413 21.9815 14.0264C21.913 14.0901 21.8403 14.1379 21.7626 14.1698C21.6849 14.2017 21.602 14.2172 21.5137 14.2172C21.3583 14.2172 21.236 14.1768 21.1465 14.0959C21.0569 14.0151 21.0121 13.9129 21.0121 13.7892C21.0121 13.7076 21.0324 13.6347 21.0731 13.5708C21.1136 13.5066 21.1708 13.4576 21.2445 13.4234C21.3178 13.3895 21.4238 13.3597 21.5621 13.3342C21.7489 13.3005 21.8781 13.2692 21.9499 13.2402V13.2019C21.9499 13.1282 21.9312 13.0761 21.8932 13.0446C21.8552 13.0133 21.7838 12.9976 21.6787 12.9976C21.6076 12.9976 21.5519 13.0111 21.5123 13.038C21.4726 13.0645 21.4404 13.1117 21.4157 13.1788M21.9499 13.4895C21.8988 13.506 21.818 13.5254 21.7073 13.5483C21.5964 13.571 21.5237 13.5931 21.4896 13.615C21.4375 13.6504 21.4115 13.6954 21.4115 13.75C21.4115 13.8036 21.4323 13.8498 21.474 13.8888C21.5156 13.928 21.5686 13.9474 21.6332 13.9474C21.7052 13.9474 21.7738 13.9247 21.8392 13.8794C21.8874 13.8448 21.9194 13.8026 21.9348 13.7528C21.9447 13.7199 21.9499 13.6576 21.9499 13.566V13.4895ZM22.6344 12.7373H23.0594L23.4208 13.7649L23.7729 12.7373H24.1867L23.6535 14.1302L23.5583 14.3821C23.523 14.4667 23.4898 14.5313 23.4582 14.5759C23.4264 14.6201 23.3901 14.6563 23.3488 14.684C23.3074 14.7117 23.2567 14.7334 23.1965 14.7488C23.1363 14.7641 23.0685 14.7721 22.9925 14.7721C22.9167 14.7721 22.841 14.7643 22.7669 14.7488L22.731 14.449C22.7867 14.4601 22.8434 14.466 22.9003 14.4667C22.9929 14.4667 23.0619 14.4407 23.1061 14.3883C23.1508 14.3361 23.1851 14.2696 23.2087 14.1887L22.6344 12.7373ZM24.5 12.7373H24.868V12.9351C24.9997 12.7813 25.1568 12.7046 25.3385 12.7046C25.4351 12.7046 25.5193 12.7238 25.5903 12.7618C25.6609 12.8 25.7195 12.8578 25.7648 12.9351C25.8313 12.8578 25.9029 12.8 25.9798 12.7618C26.0557 12.724 26.14 12.7044 26.2255 12.7048C26.3364 12.7048 26.4301 12.7261 26.5068 12.7692C26.5836 12.8126 26.641 12.8757 26.679 12.9594C26.7062 13.0213 26.7203 13.1213 26.7203 13.2593V14.1847H26.3207V13.3575C26.3207 13.2139 26.3072 13.1213 26.2795 13.0794C26.2425 13.0249 26.1856 12.9978 26.1092 12.9978C26.0531 12.9978 26.0006 13.0139 25.9513 13.0468C25.9019 13.0794 25.8666 13.1274 25.8448 13.1904C25.8225 13.2537 25.8119 13.3533 25.8119 13.4897V14.1847H25.4123V13.3913C25.4123 13.2505 25.4054 13.1597 25.3911 13.1189C25.377 13.0779 25.3549 13.0472 25.325 13.0273C25.2951 13.0074 25.2548 12.9974 25.2035 12.9974C25.1418 12.9974 25.0866 13.0133 25.0373 13.0452C24.9869 13.0783 24.9496 13.1267 24.9314 13.1826C24.91 13.2428 24.8992 13.3423 24.8992 13.4813V14.1843H24.5V12.7373ZM28.0797 13.7239L28.4777 13.788C28.4266 13.9278 28.3455 14.0344 28.2352 14.1075C28.1249 14.1806 27.9866 14.2174 27.821 14.2174C27.5583 14.2174 27.3643 14.135 27.2382 13.9707C27.1385 13.839 27.0886 13.6727 27.0886 13.4718C27.0886 13.232 27.1542 13.0442 27.2851 12.9082C27.416 12.7726 27.5811 12.7046 27.7809 12.7046C28.0057 12.7046 28.1829 12.7757 28.3127 12.9177C28.4423 13.0601 28.5047 13.2778 28.499 13.5714H27.4982C27.5011 13.6849 27.5333 13.7733 27.5948 13.8364C27.624 13.867 27.6596 13.8913 27.6993 13.9076C27.7391 13.9239 27.782 13.9319 27.8252 13.931C27.8877 13.931 27.9405 13.9147 27.9831 13.882C28.0256 13.8494 28.0578 13.7966 28.0797 13.7239M28.1025 13.3368C28.0996 13.226 28.0697 13.1416 28.013 13.0842C27.9868 13.0565 27.9547 13.0344 27.9189 13.0195C27.883 13.0045 27.8443 12.9971 27.8053 12.9976C27.718 12.9976 27.6459 13.0281 27.5892 13.0888C27.5325 13.1495 27.5041 13.2326 27.5053 13.3368H28.1025ZM30.2848 14.1845H29.8854V13.4459C29.8854 13.2896 29.8771 13.1886 29.8598 13.1428C29.8426 13.097 29.8152 13.0611 29.7768 13.0356C29.7383 13.0101 29.692 12.9978 29.638 12.9978C29.569 12.9978 29.5069 13.0157 29.4519 13.0522C29.3968 13.0886 29.3592 13.1366 29.3389 13.1965C29.3185 13.2565 29.3083 13.3672 29.3083 13.5291V14.1845H28.9089V12.7373H29.2799V12.9498C29.4116 12.7863 29.5776 12.7046 29.7774 12.7046C29.8655 12.7046 29.9461 12.7198 30.019 12.7502C30.0919 12.7807 30.1469 12.8196 30.1845 12.8668C30.2219 12.9139 30.2483 12.9677 30.2628 13.0275C30.2776 13.0874 30.2848 13.1734 30.2848 13.2852V14.1845ZM31.4695 12.7373V13.0426H31.1965V13.6257C31.1965 13.7438 31.1992 13.8129 31.2044 13.8322L31.24 13.8808C31.2598 13.8939 31.2834 13.9006 31.3075 13.8998C31.3442 13.8998 31.3978 13.8874 31.4678 13.8631L31.5019 14.1601C31.4019 14.1995 31.2945 14.219 31.1864 14.2172C31.1145 14.2172 31.0497 14.2057 30.9919 14.1828C30.934 14.1593 30.8918 14.1294 30.8648 14.0925C30.8378 14.0557 30.8187 14.0059 30.8083 13.9434C30.8 13.899 30.7958 13.8089 30.7958 13.6735V13.0428H30.6124V12.7375H30.7956V12.4499L31.1965 12.2265V12.7375L31.4695 12.7373ZM31.6932 13.7717L32.0941 13.7132C32.1112 13.7876 32.1456 13.844 32.198 13.8826C32.2503 13.9213 32.323 13.9406 32.4167 13.9406C32.52 13.9406 32.5976 13.9227 32.65 13.8862C32.6668 13.8746 32.6804 13.8592 32.6896 13.8413C32.6987 13.8235 32.7032 13.8037 32.7025 13.7839C32.703 13.7706 32.7007 13.7574 32.6958 13.745C32.691 13.7326 32.6836 13.7212 32.6741 13.7116C32.6544 13.6936 32.6095 13.6767 32.5405 13.6614C32.2181 13.5931 32.0139 13.5309 31.9277 13.4746C31.8083 13.3965 31.7487 13.288 31.7487 13.1488C31.7487 13.0235 31.8004 12.9179 31.9036 12.8327C32.0067 12.7473 32.167 12.7046 32.3843 12.7046C32.5908 12.7046 32.7441 12.7369 32.8446 12.8012C32.9448 12.866 33.0141 12.9613 33.0521 13.0876L32.6753 13.1543C32.6621 13.102 32.6296 13.056 32.5837 13.0249C32.5389 12.995 32.4747 12.9801 32.391 12.9801C32.2859 12.9801 32.2109 12.994 32.1652 13.0221C32.1512 13.0302 32.1397 13.0416 32.1317 13.0552C32.1238 13.0688 32.1196 13.0842 32.1197 13.0998C32.1197 13.1272 32.133 13.1503 32.1598 13.1693C32.1955 13.1946 32.3197 13.2308 32.5324 13.277C32.7451 13.3232 32.8939 13.38 32.9784 13.4473C33.0615 13.5156 33.1032 13.6104 33.1032 13.7321C33.1032 13.8647 33.0455 13.9788 32.93 14.0742C32.8143 14.1694 32.6431 14.2172 32.4167 14.2172C32.2111 14.2172 32.0484 14.1772 31.9286 14.0973C31.8087 14.0175 31.7302 13.9087 31.6932 13.7717M36.2102 14.1845H35.7523L35.5706 13.7307H34.7376L34.5656 14.1847H34.1194L34.9308 12.1868H35.3759L36.2102 14.1845ZM35.4356 13.3941L35.1485 12.6529L34.867 13.3941H35.4356ZM36.9004 14.1845H36.501V12.7373H36.872V12.943C36.9353 12.8458 36.9924 12.7817 37.0431 12.7508C37.0938 12.72 37.1512 12.7046 37.2155 12.7046C37.3069 12.7046 37.3942 12.7287 37.4787 12.7767L37.3551 13.1107C37.2876 13.0689 37.2253 13.0482 37.1674 13.0482C37.1117 13.0482 37.0641 13.0629 37.0255 13.0924C36.9864 13.1219 36.9559 13.1754 36.9335 13.2525C36.9114 13.3298 36.9002 13.4915 36.9002 13.7374L36.9004 14.1845ZM38.6121 13.7239L39.0103 13.788C38.9592 13.9278 38.8784 14.0344 38.7681 14.1075C38.6574 14.1808 38.5192 14.2174 38.3537 14.2174C38.0911 14.2174 37.8969 14.135 37.7708 13.9707C37.6711 13.839 37.6212 13.6727 37.6212 13.4718C37.6212 13.232 37.6869 13.0442 37.8177 12.9082C37.9484 12.7726 38.1139 12.7046 38.3136 12.7046C38.5383 12.7046 38.7155 12.7757 38.8453 12.9177C38.9752 13.0597 39.0373 13.2778 39.0317 13.5714H38.0309C38.0338 13.6849 38.066 13.7733 38.1275 13.8364C38.1889 13.8996 38.2658 13.931 38.3578 13.931C38.4203 13.931 38.4731 13.9147 38.5157 13.882C38.5583 13.8494 38.5905 13.7966 38.6123 13.7239M38.6351 13.3368C38.6322 13.226 38.6023 13.1416 38.5456 13.0842C38.5194 13.0565 38.4873 13.0344 38.4515 13.0195C38.4157 13.0045 38.3769 12.9971 38.3379 12.9976C38.2506 12.9976 38.1786 13.0281 38.1218 13.0888C38.0651 13.1495 38.0371 13.2326 38.0379 13.3368H38.6351ZM39.7427 13.1788L39.3804 13.1161C39.4209 12.9763 39.4914 12.8727 39.5909 12.8054C39.6904 12.7381 39.8381 12.7046 40.0344 12.7046C40.2122 12.7046 40.3449 12.7248 40.4324 12.7654C40.5194 12.8058 40.5807 12.857 40.6162 12.9191C40.6517 12.9813 40.6694 13.0958 40.6694 13.2621L40.6652 13.7088C40.6652 13.8362 40.6719 13.9298 40.6845 13.9904C40.6972 14.0507 40.7211 14.1156 40.7564 14.1845H40.3613C40.3467 14.1475 40.3339 14.1098 40.3229 14.0716C40.3186 14.0564 40.3138 14.0413 40.3085 14.0264C40.2402 14.0901 40.1673 14.1379 40.0896 14.1698C40.0119 14.2017 39.9292 14.2172 39.841 14.2172C39.6854 14.2172 39.563 14.1768 39.4735 14.0959C39.384 14.0151 39.3389 13.9129 39.3389 13.7892C39.3389 13.7076 39.3597 13.6347 39.4002 13.5708C39.4407 13.5068 39.4978 13.4576 39.5715 13.4234C39.6449 13.3895 39.7508 13.3597 39.8894 13.3342C40.0759 13.3005 40.2051 13.2692 40.2772 13.2402V13.2019C40.2772 13.1282 40.2585 13.0761 40.2203 13.0446C40.1823 13.0133 40.111 12.9976 40.0057 12.9976C39.9351 12.9976 39.8794 13.0111 39.8395 13.038C39.7996 13.0645 39.7674 13.1117 39.7427 13.1788M40.2772 13.4895C40.2259 13.506 40.1453 13.5254 40.0344 13.5483C39.9234 13.571 39.8507 13.5931 39.8167 13.615C39.7647 13.6504 39.7386 13.6954 39.7386 13.75C39.7386 13.8036 39.7593 13.8498 39.8011 13.8888C39.8426 13.928 39.8956 13.9474 39.9604 13.9474C40.0323 13.9474 40.101 13.9247 40.1663 13.8794C40.2119 13.8486 40.2455 13.804 40.2618 13.7528C40.272 13.7199 40.2772 13.6576 40.2772 13.566V13.4895ZM9.80871 4.33542H7.07756C7.07756 3.90585 7.0248 3.61747 6.9199 3.4707C6.75746 3.25362 6.30919 3.14488 5.57489 3.14488C4.86198 3.14488 4.38941 3.20722 4.15884 3.33248C3.92826 3.45815 3.81277 3.73139 3.81277 4.1518C3.81277 4.53238 3.91497 4.78332 4.11978 4.90341C4.26664 4.98864 4.46045 5.03883 4.70203 5.05377L5.25271 5.09101C6.4332 5.16589 7.1702 5.21906 7.46413 5.24914C8.39764 5.33935 9.07441 5.57714 9.49422 5.9629C9.8245 6.26382 10.0216 6.65715 10.0844 7.14249C10.1213 7.43325 10.1394 7.76185 10.1394 8.1271C10.1394 8.96912 10.0557 9.5855 9.88806 9.97604C9.58416 10.693 8.90096 11.1459 7.83824 11.3361C7.39288 11.4163 6.71176 11.4565 5.79549 11.4565C4.26602 11.4565 3.2004 11.3693 2.59862 11.1939C1.86017 10.979 1.37306 10.5436 1.1375 9.88821C1.00622 9.52317 0.941406 8.91535 0.941406 8.06437H3.67214L3.67235 8.28204C3.67235 8.73611 3.80841 9.02787 4.08032 9.15792C4.26851 9.24754 4.49576 9.29474 4.7629 9.30031H5.76703C6.27928 9.30031 6.60624 9.27522 6.74728 9.22463C6.99842 9.13004 7.16314 8.97768 7.24187 8.76698C7.28362 8.63693 7.30439 8.46925 7.30439 8.26352C7.30439 7.80328 7.12928 7.52327 6.77927 7.4227C6.64799 7.38306 6.03936 7.3275 4.95255 7.2576C4.07969 7.19785 3.47335 7.1403 3.13393 7.08453C2.23989 6.92421 1.64393 6.59442 1.34667 6.09374C1.08515 5.66855 0.954701 5.02509 0.954701 4.16395C0.954701 3.50854 1.02533 2.98277 1.16658 2.58745C1.30783 2.19193 1.5355 1.89161 1.84957 1.68628C2.3103 1.37082 2.8992 1.18601 3.61605 1.13064C4.21305 1.08066 4.87465 1.05517 5.60272 1.05517C6.74873 1.05517 7.56571 1.1185 8.05261 1.24376C9.241 1.54986 9.83509 2.40722 9.83509 3.81623C9.83509 3.93174 9.82616 4.1046 9.8085 4.33562M21.8172 11.4565V1H27.2862C28.0362 1 28.6085 1.05855 29.0019 1.17605C29.9014 1.4461 30.5048 1.99955 30.8139 2.8354C30.9735 3.27433 31.0534 3.93512 31.0534 4.81737C31.0534 5.87806 30.9649 6.64002 30.7896 7.10425C30.4388 8.02195 29.7169 8.5507 28.6266 8.68752C28.4984 8.70823 27.9529 8.72635 26.9897 8.74129L26.5026 8.75682H24.7525V11.4565H21.8172ZM24.7528 6.33133H26.5828C27.163 6.31142 27.5159 6.2686 27.6428 6.20169C27.8163 6.11027 27.9328 5.92705 27.9908 5.65242C28.0279 5.4698 28.0464 5.19795 28.0464 4.83689C28.0464 4.39457 28.0094 4.06676 27.9355 3.85267C27.83 3.55255 27.5772 3.37012 27.1767 3.30361C27.0973 3.29365 26.9077 3.28827 26.6073 3.28827H24.753L24.7528 6.33133ZM37.3192 9.64943H33.3945L32.8671 11.4565H29.8301L33.1074 1H37.5352L40.8524 11.4565H37.8792L37.3192 9.64943ZM36.7363 7.61249L35.3608 3.07976L34.0262 7.61249H36.7363Z" fill="#10298E"/>
<path d="M17.7576 2.47229C18.9682 2.47229 20.0488 3.00702 20.759 3.84446L21.3917 2.54379C20.4021 1.6468 19.0555 1.09375 17.5698 1.09375C15.2568 1.09375 13.2783 2.43326 12.4665 4.3292H11.2326L10.5039 5.82663H12.0911C12.0785 5.96618 12.0719 6.10617 12.0714 6.24625C12.0714 6.41772 12.0807 6.58759 12.0984 6.75508H11.3007L10.5725 8.25291H12.5043C13.3393 10.1009 15.2932 11.3981 17.5698 11.3981C18.7173 11.3981 19.7821 11.0685 20.6635 10.5053V8.66974C19.9535 9.44465 18.9153 9.93437 17.7576 9.93437C16.4045 9.93437 15.2142 9.26541 14.5213 8.25291H18.5663L19.2948 6.75508H13.9264C13.8789 6.44762 13.8712 6.1357 13.9035 5.82643H19.7466L20.4748 4.3292H14.4083C15.0792 3.21911 16.3276 2.47209 17.7576 2.47209" fill="#FFBE00"/>
<path d="M17.7686 2.51659C18.9223 2.51659 20.0029 3.01089 20.7337 3.87242L20.7808 3.92819L20.8128 3.86306L21.4454 2.56239L21.4595 2.53272L21.4352 2.51041C20.3951 1.56782 19.0262 1.04883 17.5809 1.04883C16.4523 1.04883 15.3665 1.36488 14.4401 1.96314C13.5359 2.54726 12.8421 3.35941 12.4343 4.31176L12.4775 4.28388H11.2135L11.2011 4.30976L10.4726 5.8074L10.4414 5.87133H12.1022L12.0554 5.82253C12.0428 5.96335 12.0362 6.1046 12.0357 6.24593C12.0357 6.41402 12.0448 6.58708 12.0627 6.75935L12.1094 6.70996H11.2823L11.2698 6.73585L10.5409 8.23348L10.51 8.29741H12.5153L12.4723 8.27033C13.3431 10.1973 15.3485 11.4426 17.5809 11.4426C18.7001 11.4426 19.7786 11.1318 20.7005 10.5427L20.721 10.5295V8.55014L20.6392 8.63976C20.2809 9.03168 19.8395 9.34581 19.3445 9.56121C18.8495 9.7766 18.3122 9.8883 17.7686 9.88885C16.4783 9.88885 15.283 9.26749 14.5714 8.22791L14.5323 8.29761H18.6074L18.6199 8.27172L19.3484 6.77369L19.3795 6.70996H13.9372L13.9837 6.7484C13.9368 6.44463 13.9292 6.13646 13.9611 5.8309L13.9143 5.87133H19.7875L19.8 5.84544L20.5283 4.3478L20.5596 4.28388H14.4193L14.4598 4.35139C15.1439 3.2196 16.412 2.51659 17.7689 2.51659M14.4193 4.37369H20.4857L20.4431 4.30976L19.715 5.8074L19.7574 5.78151H13.872L13.8674 5.82214C13.8354 6.13502 13.8432 6.45047 13.8907 6.76154L13.8969 6.79998H19.3058L19.2634 6.73585L18.5351 8.23348L18.5773 8.20759H14.4453L14.4931 8.2769C15.2222 9.34277 16.4467 9.97827 17.7689 9.97827C18.8926 9.97827 19.9645 9.51225 20.7098 8.6991L20.6275 8.66943V10.505L20.6483 10.468C19.7418 11.0469 18.6812 11.3528 17.5809 11.3528C15.3856 11.3528 13.4143 10.1286 12.5585 8.23448L12.5461 8.20759H10.5835L10.6263 8.27192L11.3544 6.77369L11.3118 6.79998H12.1614L12.1562 6.75019C12.1385 6.58091 12.1292 6.41103 12.1292 6.24593C12.1292 6.11907 12.1358 5.98285 12.1489 5.8301L12.153 5.78151H10.5151L10.5573 5.84544L11.2858 4.3478L11.2436 4.37369H12.5087L12.5205 4.34581C12.9216 3.40999 13.6036 2.61198 14.4926 2.03762C15.4029 1.44992 16.4712 1.13904 17.5809 1.13904C19.0023 1.13904 20.3477 1.64888 21.3706 2.57594L21.3602 2.52416L20.7279 3.82503L20.8068 3.81547C20.0576 2.93322 18.9506 2.42677 17.7686 2.42677C16.3781 2.42677 15.0797 3.14691 14.3786 4.30618L14.3379 4.37369H14.4193Z" fill="#10298E"/>
</g>
<defs>
<clipPath id="clip0_10766_48463">
<rect x="0.519531" width="40.5" height="18" rx="3" fill="white"/>
</clipPath>
</defs>
</svg>
