<svg width="41" height="18" viewBox="0 0 41 18" fill="none" xmlns="http://www.w3.org/2000/svg">
<g clip-path="url(#clip0_10766_48391)">
<path fill-rule="evenodd" clip-rule="evenodd" d="M7.74693 2.45143C7.27499 3.01673 6.51989 3.46261 5.76479 3.39891C5.6704 2.63455 6.04008 1.82242 6.47269 1.32081C6.94463 0.739579 7.77052 0.32555 8.4391 0.293701C8.51776 1.08991 8.211 1.87019 7.74693 2.45143ZM8.43353 3.55201C7.7683 3.51325 7.16131 3.75452 6.67102 3.9494C6.35551 4.07481 6.08833 4.18101 5.88507 4.18101C5.65696 4.18101 5.37875 4.06913 5.06638 3.94352C4.65708 3.77893 4.18914 3.59075 3.69842 3.59978C2.57363 3.6157 1.5275 4.26063 0.953314 5.28774C-0.226531 7.34196 0.646554 10.3835 1.78707 12.0555C2.34553 12.8836 3.01411 13.7913 3.89506 13.7594C4.28263 13.7446 4.56142 13.6249 4.84994 13.5009C5.18211 13.3582 5.52718 13.21 6.06597 13.21C6.58609 13.21 6.91607 13.3544 7.23283 13.4929C7.53401 13.6247 7.82325 13.7512 8.25262 13.7435C9.16503 13.7276 9.73923 12.9154 10.2977 12.0874C10.9004 11.1986 11.1652 10.3313 11.2054 10.1996L11.2101 10.1844C11.2091 10.1835 11.2018 10.1801 11.1889 10.1741L11.1888 10.174L11.1887 10.174L11.1886 10.1739L11.1886 10.1739C10.9871 10.0806 9.44723 9.36696 9.43247 7.45343C9.41764 5.8473 10.6538 5.03353 10.8484 4.90543C10.8603 4.89764 10.8683 4.89238 10.8719 4.88964C10.0853 3.71125 8.85827 3.58386 8.43353 3.55201ZM14.7499 13.6545V1.24162H19.3513C21.7268 1.24162 23.3864 2.89773 23.3864 5.31821C23.3864 7.73868 21.6953 9.41072 19.2884 9.41072H16.6534V13.6545H14.7499ZM16.6499 2.86662H18.8445C20.4962 2.86662 21.4401 3.75837 21.4401 5.3269C21.4401 6.89543 20.4962 7.79515 18.8366 7.79515H16.6499V2.86662ZM29.671 12.1668C29.1676 13.1382 28.0585 13.7513 26.8629 13.7513C25.0932 13.7513 23.8583 12.6844 23.8583 11.076C23.8583 9.48362 25.0538 8.56798 27.2641 8.43263L29.6395 8.28931V7.60457C29.6395 6.59338 28.9867 6.044 27.8226 6.044C26.8629 6.044 26.1629 6.54561 26.0213 7.30997H24.3066C24.3617 5.70163 25.8561 4.5312 27.8776 4.5312C30.0564 4.5312 31.4722 5.68571 31.4722 7.47718V13.6558H29.7103V12.1668H29.671ZM27.3762 12.2745C26.3616 12.2745 25.7166 11.7808 25.7166 11.0244C25.7166 10.2441 26.338 9.7903 27.5257 9.71864L29.6415 9.58329V10.2839C29.6415 11.4464 28.6662 12.2745 27.3762 12.2745ZM37.3214 14.1408C36.5584 16.3144 35.6854 17.031 33.8291 17.031C33.6875 17.031 33.2155 17.0151 33.1054 16.9832V15.4943C33.2234 15.5102 33.5144 15.5262 33.6639 15.5262C34.5055 15.5262 34.9775 15.1679 35.2685 14.2363L35.4415 13.6869L32.2166 4.64995H34.2066L36.4483 11.983H36.4877L38.7294 4.64995H40.6643L37.3214 14.1408Z" fill="black" fill-opacity="0.9"/>
</g>
<defs>
<clipPath id="clip0_10766_48391">
<rect width="40.8" height="18" rx="3" fill="white"/>
</clipPath>
</defs>
</svg>
