<svg width="52" height="18" viewBox="0 0 52 18" fill="none" xmlns="http://www.w3.org/2000/svg">
<g clip-path="url(#clip0_10766_48410)">
<path d="M22.1933 15.8564H18.2559L20.7186 1.22778H24.6559L22.1933 15.8564Z" fill="black" fill-opacity="0.9"/>
<path d="M36.5429 1.86835C35.7614 1.56391 34.5218 1.22778 32.9891 1.22778C29.0762 1.22778 26.3208 3.27648 26.3039 6.2055C26.2714 8.36652 28.2767 9.5668 29.7765 10.2874C31.3095 11.0237 31.8306 11.5042 31.8306 12.1605C31.815 13.1685 30.5918 13.6331 29.4511 13.6331C27.8692 13.6331 27.0215 13.3936 25.7334 12.8328L25.2117 12.5924L24.6572 15.9699C25.5865 16.3856 27.2987 16.7545 29.0762 16.7706C33.2337 16.7706 35.9404 14.7536 35.9724 11.6323C35.9883 9.91953 34.9294 8.60713 32.6465 7.5347C31.2607 6.84627 30.412 6.38207 30.412 5.67769C30.4283 5.03733 31.1298 4.38145 32.6942 4.38145C33.9823 4.34933 34.9287 4.65334 35.6457 4.95756L36.0041 5.11733L36.5429 1.86835V1.86835V1.86835Z" fill="black" fill-opacity="0.9"/>
<path fill-rule="evenodd" clip-rule="evenodd" d="M44.2628 1.49341H47.3784L50.6278 16.1144H46.8984C46.8984 16.1144 46.5335 14.4345 46.4178 13.9212H41.2464C41.0969 14.3098 40.4011 16.1144 40.4011 16.1144H36.1748L42.1576 2.70654C42.5722 1.75762 43.3021 1.49341 44.2628 1.49341ZM44.0147 6.8445C44.0147 6.8445 42.7383 10.0954 42.4066 10.9354H45.7545C45.5889 10.2044 44.8261 6.70454 44.8261 6.70454L44.5446 5.44469C44.4261 5.7691 44.2547 6.21512 44.139 6.51596C44.0607 6.7199 44.0079 6.85711 44.0147 6.8445Z" fill="black" fill-opacity="0.9"/>
<path fill-rule="evenodd" clip-rule="evenodd" d="M0.973524 1.49341H7.45391C8.3323 1.52421 9.04505 1.78863 9.27698 2.72246L10.6857 9.44222C10.6786 9.42401 10.6714 9.40581 10.6642 9.38763C10.67 9.40563 10.6757 9.42362 10.6813 9.4416L11.1124 11.4637L15.057 1.49341H19.3161L12.985 16.0991H8.72568L5.13485 3.39171C3.89745 2.71333 2.48555 2.16767 0.907227 1.78883L0.973524 1.49341Z" fill="black" fill-opacity="0.9"/>
</g>
<defs>
<clipPath id="clip0_10766_48410">
<rect x="0.0859375" width="51.4286" height="18" rx="3" fill="white"/>
</clipPath>
</defs>
</svg>
