<svg width="93" height="28" viewBox="0 0 93 28" fill="none" xmlns="http://www.w3.org/2000/svg">
<path d="M87.2886 7.77437C87.2886 7.4517 87.348 7.1492 87.4667 6.86687C87.5854 6.58453 87.7465 6.33829 87.95 6.12813C88.1535 5.91797 88.392 5.75239 88.6655 5.63139C88.9389 5.51038 89.2325 5.44988 89.5462 5.44988C89.8642 5.44988 90.162 5.51038 90.4397 5.63139C90.7174 5.75239 90.9591 5.91797 91.1647 6.12813C91.3704 6.33829 91.5325 6.58453 91.6512 6.86687C91.7699 7.1492 91.8293 7.4517 91.8293 7.77437C91.8293 8.09704 91.7699 8.39954 91.6512 8.68188C91.5325 8.96421 91.3704 9.21046 91.1647 9.42062C90.9591 9.63078 90.7174 9.79636 90.4397 9.91736C90.162 10.0384 89.8642 10.0989 89.5462 10.0989C89.2325 10.0989 88.9389 10.0384 88.6655 9.91736C88.392 9.79636 88.1535 9.63078 87.95 9.42062C87.7465 9.21046 87.5854 8.96421 87.4667 8.68188C87.348 8.39954 87.2886 8.09704 87.2886 7.77437ZM87.7529 7.77437C87.7529 8.04185 87.7984 8.29022 87.8896 8.51948C87.9807 8.74875 88.1069 8.94829 88.268 9.11812C88.4291 9.28794 88.6188 9.42168 88.8372 9.51933C89.0555 9.61698 89.2919 9.6658 89.5462 9.6658C89.8049 9.6658 90.0444 9.61698 90.2649 9.51933C90.4853 9.42168 90.6772 9.28794 90.8404 9.11812C91.0036 8.94829 91.1319 8.74875 91.2251 8.51948C91.3184 8.29022 91.3651 8.04185 91.3651 7.77437C91.3651 7.50689 91.3184 7.25853 91.2251 7.02926C91.1319 6.8 91.0036 6.60045 90.8404 6.43063C90.6772 6.2608 90.4853 6.12706 90.2649 6.02941C90.0444 5.93176 89.8049 5.88294 89.5462 5.88294C89.2919 5.88294 89.0555 5.93176 88.8372 6.02941C88.6188 6.12706 88.4291 6.2608 88.268 6.43063C88.1069 6.60045 87.9807 6.8 87.8896 7.02926C87.7984 7.25853 87.7529 7.50689 87.7529 7.77437ZM88.7704 6.77452C88.7704 6.63442 88.8403 6.56436 88.9802 6.56436H89.6989C89.9278 6.56436 90.1101 6.63017 90.2458 6.76179C90.3815 6.8934 90.4493 7.07172 90.4493 7.29674C90.4493 7.39014 90.4355 7.47293 90.4079 7.54511C90.3804 7.61728 90.3454 7.67991 90.303 7.73298C90.2606 7.78605 90.214 7.82956 90.1631 7.86353C90.1122 7.8975 90.0614 7.92085 90.0105 7.93358V7.94632C90.0147 7.95057 90.0211 7.95906 90.0296 7.97179C90.038 7.98029 90.0465 7.99408 90.055 8.01319C90.0635 8.03229 90.0762 8.05458 90.0932 8.08006L90.4238 8.72327C90.462 8.79545 90.4705 8.85382 90.4493 8.8984C90.4281 8.94298 90.3815 8.96527 90.3094 8.96527H90.2331C90.1144 8.96527 90.0317 8.91433 89.985 8.81243L89.6162 8.03548H89.2219V8.76148C89.2219 8.89734 89.1562 8.96527 89.0248 8.96527H88.9675C88.8361 8.96527 88.7704 8.89734 88.7704 8.76148V6.77452ZM89.6035 7.70432C89.7264 7.70432 89.8218 7.66823 89.8897 7.59605C89.9575 7.52388 89.9914 7.42411 89.9914 7.29674C89.9914 7.17361 89.9575 7.07809 89.8897 7.01016C89.8218 6.94223 89.7285 6.90826 89.6098 6.90826H89.2219V7.70432H89.6035ZM71.066 9.22702C71.785 9.22702 72.3947 9.31877 72.8951 9.50229C73.3955 9.68581 73.7867 9.85521 74.0687 10.0105C74.3083 10.1375 74.4493 10.3069 74.4916 10.5187C74.5339 10.7305 74.4986 10.9563 74.3858 11.1963L74.1744 11.5775C74.0475 11.8316 73.8854 11.9798 73.6881 12.0221C73.4907 12.0645 73.2581 12.0292 72.9903 11.9163C72.7506 11.8033 72.4616 11.6869 72.1233 11.5669C71.785 11.4469 71.3903 11.3869 70.9392 11.3869C70.474 11.3869 70.1145 11.4786 69.8608 11.6622C69.607 11.8457 69.4801 12.1068 69.4801 12.4456C69.4801 12.7421 69.6105 12.9821 69.8713 13.1656C70.1321 13.3491 70.4634 13.5114 70.8652 13.6526C71.2669 13.7938 71.6969 13.9455 72.155 14.1079C72.6132 14.2702 73.0431 14.4784 73.4449 14.7325C73.8466 14.9867 74.1779 15.3113 74.4387 15.7066C74.6995 16.1019 74.8299 16.603 74.8299 17.21C74.8299 17.69 74.7347 18.1312 74.5444 18.5335C74.3541 18.9358 74.0792 19.2852 73.7198 19.5817C73.3603 19.8781 72.9268 20.111 72.4193 20.2804C71.9118 20.4498 71.348 20.5345 70.7277 20.5345C69.8537 20.5345 69.1171 20.4075 68.518 20.1534C67.9189 19.8993 67.4572 19.6593 67.133 19.4334C66.8934 19.2923 66.7594 19.1158 66.7313 18.904C66.7031 18.6923 66.7665 18.4664 66.9216 18.2264L67.1753 17.8453C67.3304 17.6194 67.5031 17.4924 67.6934 17.4641C67.8837 17.4359 68.1127 17.4924 68.3806 17.6335C68.6343 17.7747 68.9621 17.9335 69.3638 18.11C69.7656 18.2864 70.2414 18.3747 70.7911 18.3747C71.2563 18.3747 71.6229 18.2759 71.8907 18.0782C72.1585 17.8806 72.2925 17.6124 72.2925 17.2736C72.2925 16.9771 72.1621 16.7407 71.9013 16.5642C71.6405 16.3877 71.3092 16.2254 70.9074 16.0772C70.5057 15.9289 70.0757 15.7701 69.6176 15.6007C69.1594 15.4313 68.7295 15.2196 68.3277 14.9655C67.926 14.7114 67.5947 14.3867 67.3339 13.9914C67.0731 13.5961 66.9427 13.088 66.9427 12.4668C66.9427 11.9445 67.052 11.4786 67.2705 11.0693C67.489 10.6599 67.785 10.3211 68.1586 10.0528C68.5321 9.78463 68.9691 9.57994 69.4696 9.43877C69.97 9.2976 70.5022 9.22702 71.066 9.22702ZM39.6347 9.22702C40.3537 9.22702 40.9634 9.31877 41.4638 9.50229C41.9643 9.68581 42.3554 9.85521 42.6374 10.0105C42.877 10.1375 43.018 10.3069 43.0603 10.5187C43.1026 10.7305 43.0673 10.9563 42.9546 11.1963L42.7431 11.5775C42.6162 11.8316 42.4541 11.9798 42.2568 12.0221C42.0594 12.0645 41.8268 12.0292 41.559 11.9163C41.3193 11.8033 41.0303 11.6869 40.692 11.5669C40.3537 11.4469 39.959 11.3869 39.5079 11.3869C39.0427 11.3869 38.6832 11.4786 38.4295 11.6622C38.1757 11.8457 38.0489 12.1068 38.0489 12.4456C38.0489 12.7421 38.1792 12.9821 38.44 13.1656C38.7008 13.3491 39.0321 13.5114 39.4339 13.6526C39.8356 13.7938 40.2656 13.9455 40.7237 14.1079C41.1819 14.2702 41.6118 14.4784 42.0136 14.7325C42.4154 14.9867 42.7466 15.3113 43.0074 15.7066C43.2682 16.1019 43.3986 16.603 43.3986 17.21C43.3986 17.69 43.3035 18.1312 43.1131 18.5335C42.9228 18.9358 42.648 19.2852 42.2885 19.5817C41.929 19.8781 41.4955 20.111 40.988 20.2804C40.4806 20.4498 39.9167 20.5345 39.2964 20.5345C38.4224 20.5345 37.6859 20.4075 37.0867 20.1534C36.4876 19.8993 36.026 19.6593 35.7017 19.4334C35.4621 19.2923 35.3282 19.1158 35.3 18.904C35.2718 18.6923 35.3352 18.4664 35.4903 18.2264L35.744 17.8453C35.8991 17.6194 36.0718 17.4924 36.2621 17.4641C36.4524 17.4359 36.6815 17.4924 36.9493 17.6335C37.203 17.7747 37.5308 17.9335 37.9326 18.11C38.3343 18.2864 38.8101 18.3747 39.3599 18.3747C39.8251 18.3747 40.1916 18.2759 40.4594 18.0782C40.7273 17.8806 40.8612 17.6124 40.8612 17.2736C40.8612 16.9771 40.7308 16.7407 40.47 16.5642C40.2092 16.3877 39.8779 16.2254 39.4762 16.0772C39.0744 15.9289 38.6444 15.7701 38.1863 15.6007C37.7281 15.4313 37.2982 15.2196 36.8964 14.9655C36.4947 14.7114 36.1634 14.3867 35.9026 13.9914C35.6418 13.5961 35.5114 13.088 35.5114 12.4668C35.5114 11.9445 35.6207 11.4786 35.8392 11.0693C36.0577 10.6599 36.3537 10.3211 36.7273 10.0528C37.1008 9.78463 37.5378 9.57994 38.0383 9.43877C38.5387 9.2976 39.0709 9.22702 39.6347 9.22702ZM78.1909 5.24609C78.783 5.24609 79.079 5.54254 79.079 6.13545V10.4975C79.079 10.6387 79.0755 10.7622 79.0684 10.8681C79.0614 10.974 79.0508 11.0693 79.0367 11.154C79.0226 11.2528 79.0156 11.3375 79.0156 11.4081H79.0578C79.1847 11.154 79.3645 10.8963 79.597 10.6352C79.8296 10.374 80.1045 10.1375 80.4217 9.9258C80.7389 9.71404 81.0984 9.54464 81.5001 9.41759C81.9019 9.29054 82.3354 9.22702 82.8006 9.22702C83.9988 9.22702 84.9257 9.5517 85.5812 10.2011C86.2367 10.8504 86.5644 11.8951 86.5644 13.335V19.3911C86.5644 19.984 86.2684 20.2804 85.6763 20.2804H84.7671C84.175 20.2804 83.879 19.984 83.879 19.3911V13.8855C83.879 13.2221 83.7662 12.6892 83.5406 12.2868C83.3151 11.8845 82.864 11.6833 82.1873 11.6833C81.7221 11.6833 81.2957 11.7751 80.9081 11.9586C80.5204 12.1421 80.1926 12.3927 79.9248 12.7103C79.657 13.028 79.449 13.4056 79.301 13.8432C79.153 14.2808 79.079 14.7537 79.079 15.2619V19.3911C79.079 19.984 78.783 20.2804 78.1909 20.2804H77.2816C76.6896 20.2804 76.3935 19.984 76.3935 19.3911V6.13545C76.3935 5.54254 76.6896 5.24609 77.2816 5.24609L78.1909 5.24609ZM64.1417 9.48112C64.7196 9.48112 65.0086 9.77757 65.0086 10.3705V19.3911C65.0086 19.984 64.7196 20.2804 64.1417 20.2804H63.2113C62.6333 20.2804 62.3443 19.984 62.3443 19.3911V10.3705C62.3443 9.77757 62.6333 9.48112 63.2113 9.48112H64.1417ZM46.2001 9.48112C46.7358 9.48112 47.053 9.74228 47.1517 10.2646L48.8856 16.5748C48.9138 16.7301 48.9384 16.8712 48.9596 16.9983C48.9807 17.1253 49.0054 17.2453 49.0336 17.3583C49.0618 17.4853 49.0829 17.6053 49.097 17.7182H49.1393C49.1534 17.6053 49.1746 17.4853 49.2028 17.3583C49.2309 17.2453 49.2556 17.1253 49.2768 16.9983C49.2979 16.8712 49.3296 16.7301 49.3719 16.5748L51.1904 10.2646C51.2891 9.75639 51.6133 9.50229 52.1631 9.50229H52.9666C53.4882 9.50229 53.8124 9.75639 53.9393 10.2646L55.7367 16.5748C55.7789 16.7301 55.8107 16.8712 55.8318 16.9983C55.853 17.1253 55.8776 17.2453 55.9058 17.3583C55.934 17.4853 55.9552 17.6053 55.9692 17.7182H56.0115C56.0256 17.6053 56.0468 17.4853 56.075 17.3583C56.1032 17.2453 56.1278 17.1253 56.149 16.9983C56.1701 16.8712 56.2018 16.7301 56.2441 16.5748L57.9569 10.2646C58.0838 9.74228 58.408 9.48112 58.9296 9.48112H59.9023C60.2265 9.48112 60.4521 9.57288 60.5789 9.75639C60.7058 9.93991 60.7269 10.1799 60.6424 10.4763L57.8723 19.5393C57.7314 20.0334 57.4001 20.2804 56.8785 20.2804H55.4618C54.9261 20.2804 54.5948 20.0263 54.4679 19.5181L52.8397 14.1185C52.7975 13.9773 52.7622 13.8361 52.734 13.695C52.7058 13.5538 52.6776 13.4267 52.6494 13.3138C52.6212 13.1868 52.6001 13.0668 52.586 12.9538H52.5437C52.5155 13.0668 52.4873 13.1868 52.4591 13.3138C52.4309 13.4267 52.4027 13.5538 52.3745 13.695C52.3464 13.8361 52.3111 13.9773 52.2688 14.1185L50.6406 19.5181C50.5138 20.0263 50.1895 20.2804 49.668 20.2804H48.2089C47.7014 20.2804 47.3772 20.0334 47.2362 19.5393L44.4451 10.4763C44.3605 10.1799 44.3852 9.93991 44.5191 9.75639C44.653 9.57288 44.875 9.48112 45.1851 9.48112H46.2001Z" fill="#010B19"/>
<path fill-rule="evenodd" clip-rule="evenodd" d="M7.94995 26.5912C13.5652 29.2768 20.4952 27.9477 24.6818 22.9593C29.6442 17.0467 28.8734 8.23213 22.9603 3.27148L19.0294 7.95525C23.6489 11.8308 24.2511 18.7171 20.3743 23.3363C17.2831 27.0195 12.1935 28.2493 7.94995 26.5912Z" fill="url(#paint0_linear_13383_35607)"/>
<path fill-rule="evenodd" clip-rule="evenodd" d="M7.9502 26.5915C13.5654 29.277 20.4954 27.948 24.6821 22.9595C25.1948 22.3486 25.6461 21.7066 26.0371 21.0412C26.6983 16.9327 25.2443 12.5901 21.8241 9.72088C20.9552 8.99187 20.0145 8.40456 19.0302 7.95605C23.6492 11.8316 24.2512 18.7176 20.3746 23.3366C17.2833 27.0198 12.1938 28.2496 7.9502 26.5915Z" fill="url(#paint1_linear_13383_35607)"/>
<path fill-rule="evenodd" clip-rule="evenodd" d="M20.0028 1.36096C14.3876 -1.32459 7.4576 0.00445683 3.27095 4.99289C-1.69136 10.9055 -0.920614 19.7201 4.99245 24.6807L8.9234 19.9969C4.30381 16.1214 3.70168 9.23509 7.57847 4.61583C10.6697 0.932633 15.7592 -0.297155 20.0028 1.36096Z" fill="url(#paint2_linear_13383_35607)"/>
<path fill-rule="evenodd" clip-rule="evenodd" d="M20.003 1.36096C14.3878 -1.32459 7.45779 0.00445683 3.27114 4.99289C2.75838 5.60384 2.30704 6.2458 1.91608 6.91124C1.2549 11.0197 2.70889 15.3623 6.12907 18.2316C6.99804 18.9606 7.93872 19.5479 8.92296 19.9964C4.30397 16.1208 3.70203 9.23488 7.57866 4.61583C10.6699 0.932633 15.7594 -0.297155 20.003 1.36096Z" fill="url(#paint3_linear_13383_35607)"/>
<defs>
<linearGradient id="paint0_linear_13383_35607" x1="9351.49" y1="2593.77" x2="6589.34" y2="918.294" gradientUnits="userSpaceOnUse">
<stop stop-color="#EF2131"/>
<stop offset="1" stop-color="#FECF2C"/>
</linearGradient>
<linearGradient id="paint1_linear_13383_35607" x1="6209.83" y1="7.95618" x2="753.584" y2="2884.12" gradientUnits="userSpaceOnUse">
<stop stop-color="#FBC52C"/>
<stop offset="0.263921" stop-color="#F87130"/>
<stop offset="0.560797" stop-color="#EF52E2"/>
<stop offset="1" stop-color="#661EEC"/>
</linearGradient>
<linearGradient id="paint2_linear_13383_35607" x1="2378.12" y1="1781.73" x2="5029.03" y2="3423.39" gradientUnits="userSpaceOnUse">
<stop stop-color="#78F6D8"/>
<stop offset="0.265705" stop-color="#77D1F6"/>
<stop offset="0.554471" stop-color="#70A4F3"/>
<stop offset="1" stop-color="#661EEC"/>
</linearGradient>
<linearGradient id="paint3_linear_13383_35607" x1="4476.74" y1="3519.36" x2="9890.44" y2="653.033" gradientUnits="userSpaceOnUse">
<stop stop-color="#536EED"/>
<stop offset="0.246658" stop-color="#54C3EC"/>
<stop offset="0.5642" stop-color="#64D769"/>
<stop offset="1" stop-color="#FECF2C"/>
</linearGradient>
</defs>
</svg>
