<?xml version="1.0" encoding="UTF-8"?> <svg xmlns="http://www.w3.org/2000/svg" width="48" height="18" viewBox="0 0 48 18" fill="none"><path d="M32.6722 10.2231L33.1426 10.3642C33.1112 10.4975 33.0642 10.6073 32.9936 10.6935C32.9231 10.7797 32.8447 10.8503 32.7427 10.8895C32.6408 10.9365 32.5154 10.96 32.3586 10.96C32.1704 10.96 32.0215 10.9365 31.8961 10.8816C31.7785 10.8268 31.6765 10.7327 31.5903 10.5916C31.5041 10.4583 31.457 10.278 31.457 10.0663C31.457 9.78408 31.5354 9.56457 31.6844 9.40777C31.8333 9.25098 32.0529 9.18042 32.3272 9.18042C32.5468 9.18042 32.7114 9.22746 32.8368 9.3137C32.9623 9.39993 33.0563 9.53321 33.1112 9.72136L32.6408 9.82328C32.6252 9.7684 32.6095 9.7292 32.586 9.70568C32.5546 9.66648 32.5232 9.63512 32.4762 9.6116C32.4292 9.58809 32.3821 9.58025 32.3351 9.58025C32.2175 9.58025 32.1234 9.62728 32.0607 9.7292C32.0137 9.79976 31.9901 9.91736 31.9901 10.0663C31.9901 10.2545 32.0215 10.3877 32.0764 10.4583C32.1312 10.5289 32.2175 10.5681 32.3194 10.5681C32.4213 10.5681 32.4997 10.5367 32.5468 10.4818C32.6095 10.4113 32.6487 10.3329 32.6722 10.2231Z" fill="black" fill-opacity="0.9"></path><path d="M33.3301 10.0673C33.3301 9.78508 33.4085 9.56557 33.5653 9.40878C33.7221 9.25198 33.9416 9.17358 34.2238 9.17358C34.5139 9.17358 34.7334 9.25198 34.8902 9.40094C35.047 9.55773 35.1254 9.7694 35.1254 10.0516C35.1254 10.2555 35.094 10.4201 35.0235 10.5455C34.9529 10.671 34.8588 10.7729 34.7256 10.8434C34.6001 10.914 34.4355 10.9532 34.2473 10.9532C34.0513 10.9532 33.8945 10.9218 33.7613 10.8591C33.6358 10.7964 33.5339 10.7023 33.4477 10.5612C33.3614 10.4201 33.3301 10.2711 33.3301 10.0673ZM33.8632 10.0673C33.8632 10.2398 33.8945 10.3652 33.9573 10.4436C34.02 10.522 34.1062 10.5612 34.2238 10.5612C34.3414 10.5612 34.4276 10.522 34.4904 10.4515C34.5531 10.3731 34.5844 10.2398 34.5844 10.0516C34.5844 9.887 34.5531 9.7694 34.4825 9.69885C34.4198 9.62045 34.3257 9.58909 34.216 9.58909C34.1062 9.58909 34.02 9.62829 33.9573 9.70669C33.8945 9.7694 33.8632 9.89484 33.8632 10.0673Z" fill="black" fill-opacity="0.9"></path><path d="M35.3975 9.20361H36.0953L36.3618 10.2541L36.6284 9.20361H37.3261V10.9284H36.8871V9.61128L36.55 10.9284H36.158L35.8209 9.61128V10.9284H35.3818V9.20361H35.3975Z" fill="black" fill-opacity="0.9"></path><path d="M37.6729 9.20361H38.5587C38.7547 9.20361 38.8958 9.25065 38.9899 9.34473C39.084 9.4388 39.131 9.56424 39.131 9.73671C39.131 9.90919 39.0762 10.0503 38.9742 10.1444C38.8723 10.2463 38.7077 10.2933 38.496 10.2933H38.206V10.9362H37.6729V9.20361V9.20361ZM38.206 9.94055H38.3392C38.4411 9.94055 38.5117 9.92487 38.5587 9.88567C38.5979 9.84647 38.6215 9.80727 38.6215 9.75239C38.6215 9.69752 38.6058 9.65048 38.5666 9.61128C38.5274 9.57208 38.4647 9.5564 38.3627 9.5564H38.2138V9.94055H38.206Z" fill="black" fill-opacity="0.9"></path><path d="M39.415 9.20361H39.9481V10.505H40.7792V10.9284H39.415V9.20361Z" fill="black" fill-opacity="0.9"></path><path d="M41.042 9.20361H41.5751V10.9284H41.042V9.20361Z" fill="black" fill-opacity="0.9"></path><path d="M43.0219 10.6405H42.4182L42.332 10.9227H41.791L42.4417 9.198H43.0219L43.6725 10.9227H43.1159L43.0219 10.6405ZM42.9121 10.272L42.7239 9.6527L42.5358 10.272H42.9121Z" fill="black" fill-opacity="0.9"></path><path d="M43.8369 9.20361H44.3308L44.9815 10.1601V9.20361H45.4833V10.9284H44.9815L44.3387 9.97975V10.9284H43.8369V9.20361V9.20361Z" fill="black" fill-opacity="0.9"></path><path d="M45.7178 9.20361H47.3406V9.62696H46.7997V10.9284H46.2666V9.62696H45.7256V9.20361H45.7178Z" fill="black" fill-opacity="0.9"></path><path d="M26.2572 11.8301L27.8017 11.3441L27.2999 10.2308C26.9314 10.6934 26.563 11.2892 26.2572 11.8301ZM25.732 6.74216L22.7058 0L0.550781 1.25436L6.68928 18L18.5037 14.2761C17.7511 13.1943 17.4767 11.9085 18.3469 11.2814C19.3191 10.5758 20.7851 11.3911 21.718 12.5436C22.6196 11.0383 25.1518 7.53397 25.732 6.74216Z" fill="#225E63"></path><path d="M22.0107 4.8733C22.9358 4.8733 23.6884 4.16773 23.6884 3.28968C23.6884 2.41163 22.9358 1.70605 22.0107 1.70605C21.0856 1.70605 20.333 2.41163 20.333 3.28968C20.333 4.15989 21.0856 4.8733 22.0107 4.8733ZM20.6388 5.55536H23.3827V12.7287H20.6388V5.55536Z" fill="white"></path><path d="M19.2866 7.64674C19.3101 7.65458 19.3258 7.64674 19.3258 7.62322V5.8044C19.3258 5.78089 19.3101 5.75737 19.2866 5.74169C19.2866 5.74169 18.926 5.50649 17.8284 5.44378C17.7735 5.41242 16.8092 5.40458 16.5505 5.44378C12.5523 5.76521 12.4033 8.65806 12.4033 8.7835V9.48907C12.4033 9.57531 12.4033 12.5309 16.5505 12.7896C16.9582 12.821 17.75 12.7896 17.8284 12.7896C18.7849 12.7896 19.4434 12.4995 19.4434 12.4995C19.4669 12.4917 19.4826 12.4682 19.4826 12.4446V10.7434C19.4826 10.7199 19.4669 10.7121 19.4512 10.7277C19.4512 10.7277 19.1533 10.9629 17.8519 11.0962C17.4835 11.1354 17.3031 11.1197 17.1699 11.0962C15.3197 10.7826 15.2335 9.43419 15.2335 9.43419C15.2335 9.41068 15.2256 9.37148 15.2256 9.3558V8.83838C15.2256 8.81486 15.2256 8.77566 15.2335 8.75998C15.2335 8.75998 15.3589 7.30963 17.1699 7.15284H17.8519C18.6437 7.25475 19.2866 7.64674 19.2866 7.64674Z" fill="white"></path><path d="M4.7832 12.7052C4.7832 12.7287 4.79888 12.7444 4.8224 12.7444H7.49575C7.51927 12.7444 7.53495 12.7287 7.53495 12.7052V10.6199C7.53495 10.5963 7.55062 10.5807 7.57414 10.5807C7.57414 10.5807 11.8468 10.8864 11.8468 8.0249C11.8468 5.75922 9.16561 5.51619 8.28756 5.55539C8.27188 5.55539 4.8224 5.55539 4.8224 5.55539C4.79888 5.55539 4.7832 5.57107 4.7832 5.59459V12.7052ZM7.48791 8.98919V7.1155H8.14644C8.14644 7.1155 9.09505 7.15469 9.17345 7.80539C9.18913 7.85243 9.18913 8.17386 9.17345 8.18954C9.04801 8.94999 8.22484 8.98919 8.22484 8.98919H7.48791Z" fill="white"></path><path d="M22.0932 16.1901C22.3127 16.1901 22.4852 16.1901 22.7674 16.0647C23.7395 15.5551 27.0244 7.53509 30.4895 5.06558C30.513 5.0499 30.5365 5.02638 30.5522 5.00286C30.5757 4.9715 30.5757 4.94014 30.5757 4.94014C30.5757 4.94014 30.5757 4.77551 30.0662 4.77551C26.9852 4.68928 23.7787 11.157 22.0932 13.7128C22.0697 13.7442 21.9599 13.7128 21.9599 13.7128C21.9599 13.7128 20.831 12.38 19.851 11.8705C19.8275 11.8626 19.7177 11.8234 19.6001 11.8313C19.5217 11.8313 19.067 11.9253 18.8554 12.1449C18.6045 12.4114 18.6123 12.5604 18.6123 12.8818C18.6123 12.9053 18.628 13.0151 18.6594 13.0699C18.9024 13.4933 19.9921 14.9985 20.8937 15.8295C21.027 15.9314 21.2386 16.1901 22.0932 16.1901Z" fill="#2BBC5D"></path><path d="M31.3994 2.64209H33.963C34.4726 2.64209 34.8803 2.71265 35.186 2.84592C35.4996 2.98704 35.7583 3.18303 35.9543 3.4339C36.1581 3.69261 36.3071 3.99052 36.3933 4.32763C36.4874 4.66474 36.5344 5.02536 36.5344 5.40951C36.5344 6.00533 36.4639 6.46787 36.3306 6.79714C36.1973 7.12641 36.0092 7.4008 35.7661 7.62815C35.5231 7.84767 35.2644 7.99662 34.99 8.07502C34.6137 8.17693 34.2688 8.22397 33.963 8.22397H31.3994V2.64209V2.64209ZM33.1242 3.90429V6.95394H33.5475C33.9081 6.95394 34.1668 6.91474 34.3158 6.83634C34.4647 6.75794 34.5902 6.61683 34.6764 6.42084C34.7627 6.22484 34.8097 5.89557 34.8097 5.44871C34.8097 4.85289 34.7156 4.45306 34.5196 4.23355C34.3236 4.01404 34.01 3.90429 33.5553 3.90429H33.1242Z" fill="black" fill-opacity="0.9"></path><path d="M37.0117 6.38101L38.6581 6.2791C38.6973 6.54565 38.7678 6.74948 38.8776 6.8906C39.0579 7.11795 39.3088 7.2277 39.638 7.2277C39.8811 7.2277 40.0771 7.17282 40.2103 7.05523C40.3436 6.93763 40.4142 6.80436 40.4142 6.6554C40.4142 6.51429 40.3514 6.38101 40.226 6.26342C40.1006 6.14582 39.8027 6.04391 39.3401 5.94199C38.5797 5.76952 38.0466 5.54216 37.7173 5.25993C37.388 4.9777 37.2312 4.61708 37.2312 4.17805C37.2312 3.88798 37.3175 3.62143 37.4821 3.36272C37.6467 3.10401 37.8976 2.90802 38.2347 2.75906C38.5718 2.61011 39.0265 2.53955 39.6067 2.53955C40.3201 2.53955 40.8689 2.67283 41.2373 2.93938C41.6136 3.20593 41.8331 3.62927 41.9037 4.20941L40.273 4.30349C40.226 4.05262 40.1398 3.8723 39.9987 3.75471C39.8575 3.63711 39.6694 3.58223 39.4264 3.58223C39.2225 3.58223 39.0736 3.62143 38.9716 3.70767C38.8697 3.79391 38.8227 3.89582 38.8227 4.02126C38.8227 4.1075 38.8619 4.19373 38.9481 4.26429C39.0265 4.33485 39.2225 4.4054 39.5283 4.46812C40.2809 4.63276 40.8218 4.79739 41.1511 4.96202C41.4804 5.12666 41.7156 5.33833 41.8645 5.58136C42.0135 5.82439 42.084 6.10662 42.084 6.41237C42.084 6.773 41.9821 7.10227 41.7861 7.40018C41.5901 7.70593 41.3079 7.93328 40.9551 8.09007C40.6023 8.24687 40.1476 8.32526 39.6067 8.32526C38.6581 8.32526 37.9995 8.14495 37.6311 7.77648C37.2704 7.40802 37.0666 6.94547 37.0117 6.38101Z" fill="black" fill-opacity="0.9"></path><path d="M42.5234 6.38101L44.1698 6.2791C44.209 6.54565 44.2795 6.74948 44.3893 6.8906C44.5696 7.11795 44.8205 7.2277 45.1497 7.2277C45.3928 7.2277 45.5888 7.17282 45.722 7.05523C45.8553 6.93763 45.9259 6.80436 45.9259 6.6554C45.9259 6.51429 45.8632 6.38101 45.7377 6.26342C45.6123 6.14582 45.3144 6.04391 44.8518 5.94199C44.0914 5.76952 43.5583 5.54216 43.229 5.25993C42.9076 4.9777 42.7429 4.61708 42.7429 4.17805C42.7429 3.88798 42.8292 3.62143 42.9938 3.36272C43.1585 3.10401 43.4093 2.90802 43.7464 2.75906C44.0835 2.61011 44.5382 2.53955 45.1184 2.53955C45.8318 2.53955 46.3806 2.67283 46.749 2.93938C47.1254 3.20593 47.3449 3.62927 47.4154 4.20941L45.7848 4.30349C45.7377 4.05262 45.6515 3.8723 45.5104 3.75471C45.3693 3.63711 45.1811 3.58223 44.9381 3.58223C44.7342 3.58223 44.5853 3.62143 44.4834 3.70767C44.3815 3.79391 44.3344 3.89582 44.3344 4.02126C44.3344 4.1075 44.3736 4.19373 44.4598 4.26429C44.5382 4.33485 44.7342 4.4054 45.04 4.46812C45.7926 4.63276 46.3335 4.79739 46.6628 4.96202C46.9921 5.12666 47.2273 5.33833 47.3762 5.58136C47.5252 5.82439 47.5957 6.10662 47.5957 6.41237C47.5957 6.773 47.4938 7.10227 47.2978 7.40018C47.1018 7.70593 46.8196 7.93328 46.4668 8.09007C46.114 8.24687 45.6593 8.32526 45.1184 8.32526C44.1698 8.32526 43.5112 8.14495 43.1428 7.77648C42.7743 7.40802 42.5705 6.94547 42.5234 6.38101Z" fill="black" fill-opacity="0.9"></path></svg> 