<?xml version="1.0" encoding="UTF-8"?> <svg xmlns="http://www.w3.org/2000/svg" width="58" height="18" viewBox="0 0 58 18" fill="none"><g clip-path="url(#clip0_10766_48469)"><path d="M15.6063 5.73749C15.8578 7.74584 13.7997 9.70247 11.6765 10.7454C13.7066 10.1938 18.2976 6.95284 16.0347 3.90153C13.7718 0.850214 10.1493 0.324423 10.1493 0.324423L9.97235 0.272705H9.66504C13.6228 1.58287 15.3642 3.80671 15.6063 5.73749Z" fill="#DC0032"></path><path d="M7.32422 11.9091C12.7184 11.357 15.0574 7.6681 14.0948 4.66263C13.1321 1.65715 9.26548 0.32528 9.26548 0.32528L9.18592 0.272705H7.84136C8.96315 0.596911 13.9277 2.26175 13.5299 6.15222C13.0764 10.5509 9.6235 11.4359 7.32422 11.9091Z" fill="#DC0032"></path><path d="M11.9154 6.21788C12.7936 1.69786 5.0543 0.272705 5.0543 0.272705H4.83474L2.67578 10.7379C5.036 10.7885 11.0463 10.7126 11.9154 6.21788Z" fill="#DC0032"></path><path d="M10.6866 0.272705C14.9239 0.873129 20.3666 5.45577 15.6008 10.2857C11.1502 14.8065 3.18556 13.4909 2.16564 13.2966L1.5166 16.5636H11.039C14.414 16.5636 17.3161 14.0913 17.9559 10.9391L20.1348 0.272705H10.6866Z" fill="#DC0032"></path><path d="M27.2461 11.7288C26.1383 14.2617 25.0469 14.9372 23.4468 15.1149C21.8467 15.2927 21.9205 13.213 21.9205 13.213C21.8549 11.8621 22.5688 9.15138 23.6355 7.96934C24.7023 6.78729 25.5311 6.66286 26.4829 6.84061C27.4348 7.01837 28.3621 9.19582 27.2461 11.7288ZM27.2297 5.31196C24.5464 4.68094 22.856 7.41831 22.856 7.41831L24.2428 0.272705H22.5031L20.1645 13.0797C20.1645 13.0797 19.6065 16.5636 23.0365 16.5636C26.4583 16.5636 27.8287 14.4039 28.797 12.3242C29.7734 10.2534 29.9129 5.94297 27.2297 5.31196Z" fill="black" fill-opacity="0.9"></path><path d="M38.0663 11.0607C37.2468 13.1447 35.9513 15.1114 34.3915 14.958C32.8229 14.8046 32.2325 13.0725 32.7965 10.6276C33.3693 8.18281 35.731 6.14394 38.9387 6.59501C38.9387 6.59501 38.8859 8.9767 38.0663 11.0607ZM41.0802 5.59362C41.0802 5.59362 40.2342 4.92603 37.9429 4.92603C35.6517 4.92603 32.9463 5.99057 31.3072 9.63528C29.6681 13.271 31.3072 15.5173 32.1796 16.0225C33.052 16.5277 34.7881 17.0149 36.0571 15.815C37.3261 14.6152 37.8989 13.4694 37.8989 13.4694L37.7755 16.5187H39.5909C39.5909 16.5187 39.4675 13.3341 39.7935 11.6561C40.1108 9.99614 41.0802 5.59362 41.0802 5.59362Z" fill="black" fill-opacity="0.9"></path><path d="M50.3833 5.3601L49.7516 6.89783C49.7516 6.89783 48.0979 6.2518 46.7601 6.61576C45.4224 6.97972 43.4621 8.74493 43.2485 10.8923C43.0348 13.0397 43.5643 14.8231 45.6082 14.9414C47.652 15.0596 48.5717 14.2953 48.5717 14.2953L48.7018 15.915C48.7018 15.915 47.5498 16.5974 45.636 16.561C43.7223 16.5246 41.1024 15.8058 41.0746 12.3936C41.0467 8.9815 42.7282 6.35189 45.348 5.36919C47.9772 4.3774 50.3833 5.3601 50.3833 5.3601Z" fill="black" fill-opacity="0.9"></path><path d="M57.3779 5.59179L56.7707 6.98903C56.7707 6.98903 55.3695 6.40309 54.5288 6.52929C53.6881 6.6555 52.7914 6.96199 52.7634 8.13387C52.7353 9.30575 55.3695 10.7481 55.3695 10.7481C55.3695 10.7481 56.6306 11.8298 56.4251 13.3532C56.2102 14.8767 54.5849 16.5624 52.9222 16.5624C51.2594 16.5624 49.2324 15.8412 49.2324 15.8412L49.7555 14.3178C49.7555 14.3178 51.2875 15.075 52.4925 15.066C53.7068 15.057 54.4448 14.2186 54.3887 13.227C54.3327 12.2354 53.4172 11.6585 52.5205 11.0816C51.6237 10.5047 50.5682 9.51308 50.755 7.88146C50.9418 6.24985 53.0436 4.80753 54.9212 4.93373C56.7987 5.05994 57.3779 5.59179 57.3779 5.59179Z" fill="black" fill-opacity="0.9"></path></g><defs><clipPath id="clip0_10766_48469"><rect x="0.27832" width="57.2727" height="18" rx="3" fill="white"></rect></clipPath></defs></svg> 