<?xml version="1.0" encoding="UTF-8"?> <svg xmlns="http://www.w3.org/2000/svg" width="130" height="37" viewBox="0 0 130 37" fill="none"><g clip-path="url(#clip0_5296_27307)"><path fill-rule="evenodd" clip-rule="evenodd" d="M8.13672 18.6508C8.13672 18.895 8.33492 19.0931 8.57934 19.0931H12.9304C13.1749 19.0931 13.3731 18.895 13.3731 18.6508V16.4768H15.5486C15.793 16.4768 15.9913 16.2787 15.9913 16.0345V14.3028C15.9913 14.0585 15.793 13.8605 15.5486 13.8605H8.57934C8.33492 13.8605 8.13672 14.0585 8.13672 14.3028V18.6508ZM8.13672 9.05524C8.13672 8.811 7.93852 8.61295 7.69411 8.61295H3.343C3.09859 8.61295 2.90039 8.811 2.90039 9.05524V13.4033C2.90039 13.6475 3.09859 13.8455 3.343 13.8455H5.07594C5.32036 13.8455 5.51855 13.6475 5.51855 13.4033V11.2292H7.69411C7.93852 11.2292 8.13672 11.0312 8.13672 10.7869V9.05524ZM10.7549 24.753C10.7549 24.5087 10.5567 24.3107 10.3123 24.3107H8.57934C8.33492 24.3107 8.13672 24.5087 8.13672 24.753V26.4847C8.13672 26.7289 8.33492 26.927 8.57934 26.927H10.3123C10.5567 26.927 10.7549 26.7289 10.7549 26.4847V24.753ZM41.7303 8.61295H37.3791C37.1348 8.61295 36.9365 8.811 36.9365 9.05524V10.7869C36.9365 11.0312 37.1348 11.2292 37.3791 11.2292H39.5547V13.4033C39.5547 13.6475 39.7529 13.8455 39.9973 13.8455H41.7303C41.9747 13.8455 42.1729 13.6475 42.1729 13.4033V9.05524C42.1729 8.811 41.9747 8.61295 41.7303 8.61295ZM36.4939 13.8455H29.5246C29.2802 13.8455 29.082 14.0436 29.082 14.2879V16.0195C29.082 16.2637 29.2802 16.4618 29.5246 16.4618H31.7002V18.6358C31.7002 18.88 31.8984 19.0781 32.1428 19.0781H36.4939C36.7383 19.0781 36.9365 18.88 36.9365 18.6358V14.2879C36.9365 14.0436 36.7383 13.8455 36.4939 13.8455ZM33.8758 26.9419H31.7002V24.768C31.7002 24.5237 31.502 24.3257 31.2576 24.3257H29.082V19.5354C29.082 19.2911 28.8838 19.0931 28.6394 19.0931H26.4639V14.3028C26.4639 14.0585 26.2657 13.8605 26.0213 13.8605H19.052C18.8076 13.8605 18.6094 14.0585 18.6094 14.3028V19.0931H16.4339C16.1893 19.0931 15.9913 19.2911 15.9913 19.5354V24.3257H13.8157C13.5712 24.3257 13.3731 24.5237 13.3731 24.768V26.9419H11.1975C10.9531 26.9419 10.7549 27.14 10.7549 27.3843V29.116C10.7549 29.3602 10.9531 29.5583 11.1975 29.5583H15.5486C15.793 29.5583 15.9913 29.3602 15.9913 29.116V26.9419H18.1667C18.4112 26.9419 18.6094 26.744 18.6094 26.4997V21.7094H26.4639V26.4997C26.4639 26.744 26.6621 26.9419 26.9065 26.9419H29.082V29.116C29.082 29.3602 29.2802 29.5583 29.5246 29.5583H33.8758C34.1201 29.5583 34.3184 29.3602 34.3184 29.116V27.3843C34.3184 27.14 34.1201 26.9419 33.8758 26.9419ZM36.4939 24.3107H34.761C34.5166 24.3107 34.3184 24.5087 34.3184 24.753V26.4847C34.3184 26.7289 34.5166 26.927 34.761 26.927H36.4939C36.7383 26.927 36.9365 26.7289 36.9365 26.4847V24.753C36.9365 24.5087 36.7383 24.3107 36.4939 24.3107Z" fill="#002366"></path><path fill-rule="evenodd" clip-rule="evenodd" d="M13.8137 8.61265H31.2556C31.5 8.61265 31.6982 8.41445 31.6982 8.17004V6.43709C31.6982 6.1926 31.5 5.99448 31.2556 5.99448H29.0801V3.81892C29.0801 3.57452 28.8819 3.37631 28.6374 3.37631H26.4619V1.20076C26.4619 0.956349 26.2637 0.758148 26.0192 0.758148H19.05C18.8056 0.758148 18.6074 0.956349 18.6074 1.20076V3.37631H16.4318C16.1875 3.37631 15.9892 3.57452 15.9892 3.81892V5.99448H13.8137C13.5693 5.99448 13.3711 6.1926 13.3711 6.43709V8.17004C13.3711 8.41445 13.5693 8.61265 13.8137 8.61265Z" fill="#2BD4AB"></path><path fill-rule="evenodd" clip-rule="evenodd" d="M84.6673 13.5852C83.2899 13.5852 82.0457 14.1519 81.1703 15.0606C80.3149 14.1483 79.0966 13.5782 77.7463 13.5782C76.9887 13.5782 76.2157 13.8557 75.6195 14.2565V14.1237C75.6195 13.9321 75.4605 13.7863 75.2754 13.7863H73.3547C73.1709 13.7863 73.0106 13.9321 73.0106 14.1237V23.6926C73.0106 23.8842 73.1697 24.03 73.3547 24.03H75.2801C75.464 24.03 75.6242 23.8842 75.6242 23.6926V18.2592C75.6242 17.0884 76.575 16.1409 77.7463 16.1409C78.9186 16.1409 79.8683 17.0895 79.8683 18.2592V23.6926C79.8683 23.8842 80.0273 24.03 80.2124 24.03H82.0928C82.0975 24.03 82.1011 24.03 82.1035 24.03H82.1459C82.3296 24.03 82.4899 23.8842 82.4899 23.6926V18.2627C82.4899 17.0977 83.4608 16.1456 84.6673 16.1456C85.8738 16.1456 86.8448 17.0977 86.8448 18.2627V23.6914C86.8448 23.883 87.0038 24.0288 87.1888 24.0288H89.1211C89.3062 24.0288 89.4652 23.883 89.4652 23.6914V18.2627C89.464 15.6754 87.3125 13.5852 84.6673 13.5852ZM99.0724 18.7248C98.3389 18.2792 97.3975 18.0652 96.5767 17.8795L96.5605 17.876C95.9647 17.7408 95.4409 17.6209 95.0638 17.4446C94.6903 17.2705 94.5211 17.0707 94.5211 16.7957C94.5211 16.5582 94.6102 16.3478 94.8226 16.182C95.0404 16.0116 95.4013 15.8799 95.9584 15.847C96.9079 15.847 97.6432 15.8693 98.1409 15.8916C98.3902 15.9023 98.5801 15.914 98.7061 15.9222C98.77 15.9269 98.8177 15.9293 98.8501 15.9316C98.8663 15.9328 98.878 15.9339 98.8852 15.9339L98.8933 15.9352H98.896L98.9041 15.9364H98.9122C99.0598 15.9364 99.1939 15.9081 99.2857 15.8129C99.3667 15.7283 99.3838 15.6201 99.391 15.5672C99.391 15.5637 99.3919 15.5602 99.3919 15.5578C99.3955 15.5355 99.3982 15.519 99.4009 15.5037L99.4063 15.4838V14.3047C99.4063 14.1613 99.3964 14.0296 99.3415 13.9285C99.2731 13.8027 99.1588 13.7628 99.067 13.7428L99.058 13.7416L99.0499 13.7405H99.0463L99.0373 13.7392C99.0292 13.738 99.0175 13.7369 99.0022 13.7357C98.9698 13.7322 98.923 13.7275 98.8609 13.7217C98.734 13.7099 98.5459 13.6946 98.2912 13.6793C97.7827 13.6488 97.0096 13.6182 95.9512 13.6182H95.9476H95.944C94.5895 13.6687 93.5617 14.0448 92.8705 14.6397C92.1766 15.2357 91.8346 16.0398 91.8346 16.9097C91.8346 17.4822 91.9669 17.9512 92.2 18.3379C92.4322 18.7236 92.758 19.0163 93.1306 19.2455C93.865 19.6958 94.8046 19.9132 95.6236 20.1025L95.6407 20.106C96.2374 20.2435 96.7621 20.3658 97.1392 20.5445C97.5118 20.7208 97.6846 20.9242 97.6846 21.2075C97.6846 21.4437 97.5748 21.6542 97.3102 21.8153C97.0339 21.9821 96.5875 22.0938 95.9305 22.0938C95.1835 22.0938 94.3681 22.0139 93.7363 21.9328C93.4204 21.8928 93.1531 21.8517 92.9632 21.8211C92.8687 21.8058 92.794 21.7929 92.7427 21.7847C92.7292 21.7823 92.7166 21.78 92.7067 21.7788C92.6986 21.7776 92.6896 21.7765 92.6842 21.7753L92.6698 21.7729L92.6653 21.7717L92.6491 21.7682H92.632C92.4979 21.7682 92.371 21.7929 92.281 21.8834C92.2018 21.9621 92.1847 22.0668 92.1775 22.115C92.1766 22.1186 92.1766 22.1221 92.1766 22.1244C92.1712 22.1502 92.1676 22.1667 92.164 22.1832L92.1595 22.202L92.0857 23.5327V23.5374C92.0857 23.6244 92.0983 23.7279 92.146 23.8207C92.1937 23.9195 92.281 24.0077 92.4142 24.0417L92.4187 24.0429L92.4241 24.044L92.4295 24.0135C92.4241 24.044 92.4241 24.044 92.4241 24.044H92.425L92.4286 24.0453C92.4304 24.0465 92.4358 24.0465 92.4412 24.0476C92.452 24.05 92.4682 24.0523 92.4898 24.057C92.5321 24.0653 92.5933 24.0758 92.6743 24.0888C92.8372 24.1146 93.0739 24.1487 93.3808 24.184C93.991 24.2533 94.8721 24.3215 95.9557 24.3215H95.9647C96.0979 24.3227 97.1806 24.3309 98.2372 23.9348C98.7673 23.736 99.3019 23.4316 99.7051 22.9638C100.112 22.4923 100.375 21.8634 100.375 21.0382C100.375 20.4716 100.242 20.0061 100.008 19.6229C99.7726 19.2396 99.4459 18.9505 99.0724 18.7248ZM120.787 13.7921C119.711 13.7921 118.706 14.0943 117.862 14.6173V10.2331C117.862 10.0415 117.702 9.89566 117.517 9.89566H115.589C115.406 9.89566 115.245 10.0415 115.245 10.2331V23.6949C115.245 23.8865 115.405 24.0323 115.589 24.0323H117.517C117.702 24.0323 117.862 23.8865 117.862 23.6949V23.2471C118.658 23.8677 119.714 24.3203 120.787 24.3203C123.786 24.3203 126.228 21.9693 126.228 19.0562C126.228 16.1432 123.786 13.7921 120.787 13.7921ZM120.787 21.7788C119.232 21.7788 117.97 20.5598 117.97 19.0562C117.97 17.5527 119.231 16.3336 120.787 16.3336C122.342 16.3336 123.604 17.5527 123.604 19.0562C123.604 20.5598 122.344 21.7788 120.787 21.7788ZM112.28 13.7921H110.348C110.162 13.7921 110.003 13.9379 110.003 14.1295V19.6946C110.003 20.8431 109.035 21.7847 107.826 21.7847C107.82 21.7847 107.815 21.7847 107.81 21.7847C107.803 21.7847 107.799 21.7847 107.793 21.7847C106.584 21.7847 105.615 20.8431 105.615 19.6946V14.1295C105.615 13.9379 105.456 13.7921 105.272 13.7921H103.339C103.154 13.7921 102.995 13.9379 102.995 14.1295V19.6946C102.995 22.2549 105.149 24.3192 107.793 24.3192C107.799 24.3192 107.803 24.3192 107.81 24.3192C107.815 24.3192 107.82 24.3192 107.826 24.3192C110.469 24.3192 112.624 22.2549 112.624 19.6946V14.1295C112.624 13.9379 112.464 13.7921 112.28 13.7921ZM56.8492 18.7248C56.1152 18.2792 55.1738 18.0652 54.3537 17.8795L54.3371 17.876C53.741 17.7408 53.2178 17.6209 52.8408 17.4446C52.4673 17.2705 52.2976 17.0707 52.2976 16.7957C52.2976 16.5582 52.3872 16.3478 52.5992 16.182C52.8172 16.0116 53.1777 15.8799 53.735 15.847C54.6847 15.847 55.42 15.8693 55.9172 15.8916C56.167 15.9023 56.3567 15.914 56.4827 15.9222C56.5464 15.9269 56.5947 15.9293 56.6265 15.9316C56.643 15.9328 56.6548 15.9339 56.6618 15.9339L56.6701 15.9352H56.6724L56.6807 15.9364H56.689C56.8362 15.9364 56.9705 15.9081 57.0625 15.8129C57.1438 15.7283 57.1602 15.6201 57.1674 15.5672C57.1674 15.5637 57.1685 15.5602 57.1685 15.5578C57.172 15.5355 57.1744 15.519 57.178 15.5037L57.1827 15.4838V14.3047C57.1827 14.1613 57.1732 14.0296 57.1179 13.9285C57.0495 13.8027 56.9352 13.7628 56.8434 13.7428L56.8351 13.7416L56.8268 13.7405H56.8233L56.8138 13.7392C56.8056 13.738 56.7939 13.7369 56.7785 13.7357C56.7467 13.7322 56.6995 13.7275 56.6371 13.7217C56.5111 13.7099 56.3225 13.6946 56.068 13.6793C55.5591 13.6488 54.786 13.6182 53.728 13.6182H53.7245H53.7209C52.3659 13.6687 51.3385 14.0448 50.6469 14.6397C49.954 15.2357 49.6123 16.0398 49.6123 16.9097C49.6123 17.4822 49.7443 17.9512 49.9776 18.3379C50.2097 18.7236 50.5361 19.0163 50.9084 19.2455C51.6425 19.6958 52.5828 19.9132 53.4017 20.1025L53.4181 20.106C54.0155 20.2435 54.5398 20.3658 54.9169 20.5445C55.2892 20.7208 55.4624 20.9242 55.4624 21.2075C55.4624 21.4437 55.3528 21.6542 55.0877 21.8153C54.812 21.9821 54.3655 22.0938 53.7079 22.0938C52.9609 22.0938 52.1456 22.0139 51.5141 21.9328C51.1983 21.8928 50.9308 21.8517 50.7411 21.8211C50.6469 21.8058 50.5714 21.7929 50.5208 21.7847C50.5066 21.7823 50.4948 21.78 50.4842 21.7788C50.476 21.7776 50.4678 21.7765 50.4619 21.7753L50.4477 21.7729L50.443 21.7717L50.4265 21.7682H50.4088C50.2745 21.7682 50.1473 21.7929 50.0577 21.8834C49.9788 21.9621 49.9611 22.0668 49.954 22.115C49.9529 22.1186 49.9529 22.1221 49.9529 22.1244C49.9482 22.1502 49.9446 22.1667 49.9411 22.1832L49.9364 22.202L49.8598 23.5316V23.5362C49.8598 23.6232 49.8728 23.7267 49.9198 23.8196C49.9682 23.9183 50.0554 24.0064 50.1885 24.0405L50.1933 24.0417L50.1979 24.0429L50.2038 24.0123C50.1979 24.0429 50.1979 24.0429 50.1979 24.0429H50.1991L50.2026 24.044C50.205 24.0453 50.2097 24.0452 50.2156 24.0465C50.2262 24.0488 50.2428 24.0511 50.2639 24.0558C50.3063 24.064 50.3676 24.0746 50.4489 24.0876C50.6115 24.1134 50.8484 24.1475 51.1547 24.1828C51.765 24.2521 52.6464 24.3203 53.7303 24.3203H53.7386C53.8717 24.3215 54.9545 24.3297 56.0115 23.9336C56.5417 23.7349 57.0766 23.4304 57.4796 22.9626C57.8861 22.4912 58.1488 21.8622 58.1488 21.037C58.1488 20.4704 58.0157 20.0049 57.7824 19.6217C57.549 19.2396 57.2227 18.9505 56.8492 18.7248ZM70.0488 13.7921H68.1165C67.9314 13.7921 67.7724 13.9379 67.7724 14.1295V19.6946C67.7724 20.8431 66.8039 21.7847 65.5949 21.7847C65.5891 21.7847 65.5844 21.7847 65.5785 21.7847C65.5726 21.7847 65.5679 21.7847 65.562 21.7847C64.3531 21.7847 63.3846 20.8431 63.3846 19.6946V14.1295C63.3846 13.9379 63.2255 13.7921 63.0405 13.7921H61.1082C60.9232 13.7921 60.7641 13.9379 60.7641 14.1295V19.6946C60.7641 22.2549 62.918 24.3192 65.562 24.3192C65.5679 24.3192 65.5726 24.3192 65.5785 24.3192C65.5844 24.3192 65.5891 24.3192 65.5949 24.3192C68.2378 24.3192 70.3929 22.2549 70.3929 19.6946V14.1295C70.3929 13.9379 70.2338 13.7921 70.0488 13.7921Z" fill="#002366"></path></g><defs><clipPath id="clip0_5296_27307"><rect width="129.6" height="36" fill="white" transform="translate(0.200195 0.758148)"></rect></clipPath></defs></svg> 