<?xml version="1.0" encoding="UTF-8"?> <svg xmlns="http://www.w3.org/2000/svg" width="252" height="37" viewBox="0 0 252 37" fill="none"><g clip-path="url(#clip0_5296_27306)"><path opacity="0.986" fill-rule="evenodd" clip-rule="evenodd" d="M3.32933 0.557465C12.0598 0.557465 20.7902 0.557465 29.5206 0.557465C29.5389 2.9941 29.5206 5.43047 29.4661 7.86656C28.3565 8.97565 27.2471 10.0847 26.1376 11.1938C21.9907 11.2484 17.8438 11.2666 13.6967 11.2484C13.6967 11.9392 13.6967 12.6302 13.6967 13.3211C17.9165 13.3211 22.1361 13.3211 26.3559 13.3211C26.3741 15.7214 26.3559 18.1214 26.3013 20.5211C25.1918 21.6302 24.0823 22.7392 22.9728 23.8484C19.881 23.9029 16.7889 23.9211 13.6967 23.9029C13.6967 24.5938 13.6967 25.2848 13.6967 25.9756C18.9713 25.9756 24.246 25.9756 29.5206 25.9756C29.5389 28.376 29.5206 30.776 29.4661 33.1756C28.3345 34.2886 27.2251 35.4158 26.1376 36.5575C17.4072 36.5575 8.67672 36.5575 -0.0537109 36.5575C-0.0537109 25.6847 -0.0537109 14.812 -0.0537109 3.93928C1.11035 2.84837 2.23803 1.7211 3.32933 0.557465ZM3.87498 1.75746C12.0234 1.75746 20.1718 1.75746 28.3202 1.75746C28.3384 3.61237 28.3202 5.46692 28.2656 7.3211C27.4654 8.1211 26.665 8.9211 25.8648 9.7211C25.8102 7.90329 25.792 6.0851 25.8102 4.26656C17.6981 4.28474 9.58606 4.26656 1.47412 4.21201C2.2965 3.40818 3.0968 2.59 3.87498 1.75746ZM9.98629 11.1393C10.823 11.1393 11.6596 11.1393 12.4963 11.1393C12.4963 12.2302 12.4963 13.3211 12.4963 14.412C16.716 14.412 20.9357 14.412 25.1554 14.412C25.1736 16.2669 25.1554 18.1214 25.1009 19.9756C24.3006 20.7756 23.5002 21.5757 22.7 22.3756C22.6454 20.5579 22.6272 18.7396 22.6454 16.9211C18.4257 16.9211 14.206 16.9211 9.98629 16.9211C9.98629 14.9938 9.98629 13.0666 9.98629 11.1393ZM9.98629 23.9029C10.823 23.9029 11.6596 23.9029 12.4963 23.9029C12.4963 24.9575 12.4963 26.012 12.4963 27.0666C17.7709 27.0666 23.0456 27.0666 28.3202 27.0666C28.3384 28.9579 28.3202 30.8487 28.2656 32.7393C27.4654 33.5392 26.665 34.3393 25.8648 35.1393C25.8102 33.3215 25.792 31.5033 25.8102 29.6847C20.5356 29.6847 15.2609 29.6847 9.98629 29.6847C9.98629 27.7574 9.98629 25.8302 9.98629 23.9029Z" fill="#131B1E"></path><path opacity="0.981" fill-rule="evenodd" clip-rule="evenodd" d="M38.1416 0.557465C41.5974 0.557465 45.0531 0.557465 48.509 0.557465C48.509 9.0302 48.509 17.5029 48.509 25.9756C53.7836 25.9756 59.0583 25.9756 64.3329 25.9756C64.3511 28.376 64.3329 30.776 64.2783 33.1756C63.1468 34.2886 62.0373 35.4158 60.9499 36.5575C52.1831 36.5575 43.4162 36.5575 34.6494 36.5575C34.6312 25.721 34.6494 14.8847 34.704 4.04837C35.8719 2.89911 37.0178 1.73547 38.1416 0.557465ZM38.6872 1.75746C41.561 1.75746 44.4348 1.75746 47.3085 1.75746C47.3085 10.1938 47.3085 18.6302 47.3085 27.0666C52.5831 27.0666 57.8579 27.0666 63.1325 27.0666C63.1507 28.9214 63.1325 30.776 63.0779 32.6302C62.2776 33.4302 61.4773 34.2302 60.677 35.0302C60.6225 33.2487 60.6042 31.467 60.6225 29.6847C55.3479 29.6847 50.0731 29.6847 44.7985 29.6847C44.7985 21.212 44.7985 12.7393 44.7985 4.26656C41.9609 4.28473 39.1235 4.26656 36.2864 4.21201C37.1088 3.40818 37.909 2.59 38.6872 1.75746Z" fill="#131B1E"></path><path opacity="0.98" fill-rule="evenodd" clip-rule="evenodd" d="M72.9541 0.557465C76.4099 0.557465 79.8656 0.557465 83.3215 0.557465C83.3215 9.0302 83.3215 17.5029 83.3215 25.9756C88.5961 25.9756 93.8708 25.9756 99.1454 25.9756C99.1636 28.376 99.1454 30.776 99.0908 33.1756C97.9593 34.2886 96.8498 35.4158 95.7624 36.5575C86.9956 36.5575 78.2287 36.5575 69.4619 36.5575C69.4437 25.721 69.4619 14.8847 69.5165 4.04837C70.6844 2.89911 71.8303 1.73547 72.9541 0.557465ZM73.4997 1.75746C76.3735 1.75746 79.2473 1.75746 82.121 1.75746C82.121 10.1938 82.121 18.6302 82.121 27.0666C87.3956 27.0666 92.6704 27.0666 97.945 27.0666C97.9632 28.9214 97.945 30.776 97.8904 32.6302C97.0901 33.4302 96.2898 34.2302 95.4895 35.0302C95.435 33.2487 95.4167 31.467 95.435 29.6847C90.1604 29.6847 84.8856 29.6847 79.611 29.6847C79.611 21.212 79.611 12.7393 79.611 4.26656C76.7734 4.28473 73.936 4.26656 71.0989 4.21201C71.9213 3.40818 72.7215 2.59 73.4997 1.75746Z" fill="#131B1E"></path><path opacity="0.978" fill-rule="evenodd" clip-rule="evenodd" d="M107.767 0.557465C111.223 0.557465 114.678 0.557465 118.134 0.557465C118.153 11.4303 118.134 22.303 118.079 33.1756C116.948 34.2886 115.838 35.4158 114.751 36.5575C111.259 36.5575 107.767 36.5575 104.274 36.5575C104.256 25.721 104.274 14.8847 104.329 4.04837C105.497 2.89911 106.643 1.73547 107.767 0.557465ZM108.312 1.75746C111.186 1.75746 114.06 1.75746 116.934 1.75746C116.952 12.0484 116.934 22.3393 116.879 32.6302C116.079 33.4302 115.278 34.2302 114.478 35.0302C114.424 24.7758 114.405 14.5212 114.424 4.26656C111.586 4.28473 108.749 4.26656 105.911 4.21201C106.734 3.40818 107.534 2.59 108.312 1.75746Z" fill="#131B1E"></path><path opacity="0.978" fill-rule="evenodd" clip-rule="evenodd" d="M126.755 0.557465C136.541 0.557465 146.325 0.557465 156.111 0.557465C156.13 7.21211 156.111 13.8667 156.057 20.5211C154.947 21.6302 153.838 22.7392 152.728 23.8484C147.526 23.9029 142.325 23.9211 137.122 23.9029C137.141 26.994 137.122 30.085 137.068 33.1756C135.936 34.2886 134.826 35.4158 133.739 36.5575C130.247 36.5575 126.755 36.5575 123.263 36.5575C123.244 25.721 123.263 14.8847 123.317 4.04837C124.485 2.89911 125.631 1.73547 126.755 0.557465ZM127.301 1.75746C136.504 1.75746 145.708 1.75746 154.911 1.75746C154.929 7.8303 154.911 13.903 154.856 19.9756C154.056 20.7756 153.255 21.5757 152.455 22.3756C152.401 16.3394 152.382 10.303 152.401 4.26656C143.234 4.28474 134.067 4.26656 124.9 4.21201C125.723 3.40818 126.523 2.59 127.301 1.75746ZM133.412 10.7029C134.249 10.7029 135.085 10.7029 135.922 10.7029C135.922 11.9392 135.922 13.1757 135.922 14.412C139.269 14.412 142.615 14.412 145.962 14.412C145.962 15.2484 145.962 16.0847 145.962 16.9211C141.779 16.9211 137.595 16.9211 133.412 16.9211C133.412 14.8484 133.412 12.7756 133.412 10.7029ZM137.122 10.7029C140.069 10.7029 143.015 10.7029 145.962 10.7029C145.962 11.5756 145.962 12.4484 145.962 13.3211C143.015 13.3211 140.069 13.3211 137.122 13.3211C137.122 12.4484 137.122 11.5756 137.122 10.7029ZM133.412 23.7938C134.249 23.7938 135.085 23.7938 135.922 23.7938C135.941 26.7395 135.922 29.685 135.867 32.6302C135.067 33.4302 134.266 34.2302 133.467 35.0302C133.412 31.2849 133.393 27.5395 133.412 23.7938Z" fill="#131B1E"></path><path opacity="0.976" fill-rule="evenodd" clip-rule="evenodd" d="M164.733 0.557465C175.572 0.557465 186.413 0.557465 197.253 0.557465C197.272 2.95774 197.253 5.35774 197.199 7.75746C196.053 8.90292 194.907 10.0484 193.761 11.1938C190.706 11.2484 187.65 11.2665 184.594 11.2484C184.613 18.5576 184.594 25.8667 184.54 33.1756C183.408 34.2886 182.298 35.4158 181.211 36.5575C177.719 36.5575 174.227 36.5575 170.735 36.5575C170.735 28.1211 170.735 19.6847 170.735 11.2484C167.57 11.2484 164.405 11.2484 161.24 11.2484C161.222 8.8481 161.24 6.4481 161.295 4.04837C162.463 2.89911 163.609 1.73547 164.733 0.557465ZM165.169 1.75746C175.463 1.75746 185.759 1.75746 196.053 1.75746C196.072 3.61237 196.053 5.46692 195.998 7.3211C195.198 8.1211 194.397 8.9211 193.598 9.7211C193.543 7.90329 193.524 6.0851 193.543 4.26656C183.285 4.28474 173.026 4.26656 162.768 4.21201C163.591 3.40818 164.391 2.59 165.169 1.75746ZM180.884 11.2484C181.721 11.2484 182.557 11.2484 183.394 11.2484C183.412 18.3757 183.394 25.5031 183.339 32.6302C182.539 33.4302 181.738 34.2302 180.938 35.0302C180.884 27.103 180.865 19.1757 180.884 11.2484Z" fill="#131B1E"></path><path opacity="0.978" fill-rule="evenodd" clip-rule="evenodd" d="M205.875 0.557465C209.331 0.557465 212.786 0.557465 216.243 0.557465C216.261 11.4303 216.243 22.303 216.188 33.1756C215.056 34.2886 213.946 35.4158 212.859 36.5575C209.367 36.5575 205.875 36.5575 202.383 36.5575C202.364 25.721 202.383 14.8847 202.438 4.04837C203.605 2.89911 204.751 1.73547 205.875 0.557465ZM206.312 1.75746C209.222 1.75746 212.132 1.75746 215.042 1.75746C215.061 12.0484 215.042 22.3393 214.988 32.6302C214.188 33.4302 213.387 34.2302 212.587 35.0302C212.532 24.7758 212.514 14.5212 212.532 4.26656C209.658 4.28473 206.784 4.26656 203.911 4.21201C204.734 3.40818 205.534 2.59 206.312 1.75746Z" fill="#131B1E"></path><path opacity="0.983" fill-rule="evenodd" clip-rule="evenodd" d="M224.863 0.557465C233.558 0.557465 242.251 0.557465 250.946 0.557465C250.946 2.99382 250.946 5.4302 250.946 7.86656C249.803 8.95359 248.676 10.0627 247.563 11.1938C243.452 11.2484 239.342 11.2666 235.231 11.2484C235.231 16.1575 235.231 21.0666 235.231 25.9756C240.469 25.9756 245.707 25.9756 250.946 25.9756C250.946 28.412 250.946 30.8484 250.946 33.2847C249.818 34.3393 248.727 35.4302 247.672 36.5575C238.905 36.5575 230.138 36.5575 221.371 36.5575C221.353 25.721 221.371 14.8847 221.426 4.04837C222.593 2.89911 223.739 1.73547 224.863 0.557465ZM225.3 1.75746C233.485 1.75746 241.669 1.75746 249.854 1.75746C249.873 3.61237 249.854 5.46692 249.8 7.3211C249 8.1211 248.199 8.9211 247.399 9.7211C247.344 7.90329 247.326 6.0851 247.344 4.26656C239.196 4.28474 231.048 4.26656 222.899 4.21201C223.722 3.40818 224.522 2.59 225.3 1.75746ZM231.52 11.2484C232.357 11.2484 233.193 11.2484 234.03 11.2484C234.03 16.5211 234.03 21.7939 234.03 27.0666C239.305 27.0666 244.58 27.0666 249.854 27.0666C249.873 28.9214 249.854 30.776 249.8 32.6302C249 33.4302 248.199 34.2302 247.399 35.0302C247.344 33.2487 247.326 31.467 247.344 29.6847C242.07 29.6847 236.795 29.6847 231.52 29.6847C231.52 23.5393 231.52 17.3938 231.52 11.2484Z" fill="#131B1E"></path></g><defs><clipPath id="clip0_5296_27306"><rect width="250.909" height="36" fill="white" transform="translate(0.545898 0.879089)"></rect></clipPath></defs></svg> 