<?xml version="1.0" encoding="UTF-8"?> <svg xmlns="http://www.w3.org/2000/svg" width="114" height="22" viewBox="0 0 114 22" fill="none"><path fill-rule="evenodd" clip-rule="evenodd" d="M4.83204 2.79167C4.83204 1.24987 6.08191 0 7.6237 0H12.7897C14.1704 0 15.2897 1.11929 15.2897 2.5C15.2897 3.05228 15.7374 3.5 16.2897 3.5H16.8791C18.4639 3.5 19.8578 4.72999 19.7932 6.41561C19.7104 8.57667 19.2907 12.0431 17.6074 15.1108C17.1511 15.9423 16.5417 16.7592 15.8829 17.5203L15.8333 17.5776C14.8857 18.6726 14.0955 19.5856 13.246 20.2079C12.3324 20.8773 11.3572 21.2107 10.0609 21.2107C8.76458 21.2107 7.7894 20.8773 6.87571 20.2079C6.02624 19.5856 5.23608 18.6726 4.28841 17.5776L4.23882 17.5203C3.58006 16.7592 2.97066 15.9423 2.51437 15.1108C0.885218 12.1418 0.438565 9.00749 0.337042 6.99648C0.251534 5.30273 1.65545 4.08333 3.23151 4.08333H3.54037C4.25374 4.08333 4.83204 3.50503 4.83204 2.79167ZM13.6448 9.22057C13.9047 8.89804 13.8539 8.42589 13.5314 8.166C13.2088 7.90611 12.7367 7.95689 12.4768 8.27943L10.4553 10.7882C10.0402 11.3033 9.77832 11.6255 9.56035 11.8291C9.45792 11.9247 9.3925 11.9673 9.3549 11.9861C9.3269 12.0001 9.3169 12 9.31153 12H9.31008C9.30471 12 9.29471 12.0001 9.26672 11.9861C9.22912 11.9673 9.16369 11.9247 9.06126 11.8291C8.84329 11.6255 8.58139 11.3033 8.16631 10.7882L7.64481 10.141C7.38492 9.81846 6.91277 9.76768 6.59023 10.0276C6.2677 10.2875 6.21691 10.7596 6.4768 11.0821L7.03087 11.7698C7.40338 12.2322 7.73203 12.6401 8.03745 12.9253C8.36537 13.2316 8.77307 13.5 9.31081 13.5C9.84854 13.5 10.2562 13.2316 10.5842 12.9253C10.8896 12.6401 11.2182 12.2322 11.5907 11.7698L13.6448 9.22057Z" fill="#0666EB"></path><path d="M31.2407 7.75L29.2607 0.75H30.4707L31.9407 6.22L33.5307 0.75H34.5907L36.1707 6.22L37.6407 0.75H38.8507L36.8707 7.75H35.5407L34.0607 2.64L32.5707 7.75H31.2407Z" fill="#474A52"></path><path d="M41.4453 7.88C40.7119 7.88 40.0886 7.62667 39.5753 7.12C39.0619 6.61333 38.8053 5.99 38.8053 5.25C38.8053 4.51 39.0619 3.88667 39.5753 3.38C40.0886 2.87333 40.7119 2.62 41.4453 2.62C42.1853 2.62 42.8086 2.87333 43.3153 3.38C43.8286 3.88667 44.0853 4.51 44.0853 5.25C44.0853 5.99 43.8286 6.61333 43.3153 7.12C42.8086 7.62667 42.1853 7.88 41.4453 7.88ZM40.3353 6.38C40.6353 6.68 41.0053 6.83 41.4453 6.83C41.8853 6.83 42.2553 6.68 42.5553 6.38C42.8553 6.08 43.0053 5.70333 43.0053 5.25C43.0053 4.79667 42.8553 4.42 42.5553 4.12C42.2553 3.82 41.8853 3.67 41.4453 3.67C41.0053 3.67 40.6353 3.82 40.3353 4.12C40.0353 4.42 39.8853 4.79667 39.8853 5.25C39.8853 5.70333 40.0353 6.08 40.3353 6.38Z" fill="#474A52"></path><path d="M46.1418 3.59C46.4152 2.97 46.9285 2.66 47.6818 2.66V3.83C47.2685 3.80333 46.9085 3.90333 46.6018 4.13C46.2952 4.35 46.1418 4.71667 46.1418 5.23V7.75H45.0618V2.75H46.1418V3.59Z" fill="#474A52"></path><path d="M48.4798 7.75V0.45H49.5598V7.75H48.4798Z" fill="#474A52"></path><path d="M54.7738 0.75H55.8538V7.75H54.7738V7.03C54.3671 7.59667 53.7838 7.88 53.0238 7.88C52.3371 7.88 51.7504 7.62667 51.2638 7.12C50.7771 6.60667 50.5338 5.98333 50.5338 5.25C50.5338 4.51 50.7771 3.88667 51.2638 3.38C51.7504 2.87333 52.3371 2.62 53.0238 2.62C53.7838 2.62 54.3671 2.9 54.7738 3.46V0.75ZM52.0638 6.4C52.3638 6.7 52.7404 6.85 53.1938 6.85C53.6471 6.85 54.0238 6.7 54.3238 6.4C54.6238 6.09333 54.7738 5.71 54.7738 5.25C54.7738 4.79 54.6238 4.41 54.3238 4.11C54.0238 3.80333 53.6471 3.65 53.1938 3.65C52.7404 3.65 52.3638 3.80333 52.0638 4.11C51.7638 4.41 51.6138 4.79 51.6138 5.25C51.6138 5.71 51.7638 6.09333 52.0638 6.4Z" fill="#474A52"></path><path d="M57.1826 5.23V4.19H60.8826V5.23H57.1826Z" fill="#474A52"></path><path d="M65.5903 7.88C64.5369 7.88 63.6636 7.53333 62.9703 6.84C62.2769 6.14 61.9303 5.27667 61.9303 4.25C61.9303 3.22333 62.2769 2.36333 62.9703 1.67C63.6636 0.969999 64.5369 0.619999 65.5903 0.619999C66.2236 0.619999 66.8069 0.769999 67.3403 1.07C67.8803 1.37 68.3003 1.77667 68.6003 2.29L67.6003 2.87C67.4136 2.52333 67.1403 2.25 66.7803 2.05C66.4269 1.84333 66.0303 1.74 65.5903 1.74C64.8436 1.74 64.2369 1.97667 63.7703 2.45C63.3103 2.92333 63.0803 3.52333 63.0803 4.25C63.0803 4.97667 63.3103 5.57667 63.7703 6.05C64.2369 6.52333 64.8436 6.76 65.5903 6.76C66.0303 6.76 66.4303 6.66 66.7903 6.46C67.1503 6.25333 67.4203 5.97667 67.6003 5.63L68.6003 6.2C68.3069 6.71333 67.8903 7.12333 67.3503 7.43C66.8169 7.73 66.2303 7.88 65.5903 7.88Z" fill="#474A52"></path><path d="M69.5345 7.75V0.45H70.6145V7.75H69.5345Z" fill="#474A52"></path><path d="M75.8285 2.75H76.9085V7.75H75.8285V7.03C75.4218 7.59667 74.8385 7.88 74.0785 7.88C73.3918 7.88 72.8051 7.62667 72.3185 7.12C71.8318 6.60667 71.5885 5.98333 71.5885 5.25C71.5885 4.51 71.8318 3.88667 72.3185 3.38C72.8051 2.87333 73.3918 2.62 74.0785 2.62C74.8385 2.62 75.4218 2.9 75.8285 3.46V2.75ZM73.1185 6.4C73.4185 6.7 73.7951 6.85 74.2485 6.85C74.7018 6.85 75.0785 6.7 75.3785 6.4C75.6785 6.09333 75.8285 5.71 75.8285 5.25C75.8285 4.79 75.6785 4.41 75.3785 4.11C75.0785 3.80333 74.7018 3.65 74.2485 3.65C73.7951 3.65 73.4185 3.80333 73.1185 4.11C72.8185 4.41 72.6685 4.79 72.6685 5.25C72.6685 5.71 72.8185 6.09333 73.1185 6.4Z" fill="#474A52"></path><path d="M79.108 4.13C79.108 4.29667 79.198 4.43 79.378 4.53C79.5647 4.62333 79.788 4.70667 80.048 4.78C80.3147 4.84667 80.5813 4.92667 80.848 5.02C81.1147 5.11333 81.338 5.27333 81.518 5.5C81.7047 5.72 81.798 6 81.798 6.34C81.798 6.82 81.6113 7.19667 81.238 7.47C80.8713 7.74333 80.408 7.88 79.848 7.88C79.3547 7.88 78.9313 7.77667 78.578 7.57C78.2247 7.36333 77.968 7.07667 77.808 6.71L78.738 6.17C78.9113 6.65 79.2813 6.89 79.848 6.89C80.4147 6.89 80.698 6.70333 80.698 6.33C80.698 6.17 80.6047 6.04 80.418 5.94C80.238 5.84 80.0147 5.75667 79.748 5.69C79.488 5.61667 79.2247 5.53333 78.958 5.44C78.6913 5.34667 78.4647 5.19333 78.278 4.98C78.098 4.76 78.008 4.48333 78.008 4.15C78.008 3.69 78.1813 3.32 78.528 3.04C78.8813 2.76 79.318 2.62 79.838 2.62C80.2513 2.62 80.618 2.71333 80.938 2.9C81.2647 3.08 81.5147 3.33333 81.688 3.66L80.778 4.17C80.6047 3.79 80.2913 3.6 79.838 3.6C79.6313 3.6 79.458 3.64667 79.318 3.74C79.178 3.82667 79.108 3.95667 79.108 4.13Z" fill="#474A52"></path><path d="M83.4146 4.13C83.4146 4.29667 83.5046 4.43 83.6846 4.53C83.8713 4.62333 84.0946 4.70667 84.3546 4.78C84.6213 4.84667 84.888 4.92667 85.1546 5.02C85.4213 5.11333 85.6446 5.27333 85.8246 5.5C86.0113 5.72 86.1046 6 86.1046 6.34C86.1046 6.82 85.918 7.19667 85.5446 7.47C85.178 7.74333 84.7146 7.88 84.1546 7.88C83.6613 7.88 83.238 7.77667 82.8846 7.57C82.5313 7.36333 82.2746 7.07667 82.1146 6.71L83.0446 6.17C83.218 6.65 83.588 6.89 84.1546 6.89C84.7213 6.89 85.0046 6.70333 85.0046 6.33C85.0046 6.17 84.9113 6.04 84.7246 5.94C84.5446 5.84 84.3213 5.75667 84.0546 5.69C83.7946 5.61667 83.5313 5.53333 83.2646 5.44C82.998 5.34667 82.7713 5.19333 82.5846 4.98C82.4046 4.76 82.3146 4.48333 82.3146 4.15C82.3146 3.69 82.488 3.32 82.8346 3.04C83.188 2.76 83.6246 2.62 84.1446 2.62C84.558 2.62 84.9246 2.71333 85.2446 2.9C85.5713 3.08 85.8213 3.33333 85.9946 3.66L85.0846 4.17C84.9113 3.79 84.598 3.6 84.1446 3.6C83.938 3.6 83.7646 3.64667 83.6246 3.74C83.4846 3.82667 83.4146 3.95667 83.4146 4.13Z" fill="#474A52"></path><path d="M34.3207 19.75L33.8307 18.34H30.8507L30.3607 19.75H29.1107L31.6507 12.75H33.0307L35.5607 19.75H34.3207ZM31.2307 17.26H33.4507L32.3407 14.1L31.2307 17.26Z" fill="#474A52"></path><path d="M38.8735 14.62C39.4468 14.62 39.9101 14.8033 40.2635 15.17C40.6168 15.5367 40.7935 16.04 40.7935 16.68V19.75H39.7135V16.79C39.7135 16.4167 39.6135 16.13 39.4135 15.93C39.2135 15.73 38.9401 15.63 38.5935 15.63C38.2135 15.63 37.9068 15.75 37.6735 15.99C37.4401 16.2233 37.3235 16.5833 37.3235 17.07V19.75H36.2435V14.75H37.3235V15.39C37.6501 14.8767 38.1668 14.62 38.8735 14.62Z" fill="#474A52"></path><path d="M44.7463 15.79H43.5064V18.19C43.5064 18.3967 43.553 18.5467 43.6464 18.64C43.7397 18.7267 43.8764 18.7767 44.0564 18.79C44.243 18.7967 44.473 18.7933 44.7463 18.78V19.75C43.9197 19.85 43.3264 19.78 42.9664 19.54C42.6064 19.2933 42.4263 18.8433 42.4263 18.19V15.79H41.5064V14.75H42.4263V13.67L43.5064 13.35V14.75H44.7463V15.79Z" fill="#474A52"></path><path d="M46.7459 13.8C46.6125 13.9333 46.4525 14 46.2659 14C46.0792 14 45.9159 13.9333 45.7759 13.8C45.6425 13.66 45.5759 13.4967 45.5759 13.31C45.5759 13.1233 45.6425 12.9633 45.7759 12.83C45.9092 12.69 46.0725 12.62 46.2659 12.62C46.4592 12.62 46.6225 12.69 46.7559 12.83C46.8892 12.9633 46.9559 13.1233 46.9559 13.31C46.9559 13.4967 46.8859 13.66 46.7459 13.8ZM45.7259 19.75V14.75H46.8059V19.75H45.7259Z" fill="#474A52"></path><path d="M48.1299 17.23V16.19H51.8299V17.23H48.1299Z" fill="#474A52"></path><path d="M57.3275 13.85H54.3775V15.81H57.2275V16.91H54.3775V19.75H53.2275V12.75H57.3275V13.85Z" fill="#474A52"></path><path d="M59.4133 15.59C59.6866 14.97 60.2 14.66 60.9533 14.66V15.83C60.54 15.8033 60.18 15.9033 59.8733 16.13C59.5666 16.35 59.4133 16.7167 59.4133 17.23V19.75H58.3333V14.75H59.4133V15.59Z" fill="#474A52"></path><path d="M65.4769 14.75H66.5569V19.75H65.4769V19.03C65.0702 19.5967 64.4869 19.88 63.7269 19.88C63.0402 19.88 62.4536 19.6267 61.9669 19.12C61.4802 18.6067 61.2369 17.9833 61.2369 17.25C61.2369 16.51 61.4802 15.8867 61.9669 15.38C62.4536 14.8733 63.0402 14.62 63.7269 14.62C64.4869 14.62 65.0702 14.9 65.4769 15.46V14.75ZM62.7669 18.4C63.0669 18.7 63.4436 18.85 63.8969 18.85C64.3502 18.85 64.7269 18.7 65.0269 18.4C65.3269 18.0933 65.4769 17.71 65.4769 17.25C65.4769 16.79 65.3269 16.41 65.0269 16.11C64.7269 15.8033 64.3502 15.65 63.8969 15.65C63.4436 15.65 63.0669 15.8033 62.7669 16.11C62.4669 16.41 62.3169 16.79 62.3169 17.25C62.3169 17.71 62.4669 18.0933 62.7669 18.4Z" fill="#474A52"></path><path d="M71.1857 14.75H72.2657V19.75H71.1857V19.11C70.8591 19.6233 70.3424 19.88 69.6357 19.88C69.0624 19.88 68.5991 19.6967 68.2457 19.33C67.8924 18.9633 67.7157 18.46 67.7157 17.82V14.75H68.7957V17.71C68.7957 18.0833 68.8957 18.37 69.0957 18.57C69.2957 18.77 69.5691 18.87 69.9157 18.87C70.2957 18.87 70.6024 18.7533 70.8357 18.52C71.0691 18.28 71.1857 17.9167 71.1857 17.43V14.75Z" fill="#474A52"></path><path d="M77.4886 12.75H78.5686V19.75H77.4886V19.03C77.082 19.5967 76.4986 19.88 75.7386 19.88C75.052 19.88 74.4653 19.6267 73.9786 19.12C73.4919 18.6067 73.2486 17.9833 73.2486 17.25C73.2486 16.51 73.4919 15.8867 73.9786 15.38C74.4653 14.8733 75.052 14.62 75.7386 14.62C76.4986 14.62 77.082 14.9 77.4886 15.46V12.75ZM74.7786 18.4C75.0786 18.7 75.4553 18.85 75.9086 18.85C76.3619 18.85 76.7386 18.7 77.0386 18.4C77.3386 18.0933 77.4886 17.71 77.4886 17.25C77.4886 16.79 77.3386 16.41 77.0386 16.11C76.7386 15.8033 76.3619 15.65 75.9086 15.65C75.4553 15.65 75.0786 15.8033 74.7786 16.11C74.4786 16.41 74.3286 16.79 74.3286 17.25C74.3286 17.71 74.4786 18.0933 74.7786 18.4Z" fill="#474A52"></path><path d="M84.7274 19.88C84.0541 19.88 83.4808 19.7267 83.0074 19.42C82.5408 19.1133 82.2141 18.6933 82.0274 18.16L83.0174 17.58C83.2974 18.3667 83.8774 18.76 84.7574 18.76C85.1908 18.76 85.5141 18.6767 85.7274 18.51C85.9474 18.3367 86.0574 18.1133 86.0574 17.84C86.0574 17.5533 85.9408 17.3367 85.7074 17.19C85.4741 17.0367 85.0608 16.87 84.4674 16.69C84.1341 16.59 83.8641 16.4967 83.6574 16.41C83.4508 16.3233 83.2308 16.2033 82.9974 16.05C82.7708 15.89 82.6008 15.6933 82.4874 15.46C82.3741 15.2267 82.3174 14.9533 82.3174 14.64C82.3174 14.02 82.5374 13.53 82.9774 13.17C83.4174 12.8033 83.9474 12.62 84.5674 12.62C85.1274 12.62 85.6174 12.7567 86.0374 13.03C86.4574 13.3033 86.7808 13.68 87.0074 14.16L86.0374 14.72C85.7441 14.0667 85.2541 13.74 84.5674 13.74C84.2341 13.74 83.9674 13.82 83.7674 13.98C83.5674 14.1333 83.4674 14.3433 83.4674 14.61C83.4674 14.87 83.5674 15.0767 83.7674 15.23C83.9741 15.3767 84.3441 15.5333 84.8774 15.7C85.1441 15.7867 85.3374 15.8533 85.4574 15.9C85.5841 15.94 85.7574 16.0067 85.9774 16.1C86.2041 16.1933 86.3741 16.2867 86.4874 16.38C86.6008 16.4733 86.7208 16.59 86.8474 16.73C86.9808 16.87 87.0741 17.03 87.1274 17.21C87.1808 17.39 87.2074 17.5933 87.2074 17.82C87.2074 18.4533 86.9774 18.9567 86.5174 19.33C86.0641 19.6967 85.4674 19.88 84.7274 19.88Z" fill="#474A52"></path><path d="M91.3127 14.75H92.4627L90.5427 19.91C90.0627 21.2033 89.2493 21.8167 88.1027 21.75V20.74C88.4427 20.76 88.716 20.6867 88.9227 20.52C89.1293 20.36 89.2993 20.1067 89.4327 19.76L89.4827 19.66L87.3627 14.75H88.5427L90.0327 18.38L91.3127 14.75Z" fill="#474A52"></path><path d="M93.8053 16.13C93.8053 16.2967 93.8953 16.43 94.0753 16.53C94.2619 16.6233 94.4853 16.7067 94.7453 16.78C95.0119 16.8467 95.2786 16.9267 95.5453 17.02C95.8119 17.1133 96.0353 17.2733 96.2153 17.5C96.4019 17.72 96.4953 18 96.4953 18.34C96.4953 18.82 96.3086 19.1967 95.9353 19.47C95.5686 19.7433 95.1053 19.88 94.5453 19.88C94.0519 19.88 93.6286 19.7767 93.2753 19.57C92.9219 19.3633 92.6653 19.0767 92.5053 18.71L93.4353 18.17C93.6086 18.65 93.9786 18.89 94.5453 18.89C95.1119 18.89 95.3953 18.7033 95.3953 18.33C95.3953 18.17 95.3019 18.04 95.1153 17.94C94.9353 17.84 94.7119 17.7567 94.4453 17.69C94.1853 17.6167 93.9219 17.5333 93.6553 17.44C93.3886 17.3467 93.1619 17.1933 92.9753 16.98C92.7953 16.76 92.7053 16.4833 92.7053 16.15C92.7053 15.69 92.8786 15.32 93.2253 15.04C93.5786 14.76 94.0153 14.62 94.5353 14.62C94.9486 14.62 95.3153 14.7133 95.6353 14.9C95.9619 15.08 96.2119 15.3333 96.3853 15.66L95.4753 16.17C95.3019 15.79 94.9886 15.6 94.5353 15.6C94.3286 15.6 94.1553 15.6467 94.0153 15.74C93.8753 15.8267 93.8053 15.9567 93.8053 16.13Z" fill="#474A52"></path><path d="M100.039 15.79H98.7993V18.19C98.7993 18.3967 98.846 18.5467 98.9393 18.64C99.0326 18.7267 99.1693 18.7767 99.3493 18.79C99.536 18.7967 99.766 18.7933 100.039 18.78V19.75C99.2127 19.85 98.6193 19.78 98.2593 19.54C97.8993 19.2933 97.7193 18.8433 97.7193 18.19V15.79H96.7993V14.75H97.7193V13.67L98.7993 13.35V14.75H100.039V15.79Z" fill="#474A52"></path><path d="M101.664 17.71C101.744 18.09 101.927 18.3833 102.214 18.59C102.5 18.79 102.85 18.89 103.264 18.89C103.837 18.89 104.267 18.6833 104.554 18.27L105.444 18.79C104.95 19.5167 104.22 19.88 103.254 19.88C102.44 19.88 101.784 19.6333 101.284 19.14C100.784 18.64 100.534 18.01 100.534 17.25C100.534 16.5033 100.78 15.88 101.274 15.38C101.767 14.8733 102.4 14.62 103.174 14.62C103.907 14.62 104.507 14.8767 104.974 15.39C105.447 15.9033 105.684 16.5267 105.684 17.26C105.684 17.3733 105.67 17.5233 105.644 17.71H101.664ZM101.654 16.83H104.594C104.52 16.4233 104.35 16.1167 104.084 15.91C103.824 15.7033 103.517 15.6 103.164 15.6C102.764 15.6 102.43 15.71 102.164 15.93C101.897 16.15 101.727 16.45 101.654 16.83Z" fill="#474A52"></path><path d="M112.094 14.62C112.661 14.62 113.117 14.8033 113.464 15.17C113.811 15.5367 113.984 16.03 113.984 16.65V19.75H112.904V16.72C112.904 16.3733 112.817 16.1067 112.644 15.92C112.471 15.7267 112.234 15.63 111.934 15.63C111.601 15.63 111.334 15.74 111.134 15.96C110.941 16.18 110.844 16.51 110.844 16.95V19.75H109.764V16.72C109.764 16.3733 109.681 16.1067 109.514 15.92C109.354 15.7267 109.124 15.63 108.824 15.63C108.497 15.63 108.231 15.7433 108.024 15.97C107.817 16.19 107.714 16.5167 107.714 16.95V19.75H106.634V14.75H107.714V15.35C108.034 14.8633 108.511 14.62 109.144 14.62C109.784 14.62 110.257 14.8833 110.564 15.41C110.897 14.8833 111.407 14.62 112.094 14.62Z" fill="#474A52"></path></svg> 