<?xml version="1.0" encoding="UTF-8"?> <svg xmlns="http://www.w3.org/2000/svg" width="126" height="28" viewBox="0 0 126 28" fill="none"><path d="M124.25 24.114V24.2023C124.241 26.1425 122.657 27.7087 120.717 27.6999C118.777 27.6911 117.208 26.1072 117.22 24.167C117.228 22.2239 118.812 20.6606 120.752 20.6695H120.782C122.69 20.6636 124.244 22.2063 124.25 24.114Z" fill="#010B19"></path><path d="M104.432 22.778C101.753 22.9635 99.4301 20.9439 99.2417 18.2647C99.0562 15.5856 101.076 13.2628 103.758 13.0744C103.861 13.0685 103.967 13.0626 104.073 13.0626C106.752 12.8771 109.078 14.8967 109.263 17.5758C109.449 20.2549 107.429 22.5808 104.75 22.7662C104.644 22.7751 104.538 22.778 104.432 22.778ZM109.307 8.55226V9.76228C104.8 6.70339 98.6676 7.87807 95.6087 12.3854C92.5498 16.8928 93.7245 23.0253 98.2319 26.0842C101.576 28.3541 105.966 28.3541 109.307 26.0842V27.2942H114.869V8.54932L109.307 8.55226Z" fill="#010B19"></path><path d="M92.0332 15.3493V27.2227H86.4718V17.3424C86.4718 14.628 85.0645 13.156 82.6445 13.156C82.4502 13.1236 82.25 13.1236 82.0557 13.156C79.8948 13.3532 78.2932 15.2492 78.4581 17.4101V27.2551H72.8643V8.51025H78.3933V10.6359C79.7534 8.87237 81.8938 7.89199 84.1166 8.01859C84.2814 8.01859 84.4757 7.9862 84.6406 7.9862C88.7152 7.98032 92.0243 11.2747 92.0332 15.3493Z" fill="#010B19"></path><path d="M70.2774 8.57384V14.0027H70.2126C68.0222 14.0027 64.8485 15.6043 64.8485 18.5484V27.3158H59.1547V8.57384H64.8132V11.0263C66.1763 9.43351 68.1812 8.53557 70.2774 8.57384Z" fill="#010B19"></path><path d="M45.8037 22.7391C43.1187 22.7509 40.9313 20.584 40.9195 17.8961C40.9077 15.2082 43.0775 13.0237 45.7625 13.0119C48.4475 13.0001 50.6349 15.1699 50.6467 17.8549V17.8637C50.5584 20.5075 48.4445 22.636 45.8037 22.7391ZM50.6791 8.5104V9.72041C49.0628 8.60166 47.1491 7.99813 45.1825 7.98635C39.7271 8.08056 35.3787 12.5791 35.4759 18.0345C35.5672 23.3573 39.8596 27.6527 45.1825 27.744C47.1462 27.744 49.0598 27.1522 50.6791 26.0423V27.2523H56.2404V8.50745L50.6791 8.5104Z" fill="#010B19"></path><path d="M33.1601 0.214958H27.3366V27.3004H33.1601V0.214958Z" fill="#010B19"></path><path d="M7.90013 0.214958H1.75V27.3004H7.90013V0.214958Z" fill="#010B19"></path><path d="M25.4958 27.3003H17.8647L8.64097 14.576L11.0286 12.7772C14.9648 9.80368 17.27 5.1491 17.2435 0.214844H23.2612C23.2936 5.9705 21.0355 11.5024 16.9815 15.5888L25.4958 27.3003Z" fill="#010B19"></path></svg> 