<svg width="556" height="85" viewBox="0 0 556 85" fill="none" xmlns="http://www.w3.org/2000/svg">
<path d="M100.242 76V7.63635H126.413C131.353 7.63635 135.459 8.41523 138.73 9.973C142.024 11.5085 144.483 13.6115 146.107 16.2819C147.754 18.9524 148.577 21.9789 148.577 25.3615C148.577 28.1432 148.043 30.5244 146.975 32.505C145.907 34.4633 144.472 36.0544 142.669 37.2784C140.866 38.5024 138.853 39.3814 136.627 39.9155V40.5831C139.053 40.7166 141.378 41.4621 143.604 42.8196C145.851 44.1548 147.687 46.0464 149.112 48.4943C150.536 50.9422 151.248 53.902 151.248 57.3736C151.248 60.9119 150.391 64.0942 148.678 66.9204C146.964 69.7244 144.383 71.9387 140.933 73.5632C137.484 75.1877 133.144 76 127.915 76H100.242ZM112.626 65.652H125.945C130.441 65.652 133.679 64.7952 135.659 63.0817C137.662 61.3459 138.663 59.1205 138.663 56.4055C138.663 54.3804 138.163 52.5556 137.161 50.9311C136.16 49.2843 134.736 47.9936 132.888 47.0589C131.041 46.102 128.838 45.6236 126.279 45.6236H112.626V65.652ZM112.626 36.7109H124.877C127.013 36.7109 128.938 36.3215 130.652 35.5426C132.366 34.7415 133.712 33.6176 134.691 32.1712C135.692 30.7024 136.193 28.9666 136.193 26.9638C136.193 24.3156 135.259 22.1347 133.389 20.4212C131.542 18.7076 128.794 17.8508 125.144 17.8508H112.626V36.7109Z" fill="black"/>
<path d="M173.571 7.63635V76H161.487V7.63635H173.571Z" fill="black"/>
<path d="M208.362 77.0014C203.355 77.0014 199.016 75.8998 195.344 73.6967C191.672 71.4936 188.823 68.4114 186.798 64.4503C184.795 60.4891 183.794 55.8603 183.794 50.5639C183.794 45.2675 184.795 40.6276 186.798 36.6442C188.823 32.6607 191.672 29.5675 195.344 27.3643C199.016 25.1612 203.355 24.0597 208.362 24.0597C213.369 24.0597 217.709 25.1612 221.381 27.3643C225.053 29.5675 227.89 32.6607 229.893 36.6442C231.918 40.6276 232.93 45.2675 232.93 50.5639C232.93 55.8603 231.918 60.4891 229.893 64.4503C227.89 68.4114 225.053 71.4936 221.381 73.6967C217.709 75.8998 213.369 77.0014 208.362 77.0014ZM208.429 67.321C211.144 67.321 213.414 66.5755 215.239 65.0845C217.063 63.5712 218.421 61.5462 219.311 59.0092C220.223 56.4723 220.68 53.6461 220.68 50.5305C220.68 47.3927 220.223 44.5554 219.311 42.0185C218.421 39.4593 217.063 37.423 215.239 35.9098C213.414 34.3965 211.144 33.6399 208.429 33.6399C205.647 33.6399 203.333 34.3965 201.486 35.9098C199.661 37.423 198.292 39.4593 197.38 42.0185C196.49 44.5554 196.045 47.3927 196.045 50.5305C196.045 53.6461 196.49 56.4723 197.38 59.0092C198.292 61.5462 199.661 63.5712 201.486 65.0845C203.333 66.5755 205.647 67.321 208.429 67.321Z" fill="black"/>
<path d="M265.552 77.0014C260.433 77.0014 256.038 75.8776 252.366 73.63C248.717 71.3823 245.902 68.2779 243.921 64.3168C241.963 60.3333 240.983 55.749 240.983 50.5639C240.983 45.3565 241.985 40.7611 243.988 36.7777C245.991 32.772 248.817 29.6565 252.466 27.4311C256.138 25.1835 260.478 24.0597 265.485 24.0597C269.646 24.0597 273.329 24.8274 276.534 26.3629C279.761 27.8762 282.331 30.0237 284.245 32.8054C286.159 35.5649 287.249 38.7917 287.516 42.4858H275.966C275.499 40.0156 274.386 37.9571 272.628 36.3104C270.893 34.6413 268.567 33.8068 265.652 33.8068C263.182 33.8068 261.012 34.4744 259.143 35.8096C257.273 37.1226 255.816 39.0142 254.77 41.4844C253.746 43.9545 253.234 46.9143 253.234 50.3636C253.234 53.8575 253.746 56.8617 254.77 59.3764C255.793 61.8688 257.229 63.7938 259.076 65.1513C260.945 66.4865 263.137 67.1541 265.652 67.1541C267.432 67.1541 269.023 66.8203 270.425 66.1527C271.849 65.4628 273.04 64.4725 273.997 63.1818C274.954 61.8911 275.61 60.3222 275.966 58.4751H287.516C287.227 62.1025 286.159 65.3182 284.312 68.1222C282.465 70.9039 279.95 73.0847 276.768 74.6648C273.585 76.2225 269.847 77.0014 265.552 77.0014Z" fill="black"/>
<path d="M308.454 59.9105L308.421 45.3231H310.357L328.783 24.7273H342.903L320.238 49.9631H317.734L308.454 59.9105ZM297.439 76V7.63635H309.522V76H297.439ZM329.618 76L312.927 52.6669L321.072 44.1548L344.071 76H329.618Z" fill="black"/>
<path d="M391.48 38.2798L380.465 39.4815C380.153 38.3688 379.608 37.3229 378.829 36.3437C378.072 35.3646 377.049 34.5746 375.758 33.9737C374.467 33.3729 372.887 33.0724 371.018 33.0724C368.503 33.0724 366.389 33.6177 364.676 34.7081C362.984 35.7985 362.15 37.2116 362.172 38.9474C362.15 40.4384 362.695 41.6513 363.808 42.5859C364.943 43.5206 366.812 44.2883 369.416 44.8892L378.161 46.7585C383.013 47.8044 386.618 49.4623 388.977 51.7322C391.358 54.0021 392.56 56.973 392.582 60.6449C392.56 63.8717 391.614 66.7202 389.745 69.1903C387.897 71.6382 385.327 73.5521 382.034 74.9318C378.74 76.3115 374.957 77.0014 370.684 77.0014C364.409 77.0014 359.357 75.6884 355.529 73.0625C351.702 70.4143 349.421 66.7313 348.686 62.0135L360.47 60.8785C361.004 63.1929 362.139 64.9399 363.874 66.1193C365.61 67.2988 367.869 67.8885 370.651 67.8885C373.521 67.8885 375.825 67.2988 377.561 66.1193C379.319 64.9399 380.198 63.4822 380.198 61.7464C380.198 60.2777 379.63 59.0649 378.495 58.1079C377.383 57.151 375.647 56.4167 373.288 55.9048L364.542 54.0689C359.624 53.0452 355.986 51.3205 353.627 48.8949C351.268 46.447 350.099 43.3537 350.122 39.615C350.099 36.455 350.956 33.7178 352.692 31.4034C354.45 29.0668 356.887 27.2642 360.002 25.9957C363.14 24.705 366.756 24.0597 370.851 24.0597C376.86 24.0597 381.588 25.3392 385.038 27.8984C388.509 30.4576 390.657 33.9181 391.48 38.2798Z" fill="black"/>
<path d="M424.911 77.0014C419.793 77.0014 415.398 75.8776 411.726 73.63C408.076 71.3823 405.261 68.2779 403.28 64.3168C401.322 60.3333 400.343 55.749 400.343 50.5639C400.343 45.3565 401.344 40.7611 403.347 36.7777C405.35 32.772 408.176 29.6565 411.826 27.4311C415.498 25.1835 419.837 24.0597 424.844 24.0597C429.006 24.0597 432.689 24.8274 435.893 26.3629C439.12 27.8762 441.69 30.0237 443.604 32.8054C445.518 35.5649 446.609 38.7917 446.876 42.4858H435.326C434.858 40.0156 433.746 37.9571 431.988 36.3104C430.252 34.6413 427.926 33.8068 425.011 33.8068C422.541 33.8068 420.371 34.4744 418.502 35.8096C416.633 37.1226 415.175 39.0142 414.129 41.4844C413.105 43.9545 412.594 46.9143 412.594 50.3636C412.594 53.8575 413.105 56.8617 414.129 59.3764C415.153 61.8688 416.588 63.7938 418.435 65.1513C420.304 66.4865 422.497 67.1541 425.011 67.1541C426.792 67.1541 428.383 66.8203 429.785 66.1527C431.209 65.4628 432.399 64.4725 433.356 63.1818C434.313 61.8911 434.97 60.3222 435.326 58.4751H446.876C446.586 62.1025 445.518 65.3182 443.671 68.1222C441.824 70.9039 439.309 73.0847 436.127 74.6648C432.945 76.2225 429.206 77.0014 424.911 77.0014Z" fill="black"/>
<path d="M471.552 77.0348C468.303 77.0348 465.377 76.4562 462.773 75.299C460.192 74.1195 458.144 72.3838 456.631 70.0916C455.14 67.7995 454.395 64.9732 454.395 61.6129C454.395 58.7199 454.929 56.3276 455.997 54.4361C457.065 52.5445 458.523 51.0312 460.37 49.8963C462.217 48.7614 464.297 47.9046 466.612 47.326C468.948 46.7251 471.363 46.2912 473.855 46.0241C476.86 45.7126 479.297 45.4344 481.166 45.1896C483.035 44.9226 484.393 44.522 485.238 43.9879C486.106 43.4316 486.54 42.5748 486.54 41.4176V41.2173C486.54 38.7026 485.795 36.7554 484.304 35.3757C482.813 33.996 480.665 33.3061 477.861 33.3061C474.901 33.3061 472.554 33.9515 470.818 35.2422C469.104 36.5329 467.947 38.0573 467.346 39.8153L456.064 38.2131C456.954 35.0975 458.422 32.4938 460.47 30.402C462.517 28.2879 465.021 26.7078 467.98 25.6619C470.94 24.5937 474.212 24.0597 477.794 24.0597C480.265 24.0597 482.724 24.3489 485.172 24.9275C487.619 25.5061 489.856 26.4631 491.881 27.7983C493.906 29.1113 495.531 30.9027 496.755 33.1726C498.001 35.4425 498.624 38.2798 498.624 41.6846V76H487.007V68.9567H486.607C485.873 70.3809 484.838 71.7161 483.503 72.9623C482.19 74.1863 480.532 75.1766 478.529 75.9332C476.548 76.6676 474.223 77.0348 471.552 77.0348ZM474.69 68.1555C477.116 68.1555 479.219 67.6771 480.999 66.7202C482.779 65.741 484.148 64.4503 485.105 62.848C486.084 61.2457 486.574 59.4988 486.574 57.6072V51.5653C486.195 51.8769 485.55 52.1662 484.637 52.4332C483.747 52.7003 482.746 52.9339 481.633 53.1342C480.52 53.3345 479.419 53.5125 478.328 53.6683C477.238 53.8241 476.292 53.9576 475.491 54.0689C473.689 54.3137 472.075 54.7142 470.651 55.2706C469.227 55.8269 468.103 56.6058 467.279 57.6072C466.456 58.5864 466.044 59.8549 466.044 61.4126C466.044 63.638 466.857 65.3182 468.481 66.4531C470.106 67.5881 472.175 68.1555 474.69 68.1555Z" fill="black"/>
<path d="M522.858 45.9574V76H510.775V24.7273H522.324V33.4396H522.925C524.105 30.5689 525.985 28.2879 528.566 26.5966C531.17 24.9053 534.386 24.0597 538.213 24.0597C541.752 24.0597 544.834 24.8163 547.46 26.3295C550.108 27.8428 552.155 30.0348 553.602 32.9055C555.071 35.7763 555.794 39.259 555.772 43.3537V76H543.688V45.223C543.688 41.7959 542.798 39.1143 541.017 37.1783C539.259 35.2422 536.823 34.2741 533.707 34.2741C531.593 34.2741 529.712 34.7415 528.066 35.6761C526.441 36.5885 525.162 37.9126 524.227 39.6484C523.315 41.3842 522.858 43.4872 522.858 45.9574Z" fill="black"/>
<rect width="30" height="84" rx="3" fill="black"/>
<rect x="34.2969" width="40" height="40" rx="3" fill="black"/>
<rect x="34.2969" y="44.4948" width="40" height="40" rx="3" fill="black"/>
</svg>
